<?xml version="1.0" standalone="no"?>
<!DOCTYPE svg PUBLIC "-//W3C//DTD SVG 1.1//EN" "http://www.w3.org/Graphics/SVG/1.1/DTD/svg11.dtd" >
<svg>
<metadata>
Created by FontForge 20120731 at Tue Mar 12 01:01:30 2019
 By www-data
Copyright 2016 The Cabin Project Authors (impallari@gmail.com)
</metadata>
<defs>
<font id="Cabin-SemiBoldItalic" horiz-adv-x="0" >
  <font-face 
    font-family="Cabin SemiBold"
    font-weight="600"
    font-style="italic"
    font-stretch="normal"
    units-per-em="1000"
    panose-1="0 0 7 0 0 0 0 0 0 0"
    ascent="800"
    descent="-200"
    x-height="497"
    cap-height="700"
    bbox="-272 -272 1275 1145"
    underline-thickness="50"
    underline-position="-50"
    slope="-7"
    unicode-range="U+000D-25CA"
  />
<missing-glyph horiz-adv-x="603" 
d="M50 700h503v-700h-503v700zM473 70v560h-343v-560h343z" />
    <glyph glyph-name=".notdef" horiz-adv-x="603" 
d="M50 700h503v-700h-503v700zM473 70v560h-343v-560h343z" />
    <glyph glyph-name="NULL" 
 />
    <glyph glyph-name="nonmarkingreturn" unicode="&#xd;" horiz-adv-x="212" 
 />
    <glyph glyph-name="space" unicode=" " horiz-adv-x="212" 
 />
    <glyph glyph-name="A" unicode="A" horiz-adv-x="595" 
d="M317 700h113l111 -700h-123l-27 175h-222l-87 -175h-123zM371 288l-30 231l-112 -231h142z" />
    <glyph glyph-name="Aacute" unicode="&#xc1;" horiz-adv-x="595" 
d="M317 700h113l111 -700h-123l-27 175h-222l-87 -175h-123zM371 288l-30 231l-112 -231h142zM310 853l196 107l-18 -121l-194 -64z" />
    <glyph glyph-name="Abreve" unicode="&#x102;" horiz-adv-x="595" 
d="M317 700h113l111 -700h-123l-27 175h-222l-87 -175h-123zM371 288l-30 231l-112 -231h142zM297 817.5q-35 30.5 -35 77.5q0 16 4 27h79q-2 -10 -2 -16q0 -23 14.5 -35t41.5 -12q31 0 52.5 16.5t26.5 46.5h88q-14 -62 -58.5 -98.5t-114.5 -36.5q-61 0 -96 30.5z" />
    <glyph glyph-name="uni1EAE" unicode="&#x1eae;" horiz-adv-x="595" 
d="M317 700h113l111 -700h-123l-27 175h-222l-87 -175h-123zM371 288l-30 231l-112 -231h142zM357 1005l186 95l-17 -108l-180 -58zM291 794.5q-34 29.5 -34 75.5q0 7 2 23h83q-2 -8 -2 -15q0 -23 16 -35t42 -12q31 0 52.5 16.5t26.5 45.5h85q-10 -58 -56 -93t-118 -35
q-63 0 -97 29.5z" />
    <glyph glyph-name="uni1EB6" unicode="&#x1eb6;" horiz-adv-x="595" 
d="M317 700h113l111 -700h-123l-27 175h-222l-87 -175h-123zM371 288l-30 231l-112 -231h142zM283 794.5q-34 29.5 -34 75.5q0 7 2 23h83q-2 -8 -2 -15q0 -23 16 -35t42 -12q31 0 52.5 16.5t26.5 45.5h85q-10 -58 -56 -93t-118 -35q-63 0 -97 29.5zM188 -81h97l-18 -95h-97z
" />
    <glyph glyph-name="uni1EB0" unicode="&#x1eb0;" horiz-adv-x="595" 
d="M317 700h113l111 -700h-123l-27 175h-222l-87 -175h-123zM371 288l-30 231l-112 -231h142zM340 992l19 102l168 -95l-13 -65zM284 794.5q-34 29.5 -34 75.5q0 7 2 23h83q-2 -8 -2 -15q0 -23 16 -35t42 -12q31 0 52.5 16.5t26.5 45.5h85q-10 -58 -56 -93t-118 -35
q-63 0 -97 29.5z" />
    <glyph glyph-name="uni1EB2" unicode="&#x1eb2;" horiz-adv-x="595" 
d="M317 700h113l111 -700h-123l-27 175h-222l-87 -175h-123zM371 288l-30 231l-112 -231h142zM425 958q42 12 42 39q0 26 -33 26q-26 0 -62 -17l-8 58q39 17 83 17q38 0 61.5 -18t23.5 -50q0 -72 -104 -98zM299.5 801.5q-34.5 29.5 -34.5 75.5q0 7 2 23h84q-2 -8 -2 -15
q0 -23 15.5 -35t42.5 -12q31 0 52 16.5t26 45.5h85q-9 -58 -55 -93t-118 -35q-63 0 -97.5 29.5z" />
    <glyph glyph-name="uni1EB4" unicode="&#x1eb4;" horiz-adv-x="595" 
d="M317 700h113l111 -700h-123l-27 175h-222l-87 -175h-123zM371 288l-30 231l-112 -231h142zM478 946.5q-16 5.5 -40 15.5q-15 7 -30.5 12.5t-26.5 5.5q-13 0 -22 -8.5t-12 -23.5h-72q9 50 33.5 76.5t63.5 26.5q25 0 69 -20q15 -7 31 -12.5t28 -5.5q27 0 33 33h73
q-8 -51 -33 -78t-64 -27q-15 0 -31 5.5zM296.5 794.5q-34.5 29.5 -34.5 75.5q0 7 2 23h83q-1 -4 -1 -15q0 -23 15.5 -35t42.5 -12q30 0 51.5 16.5t26.5 45.5h85q-10 -58 -56 -93t-118 -35q-62 0 -96.5 29.5z" />
    <glyph glyph-name="Acircumflex" unicode="&#xc2;" horiz-adv-x="595" 
d="M317 700h113l111 -700h-123l-27 175h-222l-87 -175h-123zM371 288l-30 231l-112 -231h142zM285 847l131 98l108 -111l-15 -74l-113 82l-128 -71z" />
    <glyph glyph-name="uni1EA4" unicode="&#x1ea4;" horiz-adv-x="595" 
d="M317 700h113l111 -700h-123l-27 175h-222l-87 -175h-123zM371 288l-30 231l-112 -231h142zM539 1019h109l-112 -115h-74zM390 825l-120 -59l13 70l124 80l113 -92l-12 -70z" />
    <glyph glyph-name="uni1EAC" unicode="&#x1eac;" horiz-adv-x="595" 
d="M317 700h113l111 -700h-123l-27 175h-222l-87 -175h-123zM371 288l-30 231l-112 -231h142zM389 818l-120 -59l13 70l124 80l113 -92l-12 -70zM188 -81h97l-18 -95h-97z" />
    <glyph glyph-name="uni1EA6" unicode="&#x1ea6;" horiz-adv-x="595" 
d="M317 700h113l111 -700h-123l-27 175h-222l-87 -175h-123zM371 288l-30 231l-112 -231h142zM409 1028h103l31 -124h-72zM389 825l-120 -59l13 70l124 80l113 -92l-12 -70z" />
    <glyph glyph-name="uni1EA8" unicode="&#x1ea8;" horiz-adv-x="595" 
d="M317 700h113l111 -700h-123l-27 175h-222l-87 -175h-123zM371 288l-30 231l-112 -231h142zM479 915q43 10 43 39q0 25 -34 25q-25 0 -62 -16l-7 58q40 16 82 16q38 0 61.5 -18t23.5 -49q0 -37 -27 -61.5t-77 -36.5zM389 818l-120 -59l13 70l124 80l113 -92l-12 -70z" />
    <glyph glyph-name="uni1EAA" unicode="&#x1eaa;" horiz-adv-x="595" 
d="M317 700h113l111 -700h-123l-27 175h-222l-87 -175h-123zM371 288l-30 231l-112 -231h142zM463 941q-15 5 -40 16q-15 7 -31 12.5t-27 5.5q-13 0 -22 -8.5t-11 -23.5h-73q20 103 98 103q15 0 31 -5t38 -15q15 -7 31 -12.5t27 -5.5q28 0 34 33h72q-7 -51 -32.5 -78
t-64.5 -27q-15 0 -30 5zM389 818l-120 -59l13 70l124 80l113 -92l-12 -70z" />
    <glyph glyph-name="uni0200" unicode="&#x200;" horiz-adv-x="595" 
d="M317 700h113l111 -700h-123l-27 175h-222l-87 -175h-123zM371 288l-30 231l-112 -231h142zM204 942h107l37 -154h-73zM354 942h107l30 -154h-73z" />
    <glyph glyph-name="Adieresis" unicode="&#xc4;" horiz-adv-x="595" 
d="M317 700h113l111 -700h-123l-27 175h-222l-87 -175h-123zM371 288l-30 231l-112 -231h142zM260 881h91l-17 -87h-91zM454 881h91l-17 -87h-91z" />
    <glyph glyph-name="uni1EA0" unicode="&#x1ea0;" horiz-adv-x="595" 
d="M317 700h113l111 -700h-123l-27 175h-222l-87 -175h-123zM371 288l-30 231l-112 -231h142zM188 -81h97l-18 -95h-97z" />
    <glyph glyph-name="Agrave" unicode="&#xc0;" horiz-adv-x="595" 
d="M317 700h113l111 -700h-123l-27 175h-222l-87 -175h-123zM371 288l-30 231l-112 -231h142zM301 849l20 110l165 -111l-13 -73z" />
    <glyph glyph-name="uni1EA2" unicode="&#x1ea2;" horiz-adv-x="595" 
d="M317 700h113l111 -700h-123l-27 175h-222l-87 -175h-123zM371 288l-30 231l-112 -231h142zM403.5 808q13.5 15 13.5 34q0 13 -8 20t-23 7q-25 0 -66 -18l-6 56q43 18 83 18q37 0 60 -18t24 -51q0 -37 -23.5 -65t-67.5 -57l-29 36q29 23 42.5 38z" />
    <glyph glyph-name="uni0202" unicode="&#x202;" horiz-adv-x="595" 
d="M317 700h113l111 -700h-123l-27 175h-222l-87 -175h-123zM371 288l-30 231l-112 -231h142zM289 871q47 37 116 37q62 0 96 -29.5t34 -75.5q0 -9 -2 -23h-84q2 10 2 14q0 23 -15.5 35.5t-42.5 12.5q-30 0 -51 -16.5t-26 -45.5h-83q9 54 56 91z" />
    <glyph glyph-name="Amacron" unicode="&#x100;" horiz-adv-x="595" 
d="M317 700h113l111 -700h-123l-27 175h-222l-87 -175h-123zM371 288l-30 231l-112 -231h142zM238 867h319l-14 -74h-318z" />
    <glyph glyph-name="Aogonek" unicode="&#x104;" horiz-adv-x="595" 
d="M317 700h113l111 -700h-123l-27 175h-222l-87 -175h-123zM371 288l-30 231l-112 -231h142zM540 0q-44 -29 -70.5 -57.5t-26.5 -58.5q0 -18 9.5 -27t27.5 -9q31 0 60 13l6 -53q-38 -18 -84 -18q-38 0 -61 18.5t-24 51.5q0 40 30.5 77t73.5 63h59z" />
    <glyph glyph-name="Aring" unicode="&#xc5;" horiz-adv-x="595" 
d="M317 700h113l111 -700h-123l-27 175h-222l-87 -175h-123zM371 288l-30 231l-112 -231h142zM318.5 794.5q-22.5 22.5 -22.5 56.5q0 32 17 59t45 43t61 16q41 0 63.5 -22t22.5 -56q0 -50 -36 -84.5t-87 -34.5q-41 0 -63.5 22.5zM429.5 839.5q16.5 17.5 16.5 41.5
q0 17 -10 27.5t-26 10.5q-22 0 -39 -18t-17 -41q0 -17 10 -27.5t27 -10.5q22 0 38.5 17.5z" />
    <glyph glyph-name="Aringacute" unicode="&#x1fa;" horiz-adv-x="595" 
d="M317 700h113l111 -700h-123l-27 175h-222l-87 -175h-123zM371 288l-30 231l-112 -231h142zM316 777.5q-23 22.5 -23 57.5q0 48 34.5 81.5t82.5 33.5q41 0 63.5 -23t22.5 -58q0 -48 -34 -81t-82 -33q-41 0 -64 22.5zM423.5 821.5q15.5 17.5 15.5 39.5q-1 17 -10.5 28
t-25.5 11q-21 0 -36.5 -17t-15.5 -40q0 -18 10 -28.5t25 -10.5q22 0 37.5 17.5zM343 1050l187 95l-17 -108l-180 -58z" />
    <glyph glyph-name="Atilde" unicode="&#xc3;" horiz-adv-x="595" 
d="M317 700h113l111 -700h-123l-27 175h-222l-87 -175h-123zM371 288l-30 231l-112 -231h142zM439.5 787.5q-16.5 5.5 -39.5 16.5q-42 21 -62 21q-16 0 -26.5 -9.5t-13.5 -25.5h-77q10 57 37 87.5t68 30.5q17 0 33.5 -6.5t37.5 -17.5q15 -8 30.5 -14t27.5 -6q32 0 38 39h79
q-11 -62 -36 -91.5t-65 -29.5q-15 0 -31.5 5.5z" />
    <glyph glyph-name="AE" unicode="&#xc6;" horiz-adv-x="826" 
d="M390 700h465l-21 -113h-280l-29 -165h216l-20 -113h-216l-35 -197h290l-20 -112h-411l30 172h-184l-108 -172h-122zM380 287l52 298l-182 -298h130z" />
    <glyph glyph-name="AEacute" unicode="&#x1fc;" horiz-adv-x="826" 
d="M390 700h465l-21 -113h-280l-29 -165h216l-20 -113h-216l-35 -197h290l-20 -112h-411l30 172h-184l-108 -172h-122zM380 287l52 298l-182 -298h130zM559 832l187 95l-17 -108l-180 -58z" />
    <glyph glyph-name="B" unicode="B" horiz-adv-x="601" 
d="M150 700h192q99 0 154 -35.5t55 -120.5q0 -56 -26 -100.5t-71 -70.5q49 -17 74 -53t25 -88q0 -73 -36.5 -125.5t-98.5 -79.5t-139 -27h-252zM320 416q48 0 78.5 29t30.5 79q0 39 -19.5 56.5t-58.5 17.5h-101l-32 -182h102zM276 102q65 0 106.5 32.5t41.5 92.5
q0 45 -26 69t-77 24h-120l-39 -218h114z" />
    <glyph glyph-name="C" unicode="C" horiz-adv-x="585" 
d="M170.5 21.5q-61.5 35.5 -94.5 103.5t-33 161q0 121 54 219t145.5 153.5t199.5 55.5q49 0 97 -11.5t82 -29.5l-33 -112q-43 19 -81 30t-81 11q-79 0 -136.5 -42t-87 -112t-29.5 -152q0 -93 40 -145.5t126 -52.5q69 0 174 40l-7 -111q-39 -19 -91 -30t-100 -11
q-83 0 -144.5 35.5z" />
    <glyph glyph-name="Cacute" unicode="&#x106;" horiz-adv-x="585" 
d="M170.5 21.5q-61.5 35.5 -94.5 103.5t-33 161q0 121 54 219t145.5 153.5t199.5 55.5q49 0 97 -11.5t82 -29.5l-33 -112q-43 19 -81 30t-81 11q-79 0 -136.5 -42t-87 -112t-29.5 -152q0 -93 40 -145.5t126 -52.5q69 0 174 40l-7 -111q-39 -19 -91 -30t-100 -11
q-83 0 -144.5 35.5zM390 832l187 95l-17 -108l-180 -58z" />
    <glyph glyph-name="Ccaron" unicode="&#x10c;" horiz-adv-x="585" 
d="M170.5 21.5q-61.5 35.5 -94.5 103.5t-33 161q0 121 54 219t145.5 153.5t199.5 55.5q49 0 97 -11.5t82 -29.5l-33 -112q-43 19 -81 30t-81 11q-79 0 -136.5 -42t-87 -112t-29.5 -152q0 -93 40 -145.5t126 -52.5q69 0 174 40l-7 -111q-39 -19 -91 -30t-100 -11
q-83 0 -144.5 35.5zM344 839l12 70l116 -75l123 72l-13 -79l-124 -80z" />
    <glyph glyph-name="Ccedilla" unicode="&#xc7;" horiz-adv-x="585" 
d="M289.5 560q-57.5 -42 -87 -112t-29.5 -152q0 -93 40 -145.5t126 -52.5q69 0 174 40l-7 -111q-33 -16 -75.5 -26.5t-84.5 -13.5l-20 -41h7q35 0 55.5 -18.5t20.5 -51.5q0 -49 -37 -80t-92 -31q-46 0 -78 19l28 56q32 -17 61 -17q26 0 40.5 11t14.5 29q0 15 -11.5 23
t-33.5 8q-23 0 -50 -7l42 100q-116 7 -183 85.5t-67 213.5q0 121 54 219t145.5 153.5t199.5 55.5q49 0 97 -11.5t82 -29.5l-33 -112q-43 19 -81 30t-81 11q-79 0 -136.5 -42z" />
    <glyph glyph-name="uni1E08" unicode="&#x1e08;" horiz-adv-x="585" 
d="M560 819l-180 -58l10 71l187 95zM289.5 560q-57.5 -42 -87 -112t-29.5 -152q0 -93 40 -145.5t126 -52.5q69 0 174 40l-7 -111q-33 -16 -75.5 -26.5t-84.5 -13.5l-20 -41h7q35 0 55.5 -18.5t20.5 -51.5q0 -49 -37 -80t-92 -31q-46 0 -78 19l28 56q32 -17 61 -17
q26 0 40.5 11t14.5 29q0 15 -11.5 23t-33.5 8q-23 0 -50 -7l42 100q-116 7 -183 85.5t-67 213.5q0 121 54 219t145.5 153.5t199.5 55.5q49 0 97 -11.5t82 -29.5l-33 -112q-43 19 -81 30t-81 11q-79 0 -136.5 -42z" />
    <glyph glyph-name="Ccircumflex" unicode="&#x108;" horiz-adv-x="585" 
d="M170.5 21.5q-61.5 35.5 -94.5 103.5t-33 161q0 121 54 219t145.5 153.5t199.5 55.5q49 0 97 -11.5t82 -29.5l-33 -112q-43 19 -81 30t-81 11q-79 0 -136.5 -42t-87 -112t-29.5 -152q0 -93 40 -145.5t126 -52.5q69 0 174 40l-7 -111q-39 -19 -91 -30t-100 -11
q-83 0 -144.5 35.5zM474 818l-120 -59l13 70l124 80l113 -92l-12 -70z" />
    <glyph glyph-name="Cdotaccent" unicode="&#x10a;" horiz-adv-x="585" 
d="M170.5 21.5q-61.5 35.5 -94.5 103.5t-33 161q0 121 54 219t145.5 153.5t199.5 55.5q49 0 97 -11.5t82 -29.5l-33 -112q-43 19 -81 30t-81 11q-79 0 -136.5 -42t-87 -112t-29.5 -152q0 -93 40 -145.5t126 -52.5q69 0 174 40l-7 -111q-39 -19 -91 -30t-100 -11
q-83 0 -144.5 35.5zM437 887h99l-17 -95h-99z" />
    <glyph glyph-name="D" unicode="D" horiz-adv-x="693" 
d="M150 700h246q126 0 199 -75.5t73 -215.5q0 -119 -53 -212t-143.5 -145t-198.5 -52h-246zM293 112q77 0 132.5 38.5t84 104t28.5 144.5q0 92 -40.5 140.5t-120.5 48.5h-129l-84 -476h129z" />
    <glyph glyph-name="uni01C4" unicode="&#x1c4;" horiz-adv-x="1204" 
d="M150 700h246q126 0 199 -75.5t73 -215.5q0 -119 -53 -212t-143.5 -145t-198.5 -52h-246zM293 112q77 0 132.5 38.5t84 104t28.5 144.5q0 92 -40.5 140.5t-120.5 48.5h-129l-84 -476h129zM1050 588h-264l19 112h460l-411 -588h264l-19 -112h-460zM938 873l15 74l114 -82
l141 82l-15 -84l-146 -101z" />
    <glyph glyph-name="Eth" unicode="&#xd0;" horiz-adv-x="703" 
d="M550 666.5q61 -33.5 94.5 -97.5t33.5 -151q0 -125 -52.5 -220t-143 -146.5t-199.5 -51.5h-246l55 311h-67l16 90h66l53 299h247q82 0 143 -33.5zM436 150q55 38 83.5 105t28.5 152t-40.5 133t-120.5 48h-129l-33 -187h130l-16 -90h-130l-35 -199h129q78 0 133 38z" />
    <glyph glyph-name="Dcaron" unicode="&#x10e;" horiz-adv-x="693" 
d="M150 700h246q126 0 199 -75.5t73 -215.5q0 -119 -53 -212t-143.5 -145t-198.5 -52h-246zM293 112q77 0 132.5 38.5t84 104t28.5 144.5q0 92 -40.5 140.5t-120.5 48.5h-129l-84 -476h129zM316 839l12 70l116 -75l123 72l-13 -79l-124 -80z" />
    <glyph glyph-name="Dcroat" unicode="&#x110;" horiz-adv-x="703" 
d="M550 666.5q61 -33.5 94.5 -97.5t33.5 -151q0 -125 -52.5 -220t-143 -146.5t-199.5 -51.5h-246l55 311h-67l16 90h66l53 299h247q82 0 143 -33.5zM436 150q55 38 83.5 105t28.5 152t-40.5 133t-120.5 48h-129l-33 -187h130l-16 -90h-130l-35 -199h129q78 0 133 38z" />
    <glyph glyph-name="uni1E0C" unicode="&#x1e0c;" horiz-adv-x="693" 
d="M150 700h246q126 0 199 -75.5t73 -215.5q0 -119 -53 -212t-143.5 -145t-198.5 -52h-246zM293 112q77 0 132.5 38.5t84 104t28.5 144.5q0 92 -40.5 140.5t-120.5 48.5h-129l-84 -476h129zM284 -81h97l-18 -95h-97z" />
    <glyph glyph-name="uni1E0E" unicode="&#x1e0e;" horiz-adv-x="693" 
d="M150 700h246q126 0 199 -75.5t73 -215.5q0 -119 -53 -212t-143.5 -145t-198.5 -52h-246zM293 112q77 0 132.5 38.5t84 104t28.5 144.5q0 92 -40.5 140.5t-120.5 48.5h-129l-84 -476h129zM172 -91h317l-15 -78h-318z" />
    <glyph glyph-name="uni01C5" unicode="&#x1c5;" horiz-adv-x="1138" 
d="M150 700h246q126 0 199 -75.5t73 -215.5q0 -119 -53 -212t-143.5 -145t-198.5 -52h-246zM293 112q77 0 132.5 38.5t84 104t28.5 144.5q0 92 -40.5 140.5t-120.5 48.5h-129l-84 -476h129zM944 399h-207l18 98h396l-286 -399h206l-18 -98h-395zM856 670l15 74l114 -82
l141 82l-15 -84l-146 -101z" />
    <glyph glyph-name="E" unicode="E" horiz-adv-x="543" 
d="M150 700h421l-20 -112h-300l-29 -166h232l-19 -113h-233l-35 -197h309l-20 -112h-429z" />
    <glyph glyph-name="Eacute" unicode="&#xc9;" horiz-adv-x="543" 
d="M150 700h421l-20 -112h-300l-29 -166h232l-19 -113h-233l-35 -197h309l-20 -112h-429zM302 853l196 107l-18 -121l-194 -64z" />
    <glyph glyph-name="Ebreve" unicode="&#x114;" horiz-adv-x="543" 
d="M150 700h421l-20 -112h-300l-29 -166h232l-19 -113h-233l-35 -197h309l-20 -112h-429zM275 794.5q-34 29.5 -34 75.5q0 7 2 23h83q-2 -8 -2 -15q0 -23 16 -35t42 -12q31 0 52.5 16.5t26.5 45.5h85q-10 -58 -56 -93t-118 -35q-63 0 -97 29.5z" />
    <glyph glyph-name="Ecaron" unicode="&#x11a;" horiz-adv-x="543" 
d="M150 700h421l-20 -112h-300l-29 -166h232l-19 -113h-233l-35 -197h309l-20 -112h-429zM251 839l12 70l116 -75l123 72l-13 -79l-124 -80z" />
    <glyph glyph-name="uni1E1C" unicode="&#x1e1c;" horiz-adv-x="543" 
d="M150 700h421l-20 -112h-300l-29 -166h232l-19 -113h-233l-35 -197h309l-20 -112h-429zM317.5 -72.5q20.5 -18.5 20.5 -51.5q0 -49 -37 -80t-92 -31q-46 0 -78 19l28 56q32 -17 61 -17q26 0 40.5 11t14.5 29q0 15 -11.5 23t-33.5 8q-23 0 -50 -7l48 113h53l-26 -54h7
q35 0 55.5 -18.5zM275 794.5q-34 29.5 -34 75.5q0 7 2 23h83q-2 -8 -2 -15q0 -23 16 -35t42 -12q31 0 52.5 16.5t26.5 45.5h85q-10 -58 -56 -93t-118 -35q-63 0 -97 29.5z" />
    <glyph glyph-name="Ecircumflex" unicode="&#xca;" horiz-adv-x="543" 
d="M150 700h421l-20 -112h-300l-29 -166h232l-19 -113h-233l-35 -197h309l-20 -112h-429zM277 847l131 98l108 -111l-15 -74l-113 82l-128 -71z" />
    <glyph glyph-name="uni1EBE" unicode="&#x1ebe;" horiz-adv-x="543" 
d="M150 700h421l-20 -112h-300l-29 -166h232l-19 -113h-233l-35 -197h309l-20 -112h-429zM531 1019h109l-112 -115h-74zM382 825l-120 -59l13 70l124 80l113 -92l-12 -70z" />
    <glyph glyph-name="uni1EC6" unicode="&#x1ec6;" horiz-adv-x="543" 
d="M150 700h421l-20 -112h-300l-29 -166h232l-19 -113h-233l-35 -197h309l-20 -112h-429zM381 818l-120 -59l13 70l124 80l113 -92l-12 -70zM190 -81h97l-18 -95h-97z" />
    <glyph glyph-name="uni1EC0" unicode="&#x1ec0;" horiz-adv-x="543" 
d="M150 700h421l-20 -112h-300l-29 -166h232l-19 -113h-233l-35 -197h309l-20 -112h-429zM401 1028h103l31 -124h-72zM381 825l-120 -59l13 70l124 80l113 -92l-12 -70z" />
    <glyph glyph-name="uni1EC2" unicode="&#x1ec2;" horiz-adv-x="543" 
d="M150 700h421l-20 -112h-300l-29 -166h232l-19 -113h-233l-35 -197h309l-20 -112h-429zM471 915q43 10 43 39q0 25 -34 25q-25 0 -62 -16l-7 58q40 16 82 16q38 0 61.5 -18t23.5 -49q0 -37 -27 -61.5t-77 -36.5zM381 818l-120 -59l13 70l124 80l113 -92l-12 -70z" />
    <glyph glyph-name="uni1EC4" unicode="&#x1ec4;" horiz-adv-x="543" 
d="M150 700h421l-20 -112h-300l-29 -166h232l-19 -113h-233l-35 -197h309l-20 -112h-429zM455 941q-15 5 -40 16q-15 7 -31 12.5t-27 5.5q-13 0 -22 -8.5t-11 -23.5h-73q20 103 98 103q15 0 31 -5t38 -15q15 -7 31 -12.5t27 -5.5q28 0 34 33h72q-7 -51 -32.5 -78t-64.5 -27
q-15 0 -30 5zM381 818l-120 -59l13 70l124 80l113 -92l-12 -70z" />
    <glyph glyph-name="uni0204" unicode="&#x204;" horiz-adv-x="543" 
d="M150 700h421l-20 -112h-300l-29 -166h232l-19 -113h-233l-35 -197h309l-20 -112h-429zM196 942h107l37 -154h-73zM346 942h107l30 -154h-73z" />
    <glyph glyph-name="Edieresis" unicode="&#xcb;" horiz-adv-x="543" 
d="M150 700h421l-20 -112h-300l-29 -166h232l-19 -113h-233l-35 -197h309l-20 -112h-429zM252 881h91l-17 -87h-91zM446 881h91l-17 -87h-91z" />
    <glyph glyph-name="Edotaccent" unicode="&#x116;" horiz-adv-x="543" 
d="M150 700h421l-20 -112h-300l-29 -166h232l-19 -113h-233l-35 -197h309l-20 -112h-429zM344 887h99l-17 -95h-99z" />
    <glyph glyph-name="uni1EB8" unicode="&#x1eb8;" horiz-adv-x="543" 
d="M150 700h421l-20 -112h-300l-29 -166h232l-19 -113h-233l-35 -197h309l-20 -112h-429zM190 -81h97l-18 -95h-97z" />
    <glyph glyph-name="Egrave" unicode="&#xc8;" horiz-adv-x="543" 
d="M150 700h421l-20 -112h-300l-29 -166h232l-19 -113h-233l-35 -197h309l-20 -112h-429zM293 849l20 110l165 -111l-13 -73z" />
    <glyph glyph-name="uni1EBA" unicode="&#x1eba;" horiz-adv-x="543" 
d="M150 700h421l-20 -112h-300l-29 -166h232l-19 -113h-233l-35 -197h309l-20 -112h-429zM395.5 808q13.5 15 13.5 34q0 13 -8 20t-23 7q-25 0 -66 -18l-6 56q43 18 83 18q37 0 60 -18t24 -51q0 -37 -23.5 -65t-67.5 -57l-29 36q29 23 42.5 38z" />
    <glyph glyph-name="uni0206" unicode="&#x206;" horiz-adv-x="543" 
d="M150 700h421l-20 -112h-300l-29 -166h232l-19 -113h-233l-35 -197h309l-20 -112h-429zM281 871q47 37 116 37q62 0 96 -29.5t34 -75.5q0 -9 -2 -23h-84q2 10 2 14q0 23 -15.5 35.5t-42.5 12.5q-30 0 -51 -16.5t-26 -45.5h-83q9 54 56 91z" />
    <glyph glyph-name="Emacron" unicode="&#x112;" horiz-adv-x="543" 
d="M150 700h421l-20 -112h-300l-29 -166h232l-19 -113h-233l-35 -197h309l-20 -112h-429zM230 867h319l-14 -74h-318z" />
    <glyph glyph-name="uni1E16" unicode="&#x1e16;" horiz-adv-x="543" 
d="M150 700h421l-20 -112h-300l-29 -166h232l-19 -113h-233l-35 -197h309l-20 -112h-429zM230 867h319l-14 -74h-318zM331 997l187 95l-17 -108l-180 -58z" />
    <glyph glyph-name="uni1E14" unicode="&#x1e14;" horiz-adv-x="543" 
d="M150 700h421l-20 -112h-300l-29 -166h232l-19 -113h-233l-35 -197h309l-20 -112h-429zM230 867h319l-14 -74h-318zM322 984l19 102l168 -95l-13 -65z" />
    <glyph glyph-name="Eogonek" unicode="&#x118;" horiz-adv-x="543" 
d="M150 700h421l-20 -112h-300l-29 -166h232l-19 -113h-233l-35 -197h309l-20 -112h-429zM455 0q-44 -29 -70.5 -57.5t-26.5 -58.5q0 -18 9.5 -27t27.5 -9q31 0 60 13l6 -53q-38 -18 -84 -18q-38 0 -61 18.5t-24 51.5q0 40 30.5 77t73.5 63h59z" />
    <glyph glyph-name="uni1EBC" unicode="&#x1ebc;" horiz-adv-x="543" 
d="M150 700h421l-20 -112h-300l-29 -166h232l-19 -113h-233l-35 -197h309l-20 -112h-429zM431.5 787.5q-16.5 5.5 -39.5 16.5q-42 21 -62 21q-16 0 -26.5 -9.5t-13.5 -25.5h-77q10 57 37 87.5t68 30.5q17 0 33.5 -6.5t37.5 -17.5q15 -8 30.5 -14t27.5 -6q32 0 38 39h79
q-11 -62 -36 -91.5t-65 -29.5q-15 0 -31.5 5.5z" />
    <glyph glyph-name="F" unicode="F" horiz-adv-x="505" 
d="M150 700h406l-20 -112h-288l-29 -166h222l-20 -113h-222l-54 -309h-118z" />
    <glyph glyph-name="G" unicode="G" horiz-adv-x="638" 
d="M171.5 22q-60.5 36 -94 104.5t-33.5 161.5q0 120 53.5 217.5t144.5 153t200 55.5q51 0 106 -11.5t87 -29.5l-33 -110q-36 17 -84 28t-90 11q-81 0 -138.5 -42.5t-86.5 -112t-29 -147.5q0 -95 43 -148.5t128 -53.5q45 0 94 13l25 140h-75l18 100h192l-55 -312
q-39 -22 -106.5 -37.5t-124.5 -15.5q-81 0 -141.5 36z" />
    <glyph glyph-name="Gbreve" unicode="&#x11e;" horiz-adv-x="638" 
d="M171.5 22q-60.5 36 -94 104.5t-33.5 161.5q0 120 53.5 217.5t144.5 153t200 55.5q51 0 106 -11.5t87 -29.5l-33 -110q-36 17 -84 28t-90 11q-81 0 -138.5 -42.5t-86.5 -112t-29 -147.5q0 -95 43 -148.5t128 -53.5q45 0 94 13l25 140h-75l18 100h192l-55 -312
q-39 -22 -106.5 -37.5t-124.5 -15.5q-81 0 -141.5 36zM354 794.5q-34 29.5 -34 75.5q0 7 2 23h83q-2 -8 -2 -15q0 -23 16 -35t42 -12q31 0 52.5 16.5t26.5 45.5h85q-10 -58 -56 -93t-118 -35q-63 0 -97 29.5z" />
    <glyph glyph-name="Gcaron" unicode="&#x1e6;" horiz-adv-x="638" 
d="M171.5 22q-60.5 36 -94 104.5t-33.5 161.5q0 120 53.5 217.5t144.5 153t200 55.5q51 0 106 -11.5t87 -29.5l-33 -110q-36 17 -84 28t-90 11q-81 0 -138.5 -42.5t-86.5 -112t-29 -147.5q0 -95 43 -148.5t128 -53.5q45 0 94 13l25 140h-75l18 100h192l-55 -312
q-39 -22 -106.5 -37.5t-124.5 -15.5q-81 0 -141.5 36zM330 839l12 70l116 -75l123 72l-13 -79l-124 -80z" />
    <glyph glyph-name="Gcircumflex" unicode="&#x11c;" horiz-adv-x="638" 
d="M171.5 22q-60.5 36 -94 104.5t-33.5 161.5q0 120 53.5 217.5t144.5 153t200 55.5q51 0 106 -11.5t87 -29.5l-33 -110q-36 17 -84 28t-90 11q-81 0 -138.5 -42.5t-86.5 -112t-29 -147.5q0 -95 43 -148.5t128 -53.5q45 0 94 13l25 140h-75l18 100h192l-55 -312
q-39 -22 -106.5 -37.5t-124.5 -15.5q-81 0 -141.5 36zM460 818l-120 -59l13 70l124 80l113 -92l-12 -70z" />
    <glyph glyph-name="Gcommaaccent" unicode="&#x122;" horiz-adv-x="638" 
d="M171.5 22q-60.5 36 -94 104.5t-33.5 161.5q0 120 53.5 217.5t144.5 153t200 55.5q51 0 106 -11.5t87 -29.5l-33 -110q-36 17 -84 28t-90 11q-81 0 -138.5 -42.5t-86.5 -112t-29 -147.5q0 -95 43 -148.5t128 -53.5q45 0 94 13l25 140h-75l18 100h192l-55 -312
q-39 -22 -106.5 -37.5t-124.5 -15.5q-81 0 -141.5 36zM228 -272l48 87h-38l17 94h101l-16 -94l-71 -87h-41z" />
    <glyph glyph-name="Gdotaccent" unicode="&#x120;" horiz-adv-x="638" 
d="M171.5 22q-60.5 36 -94 104.5t-33.5 161.5q0 120 53.5 217.5t144.5 153t200 55.5q51 0 106 -11.5t87 -29.5l-33 -110q-36 17 -84 28t-90 11q-81 0 -138.5 -42.5t-86.5 -112t-29 -147.5q0 -95 43 -148.5t128 -53.5q45 0 94 13l25 140h-75l18 100h192l-55 -312
q-39 -22 -106.5 -37.5t-124.5 -15.5q-81 0 -141.5 36zM423 887h99l-17 -95h-99z" />
    <glyph glyph-name="uni1E20" unicode="&#x1e20;" horiz-adv-x="638" 
d="M171.5 22q-60.5 36 -94 104.5t-33.5 161.5q0 120 53.5 217.5t144.5 153t200 55.5q51 0 106 -11.5t87 -29.5l-33 -110q-36 17 -84 28t-90 11q-81 0 -138.5 -42.5t-86.5 -112t-29 -147.5q0 -95 43 -148.5t128 -53.5q45 0 94 13l25 140h-75l18 100h192l-55 -312
q-39 -22 -106.5 -37.5t-124.5 -15.5q-81 0 -141.5 36zM309 867h319l-14 -74h-318z" />
    <glyph glyph-name="H" unicode="H" horiz-adv-x="709" 
d="M150 700h118l-49 -278h316l49 278h118l-123 -700h-118l54 308h-316l-54 -308h-118z" />
    <glyph glyph-name="Hbar" unicode="&#x126;" horiz-adv-x="713" 
d="M722 492h-57l-86 -492h-118l54 308h-316l-54 -308h-118l86 492h-56l13 81h58l22 127h118l-22 -127h316l22 127h118l-22 -127h57zM547 492h-316l-12 -70h316z" />
    <glyph glyph-name="uni1E2A" unicode="&#x1e2a;" horiz-adv-x="709" 
d="M150 700h118l-49 -278h316l49 278h118l-123 -700h-118l54 308h-316l-54 -308h-118zM176 -195.5q-35 30.5 -35 77.5q0 16 4 27h79q-2 -10 -2 -16q0 -23 14.5 -35t41.5 -12q31 0 52.5 16.5t26.5 46.5h88q-14 -62 -58.5 -98.5t-114.5 -36.5q-61 0 -96 30.5z" />
    <glyph glyph-name="Hcircumflex" unicode="&#x124;" horiz-adv-x="709" 
d="M150 700h118l-49 -278h316l49 278h118l-123 -700h-118l54 308h-316l-54 -308h-118zM447 818l-120 -59l13 70l124 80l113 -92l-12 -70z" />
    <glyph glyph-name="uni1E24" unicode="&#x1e24;" horiz-adv-x="709" 
d="M150 700h118l-49 -278h316l49 278h118l-123 -700h-118l54 308h-316l-54 -308h-118zM241 -81h97l-18 -95h-97z" />
    <glyph glyph-name="I" unicode="I" horiz-adv-x="275" 
d="M150 700h118l-123 -700h-118z" />
    <glyph glyph-name="IJ" unicode="&#x132;" horiz-adv-x="687" 
d="M122.5 41.5q-56.5 55.5 -58.5 157.5l123 30q2 -63 30.5 -97t91.5 -34q89 0 133.5 65t65.5 180l63 357h118l-71 -401q-26 -147 -109.5 -230t-218.5 -83q-111 0 -167.5 55.5zM143 700h117l-63 -357q-4 -22 -6 -44h-119z" />
    <glyph glyph-name="Iacute" unicode="&#xcd;" horiz-adv-x="275" 
d="M150 700h118l-123 -700h-118zM152 853l196 107l-18 -121l-194 -64z" />
    <glyph glyph-name="Ibreve" unicode="&#x12c;" horiz-adv-x="275" 
d="M150 700h118l-123 -700h-118zM125 794.5q-34 29.5 -34 75.5q0 7 2 23h83q-2 -8 -2 -15q0 -23 16 -35t42 -12q31 0 52.5 16.5t26.5 45.5h85q-10 -58 -56 -93t-118 -35q-63 0 -97 29.5z" />
    <glyph glyph-name="Icircumflex" unicode="&#xce;" horiz-adv-x="275" 
d="M150 700h118l-123 -700h-118zM127 847l131 98l108 -111l-15 -74l-113 82l-128 -71z" />
    <glyph glyph-name="uni0208" unicode="&#x208;" horiz-adv-x="275" 
d="M150 700h118l-123 -700h-118zM46 942h107l37 -154h-73zM196 942h107l30 -154h-73z" />
    <glyph glyph-name="Idieresis" unicode="&#xcf;" horiz-adv-x="275" 
d="M150 700h118l-123 -700h-118zM102 881h91l-17 -87h-91zM296 881h91l-17 -87h-91z" />
    <glyph glyph-name="uni1E2E" unicode="&#x1e2e;" horiz-adv-x="275" 
d="M150 700h118l-123 -700h-118zM98 869h91l-15 -83h-91zM290 869h91l-15 -83h-91zM174 985l187 95l-17 -108l-180 -58z" />
    <glyph glyph-name="Idotaccent" unicode="&#x130;" horiz-adv-x="275" 
d="M150 700h118l-123 -700h-118zM194 887h99l-17 -95h-99z" />
    <glyph glyph-name="uni1ECA" unicode="&#x1eca;" horiz-adv-x="275" 
d="M150 700h118l-123 -700h-118zM24 -81h97l-18 -95h-97z" />
    <glyph glyph-name="Igrave" unicode="&#xcc;" horiz-adv-x="275" 
d="M150 700h118l-123 -700h-118zM143 849l20 110l165 -111l-13 -73z" />
    <glyph glyph-name="uni1EC8" unicode="&#x1ec8;" horiz-adv-x="275" 
d="M150 700h118l-123 -700h-118zM245.5 808q13.5 15 13.5 34q0 13 -8 20t-23 7q-25 0 -66 -18l-6 56q43 18 83 18q37 0 60 -18t24 -51q0 -37 -23.5 -65t-67.5 -57l-29 36q29 23 42.5 38z" />
    <glyph glyph-name="uni020A" unicode="&#x20a;" horiz-adv-x="275" 
d="M150 700h118l-123 -700h-118zM131 871q47 37 116 37q62 0 96 -29.5t34 -75.5q0 -9 -2 -23h-84q2 10 2 14q0 23 -15.5 35.5t-42.5 12.5q-30 0 -51 -16.5t-26 -45.5h-83q9 54 56 91z" />
    <glyph glyph-name="Imacron" unicode="&#x12a;" horiz-adv-x="275" 
d="M150 700h118l-123 -700h-118zM80 867h319l-14 -74h-318z" />
    <glyph glyph-name="Iogonek" unicode="&#x12e;" horiz-adv-x="275" 
d="M150 700h118l-123 -700h-118zM144 0q-44 -29 -70.5 -57.5t-26.5 -58.5q0 -18 9.5 -27t27.5 -9q31 0 60 13l6 -53q-38 -18 -84 -18q-38 0 -61 18.5t-24 51.5q0 40 30.5 77t73.5 63h59z" />
    <glyph glyph-name="Itilde" unicode="&#x128;" horiz-adv-x="275" 
d="M150 700h118l-123 -700h-118zM281.5 787.5q-16.5 5.5 -39.5 16.5q-42 21 -62 21q-16 0 -26.5 -9.5t-13.5 -25.5h-77q10 57 37 87.5t68 30.5q17 0 33.5 -6.5t37.5 -17.5q15 -8 30.5 -14t27.5 -6q32 0 38 39h79q-11 -62 -36 -91.5t-65 -29.5q-15 0 -31.5 5.5z" />
    <glyph glyph-name="J" unicode="J" horiz-adv-x="275" 
d="M-66 -88h23q30 0 45.5 21t24.5 69l123 698h118l-128 -726q-13 -72 -60 -109t-119 -37h-33z" />
    <glyph glyph-name="Jcircumflex" unicode="&#x134;" horiz-adv-x="275" 
d="M-66 -88h23q30 0 45.5 21t24.5 69l123 698h118l-128 -726q-13 -72 -60 -109t-119 -37h-33zM230 818l-120 -59l13 70l124 80l113 -92l-12 -70z" />
    <glyph glyph-name="K" unicode="K" horiz-adv-x="588" 
d="M150 700h118l-123 -700h-118zM219 370l284 330h142l-299 -330l180 -370h-130z" />
    <glyph glyph-name="Kcommaaccent" unicode="&#x136;" horiz-adv-x="588" 
d="M150 700h118l-123 -700h-118zM219 370l284 330h142l-299 -330l180 -370h-130zM178 -272l48 87h-38l17 94h101l-16 -94l-71 -87h-41z" />
    <glyph glyph-name="L" unicode="L" horiz-adv-x="483" 
d="M150 700h118l-104 -588h274l-20 -112h-391z" />
    <glyph glyph-name="uni01C7" unicode="&#x1c7;" horiz-adv-x="758" 
d="M150 700h118l-104 -588h274l-20 -112h-391zM417 -88h23q30 0 45.5 21t24.5 69l123 698h118l-128 -726q-13 -72 -60 -109t-119 -37h-33z" />
    <glyph glyph-name="Lacute" unicode="&#x139;" horiz-adv-x="483" 
d="M150 700h118l-104 -588h274l-20 -112h-391zM146 832l187 95l-17 -108l-180 -58z" />
    <glyph glyph-name="Lcaron" unicode="&#x13d;" horiz-adv-x="483" 
d="M150 700h118l-104 -588h274l-20 -112h-391zM460 700h96l-60 -174h-67z" />
    <glyph glyph-name="Lcommaaccent" unicode="&#x13b;" horiz-adv-x="483" 
d="M150 700h118l-104 -588h274l-20 -112h-391zM150 -272l48 87h-38l17 94h101l-16 -94l-71 -87h-41z" />
    <glyph glyph-name="Ldot" unicode="&#x13f;" horiz-adv-x="483" 
d="M150 700h118l-104 -588h274l-20 -112h-391zM339 451h114l-21 -122h-114z" />
    <glyph glyph-name="uni1E36" unicode="&#x1e36;" horiz-adv-x="483" 
d="M150 700h118l-104 -588h274l-20 -112h-391zM180 -81h97l-18 -95h-97z" />
    <glyph glyph-name="uni01C8" unicode="&#x1c8;" horiz-adv-x="717" 
d="M150 700h118l-104 -588h274l-20 -112h-391zM615 700h114l-21 -117h-114zM407 -150q28 1 40 6.5t19 22.5t14 57l99 561h114l-107 -607q-11 -60 -47.5 -94.5t-95.5 -35.5l-42 -2z" />
    <glyph glyph-name="uni1E3A" unicode="&#x1e3a;" horiz-adv-x="483" 
d="M150 700h118l-104 -588h274l-20 -112h-391zM68 -91h317l-15 -78h-318z" />
    <glyph glyph-name="Lslash" unicode="&#x141;" horiz-adv-x="483" 
d="M438 112l-20 -112h-391l63 356l-72 -27l16 92l72 27l44 252h118l-36 -204l189 71l-16 -92l-189 -71l-52 -292h274z" />
    <glyph glyph-name="M" unicode="M" horiz-adv-x="792" 
d="M208 700h104l97 -327l213 327h103l-32 -700h-123l30 480l-229 -327l-113 327l-141 -480h-123z" />
    <glyph glyph-name="uni1E42" unicode="&#x1e42;" horiz-adv-x="792" 
d="M208 700h104l97 -327l213 327h103l-32 -700h-123l30 480l-229 -327l-113 327l-141 -480h-123zM282 -81h97l-18 -95h-97z" />
    <glyph glyph-name="N" unicode="N" horiz-adv-x="677" 
d="M150 700h117l202 -474l83 474h118l-124 -700h-96l-216 502l-89 -502h-118z" />
    <glyph glyph-name="uni01CA" unicode="&#x1ca;" horiz-adv-x="952" 
d="M150 700h117l202 -474l83 474h118l-124 -700h-96l-216 502l-89 -502h-118zM611 -88h23q30 0 45.5 21t24.5 69l123 698h118l-128 -726q-13 -72 -60 -109t-119 -37h-33z" />
    <glyph glyph-name="Nacute" unicode="&#x143;" horiz-adv-x="677" 
d="M150 700h117l202 -474l83 474h118l-124 -700h-96l-216 502l-89 -502h-118zM347 832l187 95l-17 -108l-180 -58z" />
    <glyph glyph-name="Ncaron" unicode="&#x147;" horiz-adv-x="677" 
d="M150 700h117l202 -474l83 474h118l-124 -700h-96l-216 502l-89 -502h-118zM301 839l12 70l116 -75l123 72l-13 -79l-124 -80z" />
    <glyph glyph-name="Ncommaaccent" unicode="&#x145;" horiz-adv-x="677" 
d="M150 700h117l202 -474l83 474h118l-124 -700h-96l-216 502l-89 -502h-118zM205 -272l48 87h-38l17 94h101l-16 -94l-71 -87h-41z" />
    <glyph glyph-name="uni1E44" unicode="&#x1e44;" horiz-adv-x="677" 
d="M150 700h117l202 -474l83 474h118l-124 -700h-96l-216 502l-89 -502h-118zM394 887h99l-17 -95h-99z" />
    <glyph glyph-name="uni1E46" unicode="&#x1e46;" horiz-adv-x="677" 
d="M150 700h117l202 -474l83 474h118l-124 -700h-96l-216 502l-89 -502h-118zM235 -81h97l-18 -95h-97z" />
    <glyph glyph-name="Eng" unicode="&#x14a;" horiz-adv-x="690" 
d="M484 -138.5q-70 -60.5 -172 -60.5q-57 0 -108 19l32 108q41 -15 88 -15q52 0 86.5 29.5t44.5 90.5l67 381q5 37 5 59q0 62 -31 95.5t-90 33.5q-49 0 -90.5 -20.5t-71.5 -54.5l-93 -527h-118l124 700h100l-6 -68q91 82 206 82q95 0 144 -56t49 -150q0 -38 -7 -77l-69 -392
q-20 -117 -90 -177.5z" />
    <glyph glyph-name="uni01CB" unicode="&#x1cb;" horiz-adv-x="901" 
d="M150 700h117l202 -474l83 474h118l-124 -700h-96l-216 502l-89 -502h-118zM799 700h114l-21 -117h-114zM591 -150q28 1 40 6.5t19 22.5t14 57l99 561h114l-107 -607q-11 -60 -47.5 -94.5t-95.5 -35.5l-42 -2z" />
    <glyph glyph-name="uni1E48" unicode="&#x1e48;" horiz-adv-x="677" 
d="M150 700h117l202 -474l83 474h118l-124 -700h-96l-216 502l-89 -502h-118zM123 -91h317l-15 -78h-318z" />
    <glyph glyph-name="Ntilde" unicode="&#xd1;" horiz-adv-x="677" 
d="M150 700h117l202 -474l83 474h118l-124 -700h-96l-216 502l-89 -502h-118zM472 785.5q-16 5.5 -40 15.5q-15 7 -31 12.5t-27 5.5q-27 0 -33 -32h-72q9 50 33.5 76.5t63.5 26.5q25 0 69 -20q15 -7 31 -12.5t28 -5.5q27 0 33 33h72q-7 -51 -32 -78t-64 -27q-15 0 -31 5.5z
" />
    <glyph glyph-name="O" unicode="O" horiz-adv-x="732" 
d="M170.5 22q-61.5 36 -94.5 103t-33 160q0 120 53.5 218.5t143.5 154.5t196 56q84 0 145.5 -36t94.5 -103t33 -160q0 -120 -53.5 -218.5t-144 -154.5t-195.5 -56q-84 0 -145.5 36zM462.5 140.5q55.5 42.5 85.5 113t30 151.5q0 92 -40 144.5t-121 52.5q-73 0 -128.5 -42.5
t-85.5 -113t-30 -151.5q0 -92 40 -144.5t121 -52.5q73 0 128.5 42.5z" />
    <glyph glyph-name="Oacute" unicode="&#xd3;" horiz-adv-x="732" 
d="M170.5 22q-61.5 36 -94.5 103t-33 160q0 120 53.5 218.5t143.5 154.5t196 56q84 0 145.5 -36t94.5 -103t33 -160q0 -120 -53.5 -218.5t-144 -154.5t-195.5 -56q-84 0 -145.5 36zM462.5 140.5q55.5 42.5 85.5 113t30 151.5q0 92 -40 144.5t-121 52.5q-73 0 -128.5 -42.5
t-85.5 -113t-30 -151.5q0 -92 40 -144.5t121 -52.5q73 0 128.5 42.5zM383 853l196 107l-18 -121l-194 -64z" />
    <glyph glyph-name="Obreve" unicode="&#x14e;" horiz-adv-x="732" 
d="M170.5 22q-61.5 36 -94.5 103t-33 160q0 120 53.5 218.5t143.5 154.5t196 56q84 0 145.5 -36t94.5 -103t33 -160q0 -120 -53.5 -218.5t-144 -154.5t-195.5 -56q-84 0 -145.5 36zM462.5 140.5q55.5 42.5 85.5 113t30 151.5q0 92 -40 144.5t-121 52.5q-73 0 -128.5 -42.5
t-85.5 -113t-30 -151.5q0 -92 40 -144.5t121 -52.5q73 0 128.5 42.5zM356 794.5q-34 29.5 -34 75.5q0 7 2 23h83q-2 -8 -2 -15q0 -23 16 -35t42 -12q31 0 52.5 16.5t26.5 45.5h85q-10 -58 -56 -93t-118 -35q-63 0 -97 29.5z" />
    <glyph glyph-name="Ocircumflex" unicode="&#xd4;" horiz-adv-x="732" 
d="M170.5 22q-61.5 36 -94.5 103t-33 160q0 120 53.5 218.5t143.5 154.5t196 56q84 0 145.5 -36t94.5 -103t33 -160q0 -120 -53.5 -218.5t-144 -154.5t-195.5 -56q-84 0 -145.5 36zM462.5 140.5q55.5 42.5 85.5 113t30 151.5q0 92 -40 144.5t-121 52.5q-73 0 -128.5 -42.5
t-85.5 -113t-30 -151.5q0 -92 40 -144.5t121 -52.5q73 0 128.5 42.5zM358 847l131 98l108 -111l-15 -74l-113 82l-128 -71z" />
    <glyph glyph-name="uni1ED0" unicode="&#x1ed0;" horiz-adv-x="732" 
d="M170.5 22q-61.5 36 -94.5 103t-33 160q0 120 53.5 218.5t143.5 154.5t196 56q84 0 145.5 -36t94.5 -103t33 -160q0 -120 -53.5 -218.5t-144 -154.5t-195.5 -56q-84 0 -145.5 36zM462.5 140.5q55.5 42.5 85.5 113t30 151.5q0 92 -40 144.5t-121 52.5q-73 0 -128.5 -42.5
t-85.5 -113t-30 -151.5q0 -92 40 -144.5t121 -52.5q73 0 128.5 42.5zM612 1019h109l-112 -115h-74zM463 825l-120 -59l13 70l124 80l113 -92l-12 -70z" />
    <glyph glyph-name="uni1ED8" unicode="&#x1ed8;" horiz-adv-x="732" 
d="M170.5 22q-61.5 36 -94.5 103t-33 160q0 120 53.5 218.5t143.5 154.5t196 56q84 0 145.5 -36t94.5 -103t33 -160q0 -120 -53.5 -218.5t-144 -154.5t-195.5 -56q-84 0 -145.5 36zM462.5 140.5q55.5 42.5 85.5 113t30 151.5q0 92 -40 144.5t-121 52.5q-73 0 -128.5 -42.5
t-85.5 -113t-30 -151.5q0 -92 40 -144.5t121 -52.5q73 0 128.5 42.5zM462 818l-120 -59l13 70l124 80l113 -92l-12 -70zM243 -81h97l-18 -95h-97z" />
    <glyph glyph-name="uni1ED2" unicode="&#x1ed2;" horiz-adv-x="732" 
d="M170.5 22q-61.5 36 -94.5 103t-33 160q0 120 53.5 218.5t143.5 154.5t196 56q84 0 145.5 -36t94.5 -103t33 -160q0 -120 -53.5 -218.5t-144 -154.5t-195.5 -56q-84 0 -145.5 36zM462.5 140.5q55.5 42.5 85.5 113t30 151.5q0 92 -40 144.5t-121 52.5q-73 0 -128.5 -42.5
t-85.5 -113t-30 -151.5q0 -92 40 -144.5t121 -52.5q73 0 128.5 42.5zM482 1028h103l31 -124h-72zM462 825l-120 -59l13 70l124 80l113 -92l-12 -70z" />
    <glyph glyph-name="uni1ED4" unicode="&#x1ed4;" horiz-adv-x="732" 
d="M170.5 22q-61.5 36 -94.5 103t-33 160q0 120 53.5 218.5t143.5 154.5t196 56q84 0 145.5 -36t94.5 -103t33 -160q0 -120 -53.5 -218.5t-144 -154.5t-195.5 -56q-84 0 -145.5 36zM462.5 140.5q55.5 42.5 85.5 113t30 151.5q0 92 -40 144.5t-121 52.5q-73 0 -128.5 -42.5
t-85.5 -113t-30 -151.5q0 -92 40 -144.5t121 -52.5q73 0 128.5 42.5zM552 915q43 10 43 39q0 25 -34 25q-25 0 -62 -16l-7 58q40 16 82 16q38 0 61.5 -18t23.5 -49q0 -37 -27 -61.5t-77 -36.5zM462 818l-120 -59l13 70l124 80l113 -92l-12 -70z" />
    <glyph glyph-name="uni1ED6" unicode="&#x1ed6;" horiz-adv-x="732" 
d="M170.5 22q-61.5 36 -94.5 103t-33 160q0 120 53.5 218.5t143.5 154.5t196 56q84 0 145.5 -36t94.5 -103t33 -160q0 -120 -53.5 -218.5t-144 -154.5t-195.5 -56q-84 0 -145.5 36zM462.5 140.5q55.5 42.5 85.5 113t30 151.5q0 92 -40 144.5t-121 52.5q-73 0 -128.5 -42.5
t-85.5 -113t-30 -151.5q0 -92 40 -144.5t121 -52.5q73 0 128.5 42.5zM536 941q-15 5 -40 16q-15 7 -31 12.5t-27 5.5q-13 0 -22 -8.5t-11 -23.5h-73q20 103 98 103q15 0 31 -5t38 -15q15 -7 31 -12.5t27 -5.5q28 0 34 33h72q-7 -51 -32.5 -78t-64.5 -27q-15 0 -30 5z
M462 818l-120 -59l13 70l124 80l113 -92l-12 -70z" />
    <glyph glyph-name="uni020C" unicode="&#x20c;" horiz-adv-x="732" 
d="M170.5 22q-61.5 36 -94.5 103t-33 160q0 120 53.5 218.5t143.5 154.5t196 56q84 0 145.5 -36t94.5 -103t33 -160q0 -120 -53.5 -218.5t-144 -154.5t-195.5 -56q-84 0 -145.5 36zM462.5 140.5q55.5 42.5 85.5 113t30 151.5q0 92 -40 144.5t-121 52.5q-73 0 -128.5 -42.5
t-85.5 -113t-30 -151.5q0 -92 40 -144.5t121 -52.5q73 0 128.5 42.5zM277 942h107l37 -154h-73zM427 942h107l30 -154h-73z" />
    <glyph glyph-name="Odieresis" unicode="&#xd6;" horiz-adv-x="732" 
d="M170.5 22q-61.5 36 -94.5 103t-33 160q0 120 53.5 218.5t143.5 154.5t196 56q84 0 145.5 -36t94.5 -103t33 -160q0 -120 -53.5 -218.5t-144 -154.5t-195.5 -56q-84 0 -145.5 36zM462.5 140.5q55.5 42.5 85.5 113t30 151.5q0 92 -40 144.5t-121 52.5q-73 0 -128.5 -42.5
t-85.5 -113t-30 -151.5q0 -92 40 -144.5t121 -52.5q73 0 128.5 42.5zM333 881h91l-17 -87h-91zM527 881h91l-17 -87h-91z" />
    <glyph glyph-name="uni022A" unicode="&#x22a;" horiz-adv-x="732" 
d="M170.5 22q-61.5 36 -94.5 103t-33 160q0 120 53.5 218.5t143.5 154.5t196 56q84 0 145.5 -36t94.5 -103t33 -160q0 -120 -53.5 -218.5t-144 -154.5t-195.5 -56q-84 0 -145.5 36zM462.5 140.5q55.5 42.5 85.5 113t30 151.5q0 92 -40 144.5t-121 52.5q-73 0 -128.5 -42.5
t-85.5 -113t-30 -151.5q0 -92 40 -144.5t121 -52.5q73 0 128.5 42.5zM329 869h91l-15 -83h-91zM521 869h91l-15 -83h-91zM338 1020h319l-14 -74h-318z" />
    <glyph glyph-name="uni0230" unicode="&#x230;" horiz-adv-x="732" 
d="M170.5 22q-61.5 36 -94.5 103t-33 160q0 120 53.5 218.5t143.5 154.5t196 56q84 0 145.5 -36t94.5 -103t33 -160q0 -120 -53.5 -218.5t-144 -154.5t-195.5 -56q-84 0 -145.5 36zM462.5 140.5q55.5 42.5 85.5 113t30 151.5q0 92 -40 144.5t-121 52.5q-73 0 -128.5 -42.5
t-85.5 -113t-30 -151.5q0 -92 40 -144.5t121 -52.5q73 0 128.5 42.5zM425 887h99l-17 -95h-99zM342 1043h319l-14 -74h-318z" />
    <glyph glyph-name="uni1ECC" unicode="&#x1ecc;" horiz-adv-x="732" 
d="M170.5 22q-61.5 36 -94.5 103t-33 160q0 120 53.5 218.5t143.5 154.5t196 56q84 0 145.5 -36t94.5 -103t33 -160q0 -120 -53.5 -218.5t-144 -154.5t-195.5 -56q-84 0 -145.5 36zM462.5 140.5q55.5 42.5 85.5 113t30 151.5q0 92 -40 144.5t-121 52.5q-73 0 -128.5 -42.5
t-85.5 -113t-30 -151.5q0 -92 40 -144.5t121 -52.5q73 0 128.5 42.5zM243 -81h97l-18 -95h-97z" />
    <glyph glyph-name="Ograve" unicode="&#xd2;" horiz-adv-x="732" 
d="M170.5 22q-61.5 36 -94.5 103t-33 160q0 120 53.5 218.5t143.5 154.5t196 56q84 0 145.5 -36t94.5 -103t33 -160q0 -120 -53.5 -218.5t-144 -154.5t-195.5 -56q-84 0 -145.5 36zM462.5 140.5q55.5 42.5 85.5 113t30 151.5q0 92 -40 144.5t-121 52.5q-73 0 -128.5 -42.5
t-85.5 -113t-30 -151.5q0 -92 40 -144.5t121 -52.5q73 0 128.5 42.5zM374 849l20 110l165 -111l-13 -73z" />
    <glyph glyph-name="uni1ECE" unicode="&#x1ece;" horiz-adv-x="732" 
d="M170.5 22q-61.5 36 -94.5 103t-33 160q0 120 53.5 218.5t143.5 154.5t196 56q84 0 145.5 -36t94.5 -103t33 -160q0 -120 -53.5 -218.5t-144 -154.5t-195.5 -56q-84 0 -145.5 36zM462.5 140.5q55.5 42.5 85.5 113t30 151.5q0 92 -40 144.5t-121 52.5q-73 0 -128.5 -42.5
t-85.5 -113t-30 -151.5q0 -92 40 -144.5t121 -52.5q73 0 128.5 42.5zM476.5 808q13.5 15 13.5 34q0 13 -8 20t-23 7q-25 0 -66 -18l-6 56q43 18 83 18q37 0 60 -18t24 -51q0 -37 -23.5 -65t-67.5 -57l-29 36q29 23 42.5 38z" />
    <glyph glyph-name="Ohorn" unicode="&#x1a0;" horiz-adv-x="732" 
d="M685.5 552.5q23.5 -60.5 23.5 -137.5q0 -120 -53.5 -218.5t-144 -154.5t-195.5 -56q-84 0 -145.5 36t-94.5 103t-33 160q0 120 53.5 218.5t143.5 154.5t196 56q50 0 94 -14q69 5 82 74h100q-8 -40 -33 -71.5t-61 -50.5q44 -39 67.5 -99.5zM462.5 140.5
q55.5 42.5 85.5 113t30 151.5q0 92 -40 144.5t-121 52.5q-73 0 -128.5 -42.5t-85.5 -113t-30 -151.5q0 -92 40 -144.5t121 -52.5q73 0 128.5 42.5z" />
    <glyph glyph-name="uni1EDA" unicode="&#x1eda;" horiz-adv-x="732" 
d="M685.5 552.5q23.5 -60.5 23.5 -137.5q0 -120 -53.5 -218.5t-144 -154.5t-195.5 -56q-84 0 -145.5 36t-94.5 103t-33 160q0 120 53.5 218.5t143.5 154.5t196 56q50 0 94 -14q69 5 82 74h100q-8 -40 -33 -71.5t-61 -50.5q44 -39 67.5 -99.5zM462.5 140.5
q55.5 42.5 85.5 113t30 151.5q0 92 -40 144.5t-121 52.5q-73 0 -128.5 -42.5t-85.5 -113t-30 -151.5q0 -92 40 -144.5t121 -52.5q73 0 128.5 42.5zM383 853l196 107l-18 -121l-194 -64z" />
    <glyph glyph-name="uni1EE2" unicode="&#x1ee2;" horiz-adv-x="732" 
d="M685.5 552.5q23.5 -60.5 23.5 -137.5q0 -120 -53.5 -218.5t-144 -154.5t-195.5 -56q-84 0 -145.5 36t-94.5 103t-33 160q0 120 53.5 218.5t143.5 154.5t196 56q50 0 94 -14q69 5 82 74h100q-8 -40 -33 -71.5t-61 -50.5q44 -39 67.5 -99.5zM462.5 140.5
q55.5 42.5 85.5 113t30 151.5q0 92 -40 144.5t-121 52.5q-73 0 -128.5 -42.5t-85.5 -113t-30 -151.5q0 -92 40 -144.5t121 -52.5q73 0 128.5 42.5zM243 -81h97l-18 -95h-97z" />
    <glyph glyph-name="uni1EDC" unicode="&#x1edc;" horiz-adv-x="732" 
d="M685.5 552.5q23.5 -60.5 23.5 -137.5q0 -120 -53.5 -218.5t-144 -154.5t-195.5 -56q-84 0 -145.5 36t-94.5 103t-33 160q0 120 53.5 218.5t143.5 154.5t196 56q50 0 94 -14q69 5 82 74h100q-8 -40 -33 -71.5t-61 -50.5q44 -39 67.5 -99.5zM462.5 140.5
q55.5 42.5 85.5 113t30 151.5q0 92 -40 144.5t-121 52.5q-73 0 -128.5 -42.5t-85.5 -113t-30 -151.5q0 -92 40 -144.5t121 -52.5q73 0 128.5 42.5zM374 849l20 110l165 -111l-13 -73z" />
    <glyph glyph-name="uni1EDE" unicode="&#x1ede;" horiz-adv-x="732" 
d="M685.5 552.5q23.5 -60.5 23.5 -137.5q0 -120 -53.5 -218.5t-144 -154.5t-195.5 -56q-84 0 -145.5 36t-94.5 103t-33 160q0 120 53.5 218.5t143.5 154.5t196 56q50 0 94 -14q69 5 82 74h100q-8 -40 -33 -71.5t-61 -50.5q44 -39 67.5 -99.5zM462.5 140.5
q55.5 42.5 85.5 113t30 151.5q0 92 -40 144.5t-121 52.5q-73 0 -128.5 -42.5t-85.5 -113t-30 -151.5q0 -92 40 -144.5t121 -52.5q73 0 128.5 42.5zM476.5 808q13.5 15 13.5 34q0 13 -8 20t-23 7q-25 0 -66 -18l-6 56q43 18 83 18q37 0 60 -18t24 -51q0 -37 -23.5 -65
t-67.5 -57l-29 36q29 23 42.5 38z" />
    <glyph glyph-name="uni1EE0" unicode="&#x1ee0;" horiz-adv-x="732" 
d="M685.5 552.5q23.5 -60.5 23.5 -137.5q0 -120 -53.5 -218.5t-144 -154.5t-195.5 -56q-84 0 -145.5 36t-94.5 103t-33 160q0 120 53.5 218.5t143.5 154.5t196 56q50 0 94 -14q69 5 82 74h100q-8 -40 -33 -71.5t-61 -50.5q44 -39 67.5 -99.5zM462.5 140.5
q55.5 42.5 85.5 113t30 151.5q0 92 -40 144.5t-121 52.5q-73 0 -128.5 -42.5t-85.5 -113t-30 -151.5q0 -92 40 -144.5t121 -52.5q73 0 128.5 42.5zM512.5 787.5q-16.5 5.5 -39.5 16.5q-42 21 -62 21q-16 0 -26.5 -9.5t-13.5 -25.5h-77q10 57 37 87.5t68 30.5q17 0 33.5 -6.5
t37.5 -17.5q15 -8 30.5 -14t27.5 -6q32 0 38 39h79q-11 -62 -36 -91.5t-65 -29.5q-15 0 -31.5 5.5z" />
    <glyph glyph-name="Ohungarumlaut" unicode="&#x150;" horiz-adv-x="732" 
d="M170.5 22q-61.5 36 -94.5 103t-33 160q0 120 53.5 218.5t143.5 154.5t196 56q84 0 145.5 -36t94.5 -103t33 -160q0 -120 -53.5 -218.5t-144 -154.5t-195.5 -56q-84 0 -145.5 36zM462.5 140.5q55.5 42.5 85.5 113t30 151.5q0 92 -40 144.5t-121 52.5q-73 0 -128.5 -42.5
t-85.5 -113t-30 -151.5q0 -92 40 -144.5t121 -52.5q73 0 128.5 42.5zM427 942h109l-118 -154h-74zM578 942h110l-126 -154h-74z" />
    <glyph glyph-name="uni020E" unicode="&#x20e;" horiz-adv-x="732" 
d="M170.5 22q-61.5 36 -94.5 103t-33 160q0 120 53.5 218.5t143.5 154.5t196 56q84 0 145.5 -36t94.5 -103t33 -160q0 -120 -53.5 -218.5t-144 -154.5t-195.5 -56q-84 0 -145.5 36zM462.5 140.5q55.5 42.5 85.5 113t30 151.5q0 92 -40 144.5t-121 52.5q-73 0 -128.5 -42.5
t-85.5 -113t-30 -151.5q0 -92 40 -144.5t121 -52.5q73 0 128.5 42.5zM362 871q47 37 116 37q62 0 96 -29.5t34 -75.5q0 -9 -2 -23h-84q2 10 2 14q0 23 -15.5 35.5t-42.5 12.5q-30 0 -51 -16.5t-26 -45.5h-83q9 54 56 91z" />
    <glyph glyph-name="Omacron" unicode="&#x14c;" horiz-adv-x="732" 
d="M170.5 22q-61.5 36 -94.5 103t-33 160q0 120 53.5 218.5t143.5 154.5t196 56q84 0 145.5 -36t94.5 -103t33 -160q0 -120 -53.5 -218.5t-144 -154.5t-195.5 -56q-84 0 -145.5 36zM462.5 140.5q55.5 42.5 85.5 113t30 151.5q0 92 -40 144.5t-121 52.5q-73 0 -128.5 -42.5
t-85.5 -113t-30 -151.5q0 -92 40 -144.5t121 -52.5q73 0 128.5 42.5zM311 867h319l-14 -74h-318z" />
    <glyph glyph-name="uni1E52" unicode="&#x1e52;" horiz-adv-x="732" 
d="M170.5 22q-61.5 36 -94.5 103t-33 160q0 120 53.5 218.5t143.5 154.5t196 56q84 0 145.5 -36t94.5 -103t33 -160q0 -120 -53.5 -218.5t-144 -154.5t-195.5 -56q-84 0 -145.5 36zM462.5 140.5q55.5 42.5 85.5 113t30 151.5q0 92 -40 144.5t-121 52.5q-73 0 -128.5 -42.5
t-85.5 -113t-30 -151.5q0 -92 40 -144.5t121 -52.5q73 0 128.5 42.5zM311 867h319l-14 -74h-318zM412 997l187 95l-17 -108l-180 -58z" />
    <glyph glyph-name="uni1E50" unicode="&#x1e50;" horiz-adv-x="732" 
d="M170.5 22q-61.5 36 -94.5 103t-33 160q0 120 53.5 218.5t143.5 154.5t196 56q84 0 145.5 -36t94.5 -103t33 -160q0 -120 -53.5 -218.5t-144 -154.5t-195.5 -56q-84 0 -145.5 36zM462.5 140.5q55.5 42.5 85.5 113t30 151.5q0 92 -40 144.5t-121 52.5q-73 0 -128.5 -42.5
t-85.5 -113t-30 -151.5q0 -92 40 -144.5t121 -52.5q73 0 128.5 42.5zM311 867h319l-14 -74h-318zM403 984l19 102l168 -95l-13 -65z" />
    <glyph glyph-name="uni01EA" unicode="&#x1ea;" horiz-adv-x="732" 
d="M282 -116q0 -18 9.5 -27t27.5 -9q31 0 60 13l6 -53q-38 -18 -84 -18q-38 0 -61 18.5t-24 51.5q0 34 23.5 67t59.5 59q-119 6 -187.5 85t-68.5 214q0 120 53.5 218.5t143.5 154.5t196 56q84 0 145.5 -36t94.5 -103t33 -160q0 -111 -46 -204t-125.5 -151.5t-174.5 -70.5
q-81 -57 -81 -105zM213 150.5q40 -52.5 121 -52.5q73 0 128.5 42.5t85.5 113t30 151.5q0 92 -40 144.5t-121 52.5q-73 0 -128.5 -42.5t-85.5 -113t-30 -151.5q0 -92 40 -144.5z" />
    <glyph glyph-name="Oslash" unicode="&#xd8;" horiz-adv-x="732" 
d="M639 630q70 -79 70 -215q0 -120 -53.5 -218.5t-144 -154.5t-195.5 -56q-85 0 -145 36l-51 -66h-98l89 116q-68 79 -68 213q0 120 53.5 218.5t143.5 154.5t196 56q81 0 143 -34l49 64h99zM195 181l307 400q-33 21 -85 21q-73 0 -128.5 -42.5t-85.5 -113t-30 -151.5
q0 -69 22 -114zM555 521l-308 -401q36 -22 87 -22q73 0 128.5 42.5t85.5 113t30 151.5q0 71 -23 116z" />
    <glyph glyph-name="Oslashacute" unicode="&#x1fe;" horiz-adv-x="732" 
d="M639 630q70 -79 70 -215q0 -120 -53.5 -218.5t-144 -154.5t-195.5 -56q-85 0 -145 36l-51 -66h-98l89 116q-68 79 -68 213q0 120 53.5 218.5t143.5 154.5t196 56q81 0 143 -34l49 64h99zM195 181l307 400q-33 21 -85 21q-73 0 -128.5 -42.5t-85.5 -113t-30 -151.5
q0 -69 22 -114zM555 521l-308 -401q36 -22 87 -22q73 0 128.5 42.5t85.5 113t30 151.5q0 71 -23 116zM378 832l187 95l-17 -108l-180 -58z" />
    <glyph glyph-name="Otilde" unicode="&#xd5;" horiz-adv-x="732" 
d="M170.5 22q-61.5 36 -94.5 103t-33 160q0 120 53.5 218.5t143.5 154.5t196 56q84 0 145.5 -36t94.5 -103t33 -160q0 -120 -53.5 -218.5t-144 -154.5t-195.5 -56q-84 0 -145.5 36zM462.5 140.5q55.5 42.5 85.5 113t30 151.5q0 92 -40 144.5t-121 52.5q-73 0 -128.5 -42.5
t-85.5 -113t-30 -151.5q0 -92 40 -144.5t121 -52.5q73 0 128.5 42.5zM512.5 787.5q-16.5 5.5 -39.5 16.5q-42 21 -62 21q-16 0 -26.5 -9.5t-13.5 -25.5h-77q10 57 37 87.5t68 30.5q17 0 33.5 -6.5t37.5 -17.5q15 -8 30.5 -14t27.5 -6q32 0 38 39h79q-11 -62 -36 -91.5
t-65 -29.5q-15 0 -31.5 5.5z" />
    <glyph glyph-name="uni1E4C" unicode="&#x1e4c;" horiz-adv-x="732" 
d="M170.5 22q-61.5 36 -94.5 103t-33 160q0 120 53.5 218.5t143.5 154.5t196 56q84 0 145.5 -36t94.5 -103t33 -160q0 -120 -53.5 -218.5t-144 -154.5t-195.5 -56q-84 0 -145.5 36zM462.5 140.5q55.5 42.5 85.5 113t30 151.5q0 92 -40 144.5t-121 52.5q-73 0 -128.5 -42.5
t-85.5 -113t-30 -151.5q0 -92 40 -144.5t121 -52.5q73 0 128.5 42.5zM503 785.5q-16 5.5 -40 15.5q-15 7 -31 12.5t-27 5.5q-27 0 -33 -32h-72q9 50 33.5 76.5t63.5 26.5q25 0 69 -20q15 -7 31 -12.5t28 -5.5q27 0 33 33h72q-7 -51 -32 -78t-64 -27q-15 0 -31 5.5zM407 1000
l187 95l-17 -108l-180 -58z" />
    <glyph glyph-name="uni1E4E" unicode="&#x1e4e;" horiz-adv-x="732" 
d="M170.5 22q-61.5 36 -94.5 103t-33 160q0 120 53.5 218.5t143.5 154.5t196 56q84 0 145.5 -36t94.5 -103t33 -160q0 -120 -53.5 -218.5t-144 -154.5t-195.5 -56q-84 0 -145.5 36zM462.5 140.5q55.5 42.5 85.5 113t30 151.5q0 92 -40 144.5t-121 52.5q-73 0 -128.5 -42.5
t-85.5 -113t-30 -151.5q0 -92 40 -144.5t121 -52.5q73 0 128.5 42.5zM503 785.5q-16 5.5 -40 15.5q-15 7 -31 12.5t-27 5.5q-27 0 -33 -32h-72q9 50 33.5 76.5t63.5 26.5q25 0 69 -20q15 -7 31 -12.5t28 -5.5q27 0 33 33h72q-7 -51 -32 -78t-64 -27q-15 0 -31 5.5zM358 1037
h91l-15 -83h-91zM550 1037h91l-15 -83h-91z" />
    <glyph glyph-name="uni022C" unicode="&#x22c;" horiz-adv-x="732" 
d="M170.5 22q-61.5 36 -94.5 103t-33 160q0 120 53.5 218.5t143.5 154.5t196 56q84 0 145.5 -36t94.5 -103t33 -160q0 -120 -53.5 -218.5t-144 -154.5t-195.5 -56q-84 0 -145.5 36zM462.5 140.5q55.5 42.5 85.5 113t30 151.5q0 92 -40 144.5t-121 52.5q-73 0 -128.5 -42.5
t-85.5 -113t-30 -151.5q0 -92 40 -144.5t121 -52.5q73 0 128.5 42.5zM503 785.5q-16 5.5 -40 15.5q-15 7 -31 12.5t-27 5.5q-27 0 -33 -32h-72q9 50 33.5 76.5t63.5 26.5q25 0 69 -20q15 -7 31 -12.5t28 -5.5q27 0 33 33h72q-7 -51 -32 -78t-64 -27q-15 0 -31 5.5zM340 1035
h319l-14 -74h-318z" />
    <glyph glyph-name="OE" unicode="&#x152;" horiz-adv-x="1012" 
d="M720 588l-29 -166h233l-20 -113h-233l-35 -197h309l-20 -112h-414l14 80q-46 -45 -104 -69.5t-122 -24.5q-76 0 -134 35t-90 102.5t-32 161.5q0 119 50 217.5t134 155t183 56.5q67 0 119.5 -32t85.5 -88l19 106h406l-20 -112h-300zM460 141.5q55 43.5 83 115t28 155.5
q0 89 -39.5 139.5t-118.5 50.5q-72 0 -126.5 -42.5t-84 -113t-29.5 -151.5q0 -92 39 -144.5t118 -52.5q75 0 130 43.5z" />
    <glyph glyph-name="P" unicode="P" horiz-adv-x="572" 
d="M150 700h224q103 0 157 -50t54 -143q0 -89 -36.5 -150.5t-99.5 -91.5t-143 -30h-120l-41 -235h-118zM319 344q66 0 104.5 39.5t38.5 112.5q0 52 -23.5 78t-74.5 26h-113l-45 -256h113z" />
    <glyph glyph-name="Thorn" unicode="&#xde;" horiz-adv-x="531" 
d="M141 700h118l-26 -148h119q92 0 140.5 -41t48.5 -115q0 -104 -69.5 -163.5t-186.5 -59.5h-119l-31 -173h-118zM289 273q63 0 96 27t33 78q0 37 -23.5 55.5t-73.5 18.5h-106l-31 -179h105z" />
    <glyph glyph-name="Q" unicode="Q" horiz-adv-x="732" 
d="M170 22q-61 36 -94 104t-33 160q0 120 53.5 218t143.5 154t196 56q84 0 145.5 -36.5t94.5 -103t33 -155.5q0 -81 -27.5 -153t-79.5 -142l49 -50l-82 -80l-55 56q-89 -64 -201 -64q-82 0 -143 36zM435 126l-68 75l82 80l70 -77q28 49 44 96.5t16 106.5q0 90 -40 142.5
t-122 52.5q-73 0 -128.5 -42.5t-85.5 -113t-30 -151.5q0 -92 40 -144.5t120 -52.5q61 0 102 28z" />
    <glyph glyph-name="R" unicode="R" horiz-adv-x="598" 
d="M150 700h220q103 0 159 -44t56 -134q0 -81 -43 -137.5t-111 -89.5l98 -295h-123l-91 264h-124l-46 -264h-118zM317 375q62 0 102 36t40 100q0 45 -23.5 68t-76.5 23h-108l-40 -227h106z" />
    <glyph glyph-name="Racute" unicode="&#x154;" horiz-adv-x="598" 
d="M150 700h220q103 0 159 -44t56 -134q0 -81 -43 -137.5t-111 -89.5l98 -295h-123l-91 264h-124l-46 -264h-118zM317 375q62 0 102 36t40 100q0 45 -23.5 68t-76.5 23h-108l-40 -227h106zM319 832l187 95l-17 -108l-180 -58z" />
    <glyph glyph-name="Rcaron" unicode="&#x158;" horiz-adv-x="598" 
d="M150 700h220q103 0 159 -44t56 -134q0 -81 -43 -137.5t-111 -89.5l98 -295h-123l-91 264h-124l-46 -264h-118zM317 375q62 0 102 36t40 100q0 45 -23.5 68t-76.5 23h-108l-40 -227h106zM273 839l12 70l116 -75l123 72l-13 -79l-124 -80z" />
    <glyph glyph-name="Rcommaaccent" unicode="&#x156;" horiz-adv-x="598" 
d="M150 700h220q103 0 159 -44t56 -134q0 -81 -43 -137.5t-111 -89.5l98 -295h-123l-91 264h-124l-46 -264h-118zM317 375q62 0 102 36t40 100q0 45 -23.5 68t-76.5 23h-108l-40 -227h106zM183 -272l48 87h-38l17 94h101l-16 -94l-71 -87h-41z" />
    <glyph glyph-name="uni0210" unicode="&#x210;" horiz-adv-x="598" 
d="M150 700h220q103 0 159 -44t56 -134q0 -81 -43 -137.5t-111 -89.5l98 -295h-123l-91 264h-124l-46 -264h-118zM317 375q62 0 102 36t40 100q0 45 -23.5 68t-76.5 23h-108l-40 -227h106zM218 942h107l37 -154h-73zM368 942h107l30 -154h-73z" />
    <glyph glyph-name="uni1E5A" unicode="&#x1e5a;" horiz-adv-x="598" 
d="M150 700h220q103 0 159 -44t56 -134q0 -81 -43 -137.5t-111 -89.5l98 -295h-123l-91 264h-124l-46 -264h-118zM317 375q62 0 102 36t40 100q0 45 -23.5 68t-76.5 23h-108l-40 -227h106zM213 -81h97l-18 -95h-97z" />
    <glyph glyph-name="uni0212" unicode="&#x212;" horiz-adv-x="598" 
d="M150 700h220q103 0 159 -44t56 -134q0 -81 -43 -137.5t-111 -89.5l98 -295h-123l-91 264h-124l-46 -264h-118zM317 375q62 0 102 36t40 100q0 45 -23.5 68t-76.5 23h-108l-40 -227h106zM303 871q47 37 116 37q62 0 96 -29.5t34 -75.5q0 -9 -2 -23h-84q2 10 2 14
q0 23 -15.5 35.5t-42.5 12.5q-30 0 -51 -16.5t-26 -45.5h-83q9 54 56 91z" />
    <glyph glyph-name="uni1E5E" unicode="&#x1e5e;" horiz-adv-x="598" 
d="M150 700h220q103 0 159 -44t56 -134q0 -81 -43 -137.5t-111 -89.5l98 -295h-123l-91 264h-124l-46 -264h-118zM317 375q62 0 102 36t40 100q0 45 -23.5 68t-76.5 23h-108l-40 -227h106zM101 -91h317l-15 -78h-318z" />
    <glyph glyph-name="S" unicode="S" horiz-adv-x="558" 
d="M100 -0.5q-55 13.5 -95 35.5l38 136q36 -32 84.5 -52.5t108.5 -20.5q64 0 101.5 23t37.5 72q0 45 -30.5 69.5t-103.5 50.5q-55 20 -90 41t-55 54.5t-20 84.5q0 58 31.5 109t92 81.5t143.5 30.5q65 0 120.5 -15.5t90.5 -36.5l-33 -122q-52 33 -94.5 48t-92.5 15
q-56 0 -95 -23t-39 -69q0 -36 28 -56t89 -41q64 -23 101.5 -42t64.5 -56.5t27 -96.5q0 -60 -28.5 -112.5t-93 -86.5t-167.5 -34q-66 0 -121 13.5z" />
    <glyph glyph-name="Sacute" unicode="&#x15a;" horiz-adv-x="558" 
d="M100 -0.5q-55 13.5 -95 35.5l38 136q36 -32 84.5 -52.5t108.5 -20.5q64 0 101.5 23t37.5 72q0 45 -30.5 69.5t-103.5 50.5q-55 20 -90 41t-55 54.5t-20 84.5q0 58 31.5 109t92 81.5t143.5 30.5q65 0 120.5 -15.5t90.5 -36.5l-33 -122q-52 33 -94.5 48t-92.5 15
q-56 0 -95 -23t-39 -69q0 -36 28 -56t89 -41q64 -23 101.5 -42t64.5 -56.5t27 -96.5q0 -60 -28.5 -112.5t-93 -86.5t-167.5 -34q-66 0 -121 13.5zM290 832l187 95l-17 -108l-180 -58z" />
    <glyph glyph-name="uni1E64" unicode="&#x1e64;" horiz-adv-x="558" 
d="M100 -0.5q-55 13.5 -95 35.5l38 136q36 -32 84.5 -52.5t108.5 -20.5q64 0 101.5 23t37.5 72q0 45 -30.5 69.5t-103.5 50.5q-55 20 -90 41t-55 54.5t-20 84.5q0 58 31.5 109t92 81.5t143.5 30.5q65 0 120.5 -15.5t90.5 -36.5l-33 -122q-52 33 -94.5 48t-92.5 15
q-56 0 -95 -23t-39 -69q0 -36 28 -56t89 -41q64 -23 101.5 -42t64.5 -56.5t27 -96.5q0 -60 -28.5 -112.5t-93 -86.5t-167.5 -34q-66 0 -121 13.5zM290 832l187 95l-17 -108l-180 -58zM372 1069h99l-17 -95h-99z" />
    <glyph glyph-name="Scaron" unicode="&#x160;" horiz-adv-x="558" 
d="M100 -0.5q-55 13.5 -95 35.5l38 136q36 -32 84.5 -52.5t108.5 -20.5q64 0 101.5 23t37.5 72q0 45 -30.5 69.5t-103.5 50.5q-55 20 -90 41t-55 54.5t-20 84.5q0 58 31.5 109t92 81.5t143.5 30.5q65 0 120.5 -15.5t90.5 -36.5l-33 -122q-52 33 -94.5 48t-92.5 15
q-56 0 -95 -23t-39 -69q0 -36 28 -56t89 -41q64 -23 101.5 -42t64.5 -56.5t27 -96.5q0 -60 -28.5 -112.5t-93 -86.5t-167.5 -34q-66 0 -121 13.5zM256 873l15 74l114 -82l141 82l-15 -84l-146 -101z" />
    <glyph glyph-name="uni1E66" unicode="&#x1e66;" horiz-adv-x="558" 
d="M100 -0.5q-55 13.5 -95 35.5l38 136q36 -32 84.5 -52.5t108.5 -20.5q64 0 101.5 23t37.5 72q0 45 -30.5 69.5t-103.5 50.5q-55 20 -90 41t-55 54.5t-20 84.5q0 58 31.5 109t92 81.5t143.5 30.5q65 0 120.5 -15.5t90.5 -36.5l-33 -122q-52 33 -94.5 48t-92.5 15
q-56 0 -95 -23t-39 -69q0 -36 28 -56t89 -41q64 -23 101.5 -42t64.5 -56.5t27 -96.5q0 -60 -28.5 -112.5t-93 -86.5t-167.5 -34q-66 0 -121 13.5zM244 839l12 70l116 -75l123 72l-13 -79l-124 -80zM358 1036h99l-17 -95h-99z" />
    <glyph glyph-name="Scedilla" unicode="&#x15e;" horiz-adv-x="558" 
d="M239 580q-39 -23 -39 -69q0 -36 28 -56t89 -41q64 -23 101.5 -42t64.5 -56.5t27 -96.5q0 -55 -24.5 -105t-80 -84.5t-142.5 -41.5l-20 -42h7q35 0 55.5 -18.5t20.5 -51.5q0 -49 -37 -80t-92 -31q-46 0 -78 19l28 56q32 -17 61 -17q26 0 40.5 11t14.5 29q0 15 -11.5 23
t-33.5 8q-23 0 -50 -7l42 99q-120 3 -205 49l38 136q36 -32 84.5 -52.5t108.5 -20.5q64 0 101.5 23t37.5 72q0 45 -30.5 69.5t-103.5 50.5q-55 20 -90 41t-55 54.5t-20 84.5q0 58 31.5 109t92 81.5t143.5 30.5q65 0 120.5 -15.5t90.5 -36.5l-33 -122q-52 33 -94.5 48
t-92.5 15q-56 0 -95 -23z" />
    <glyph glyph-name="Scircumflex" unicode="&#x15c;" horiz-adv-x="558" 
d="M100 -0.5q-55 13.5 -95 35.5l38 136q36 -32 84.5 -52.5t108.5 -20.5q64 0 101.5 23t37.5 72q0 45 -30.5 69.5t-103.5 50.5q-55 20 -90 41t-55 54.5t-20 84.5q0 58 31.5 109t92 81.5t143.5 30.5q65 0 120.5 -15.5t90.5 -36.5l-33 -122q-52 33 -94.5 48t-92.5 15
q-56 0 -95 -23t-39 -69q0 -36 28 -56t89 -41q64 -23 101.5 -42t64.5 -56.5t27 -96.5q0 -60 -28.5 -112.5t-93 -86.5t-167.5 -34q-66 0 -121 13.5zM374 818l-120 -59l13 70l124 80l113 -92l-12 -70z" />
    <glyph glyph-name="Scommaaccent" unicode="&#x218;" horiz-adv-x="558" 
d="M100 -0.5q-55 13.5 -95 35.5l38 136q36 -32 84.5 -52.5t108.5 -20.5q64 0 101.5 23t37.5 72q0 45 -30.5 69.5t-103.5 50.5q-55 20 -90 41t-55 54.5t-20 84.5q0 58 31.5 109t92 81.5t143.5 30.5q65 0 120.5 -15.5t90.5 -36.5l-33 -122q-52 33 -94.5 48t-92.5 15
q-56 0 -95 -23t-39 -69q0 -36 28 -56t89 -41q64 -23 101.5 -42t64.5 -56.5t27 -96.5q0 -60 -28.5 -112.5t-93 -86.5t-167.5 -34q-66 0 -121 13.5zM148 -272l48 87h-38l17 94h101l-16 -94l-71 -87h-41z" />
    <glyph glyph-name="uni1E60" unicode="&#x1e60;" horiz-adv-x="558" 
d="M100 -0.5q-55 13.5 -95 35.5l38 136q36 -32 84.5 -52.5t108.5 -20.5q64 0 101.5 23t37.5 72q0 45 -30.5 69.5t-103.5 50.5q-55 20 -90 41t-55 54.5t-20 84.5q0 58 31.5 109t92 81.5t143.5 30.5q65 0 120.5 -15.5t90.5 -36.5l-33 -122q-52 33 -94.5 48t-92.5 15
q-56 0 -95 -23t-39 -69q0 -36 28 -56t89 -41q64 -23 101.5 -42t64.5 -56.5t27 -96.5q0 -60 -28.5 -112.5t-93 -86.5t-167.5 -34q-66 0 -121 13.5zM337 887h99l-17 -95h-99z" />
    <glyph glyph-name="uni1E62" unicode="&#x1e62;" horiz-adv-x="558" 
d="M100 -0.5q-55 13.5 -95 35.5l38 136q36 -32 84.5 -52.5t108.5 -20.5q64 0 101.5 23t37.5 72q0 45 -30.5 69.5t-103.5 50.5q-55 20 -90 41t-55 54.5t-20 84.5q0 58 31.5 109t92 81.5t143.5 30.5q65 0 120.5 -15.5t90.5 -36.5l-33 -122q-52 33 -94.5 48t-92.5 15
q-56 0 -95 -23t-39 -69q0 -36 28 -56t89 -41q64 -23 101.5 -42t64.5 -56.5t27 -96.5q0 -60 -28.5 -112.5t-93 -86.5t-167.5 -34q-66 0 -121 13.5zM178 -81h97l-18 -95h-97z" />
    <glyph glyph-name="uni1E68" unicode="&#x1e68;" horiz-adv-x="558" 
d="M100 -0.5q-55 13.5 -95 35.5l38 136q36 -32 84.5 -52.5t108.5 -20.5q64 0 101.5 23t37.5 72q0 45 -30.5 69.5t-103.5 50.5q-55 20 -90 41t-55 54.5t-20 84.5q0 58 31.5 109t92 81.5t143.5 30.5q65 0 120.5 -15.5t90.5 -36.5l-33 -122q-52 33 -94.5 48t-92.5 15
q-56 0 -95 -23t-39 -69q0 -36 28 -56t89 -41q64 -23 101.5 -42t64.5 -56.5t27 -96.5q0 -60 -28.5 -112.5t-93 -86.5t-167.5 -34q-66 0 -121 13.5zM337 887h99l-17 -95h-99zM178 -81h97l-18 -95h-97z" />
    <glyph glyph-name="uni1E9E" unicode="&#x1e9e;" horiz-adv-x="612" 
d="M579 567l-140 -171q61 -20 94 -65.5t33 -110.5q0 -71 -32.5 -124t-88.5 -81.5t-127 -28.5q-52 0 -103 14l20 109q37 -11 76 -11q55 0 90 31t35 86q0 49 -30 75t-84 29l-18 1l17 91l154 184q-36 11 -81 11q-71 0 -116.5 -39t-60.5 -120l-79 -447h-118l83 469
q22 124 99.5 184.5t194.5 60.5q57 0 109 -14t94 -37z" />
    <glyph glyph-name="uni018F" unicode="&#x18f;" horiz-adv-x="689" 
d="M538.5 678q63.5 -36 96 -101t32.5 -151q0 -117 -50 -218t-138 -161.5t-197 -60.5q-117 0 -185.5 65t-68.5 179q0 33 7.5 71t19.5 67h481q2 28 2 43q0 91 -47 141t-137 50q-104 0 -225 -53l8 108q55 27 118.5 42t129.5 15q90 0 153.5 -36zM430 143q55 45 83 121h-358
q-2 -22 -2 -30q0 -63 36.5 -99.5t109.5 -36.5q76 0 131 45z" />
    <glyph glyph-name="T" unicode="T" horiz-adv-x="552" 
d="M268 588h-187l20 112h492l-20 -112h-187l-103 -588h-118z" />
    <glyph glyph-name="Tbar" unicode="&#x166;" horiz-adv-x="552" 
d="M386 588l-35 -199h128l-14 -77h-127l-55 -312h-118l55 312h-128l14 77h127l35 199h-187l20 112h492l-20 -112h-187z" />
    <glyph glyph-name="Tcaron" unicode="&#x164;" horiz-adv-x="552" 
d="M268 588h-187l20 112h492l-20 -112h-187l-103 -588h-118zM238 839l12 70l116 -75l123 72l-13 -79l-124 -80z" />
    <glyph glyph-name="uni0162" unicode="&#x162;" horiz-adv-x="552" 
d="M268 588h-187l20 112h492l-20 -112h-187l-103 -588h-118zM289.5 -72.5q20.5 -18.5 20.5 -51.5q0 -49 -37 -80t-92 -31q-46 0 -78 19l28 56q32 -17 61 -17q26 0 40.5 11t14.5 29q0 15 -11.5 23t-33.5 8q-23 0 -50 -7l48 113h53l-26 -54h7q35 0 55.5 -18.5z" />
    <glyph glyph-name="uni021A" unicode="&#x21a;" horiz-adv-x="552" 
d="M268 588h-187l20 112h492l-20 -112h-187l-103 -588h-118zM132 -272l48 87h-38l17 94h101l-16 -94l-71 -87h-41z" />
    <glyph glyph-name="uni1E6C" unicode="&#x1e6c;" horiz-adv-x="552" 
d="M268 588h-187l20 112h492l-20 -112h-187l-103 -588h-118zM162 -81h97l-18 -95h-97z" />
    <glyph glyph-name="uni1E6E" unicode="&#x1e6e;" horiz-adv-x="552" 
d="M268 588h-187l20 112h492l-20 -112h-187l-103 -588h-118zM50 -91h317l-15 -78h-318z" />
    <glyph glyph-name="U" unicode="U" horiz-adv-x="687" 
d="M120.5 44.5q-56.5 58.5 -56.5 165.5q0 45 8 89l71 401h117l-63 -357q-10 -56 -10 -103q0 -68 28 -105t94 -37q89 0 133.5 65t65.5 180l63 357h118l-71 -401q-26 -147 -109.5 -230t-218.5 -83q-113 0 -169.5 58.5z" />
    <glyph glyph-name="Uacute" unicode="&#xda;" horiz-adv-x="687" 
d="M120.5 44.5q-56.5 58.5 -56.5 165.5q0 45 8 89l71 401h117l-63 -357q-10 -56 -10 -103q0 -68 28 -105t94 -37q89 0 133.5 65t65.5 180l63 357h118l-71 -401q-26 -147 -109.5 -230t-218.5 -83q-113 0 -169.5 58.5zM358 853l196 107l-18 -121l-194 -64z" />
    <glyph glyph-name="Ubreve" unicode="&#x16c;" horiz-adv-x="687" 
d="M120.5 44.5q-56.5 58.5 -56.5 165.5q0 45 8 89l71 401h117l-63 -357q-10 -56 -10 -103q0 -68 28 -105t94 -37q89 0 133.5 65t65.5 180l63 357h118l-71 -401q-26 -147 -109.5 -230t-218.5 -83q-113 0 -169.5 58.5zM331 794.5q-34 29.5 -34 75.5q0 7 2 23h83q-2 -8 -2 -15
q0 -23 16 -35t42 -12q31 0 52.5 16.5t26.5 45.5h85q-10 -58 -56 -93t-118 -35q-63 0 -97 29.5z" />
    <glyph glyph-name="Ucircumflex" unicode="&#xdb;" horiz-adv-x="687" 
d="M120.5 44.5q-56.5 58.5 -56.5 165.5q0 45 8 89l71 401h117l-63 -357q-10 -56 -10 -103q0 -68 28 -105t94 -37q89 0 133.5 65t65.5 180l63 357h118l-71 -401q-26 -147 -109.5 -230t-218.5 -83q-113 0 -169.5 58.5zM333 847l131 98l108 -111l-15 -74l-113 82l-128 -71z" />
    <glyph glyph-name="uni0214" unicode="&#x214;" horiz-adv-x="687" 
d="M120.5 44.5q-56.5 58.5 -56.5 165.5q0 45 8 89l71 401h117l-63 -357q-10 -56 -10 -103q0 -68 28 -105t94 -37q89 0 133.5 65t65.5 180l63 357h118l-71 -401q-26 -147 -109.5 -230t-218.5 -83q-113 0 -169.5 58.5zM252 942h107l37 -154h-73zM402 942h107l30 -154h-73z" />
    <glyph glyph-name="Udieresis" unicode="&#xdc;" horiz-adv-x="687" 
d="M120.5 44.5q-56.5 58.5 -56.5 165.5q0 45 8 89l71 401h117l-63 -357q-10 -56 -10 -103q0 -68 28 -105t94 -37q89 0 133.5 65t65.5 180l63 357h118l-71 -401q-26 -147 -109.5 -230t-218.5 -83q-113 0 -169.5 58.5zM308 881h91l-17 -87h-91zM502 881h91l-17 -87h-91z" />
    <glyph glyph-name="uni1EE4" unicode="&#x1ee4;" horiz-adv-x="687" 
d="M120.5 44.5q-56.5 58.5 -56.5 165.5q0 45 8 89l71 401h117l-63 -357q-10 -56 -10 -103q0 -68 28 -105t94 -37q89 0 133.5 65t65.5 180l63 357h118l-71 -401q-26 -147 -109.5 -230t-218.5 -83q-113 0 -169.5 58.5zM222 -81h97l-18 -95h-97z" />
    <glyph glyph-name="Ugrave" unicode="&#xd9;" horiz-adv-x="687" 
d="M120.5 44.5q-56.5 58.5 -56.5 165.5q0 45 8 89l71 401h117l-63 -357q-10 -56 -10 -103q0 -68 28 -105t94 -37q89 0 133.5 65t65.5 180l63 357h118l-71 -401q-26 -147 -109.5 -230t-218.5 -83q-113 0 -169.5 58.5zM349 849l20 110l165 -111l-13 -73z" />
    <glyph glyph-name="uni1EE6" unicode="&#x1ee6;" horiz-adv-x="687" 
d="M120.5 44.5q-56.5 58.5 -56.5 165.5q0 45 8 89l71 401h117l-63 -357q-10 -56 -10 -103q0 -68 28 -105t94 -37q89 0 133.5 65t65.5 180l63 357h118l-71 -401q-26 -147 -109.5 -230t-218.5 -83q-113 0 -169.5 58.5zM451.5 808q13.5 15 13.5 34q0 13 -8 20t-23 7
q-25 0 -66 -18l-6 56q43 18 83 18q37 0 60 -18t24 -51q0 -37 -23.5 -65t-67.5 -57l-29 36q29 23 42.5 38z" />
    <glyph glyph-name="Uhorn" unicode="&#x1af;" horiz-adv-x="687" 
d="M766.5 687q-37.5 -37 -89.5 -53l-59 -335q-26 -147 -109.5 -230t-218.5 -83q-113 0 -169.5 58.5t-56.5 165.5q0 45 8 89l71 401h117l-63 -357q-10 -56 -10 -103q0 -68 28 -105t94 -37q89 0 133.5 65t65.5 180l63 357h49q79 0 93 74h100q-9 -50 -46.5 -87z" />
    <glyph glyph-name="uni1EE8" unicode="&#x1ee8;" horiz-adv-x="687" 
d="M766.5 687q-37.5 -37 -89.5 -53l-59 -335q-26 -147 -109.5 -230t-218.5 -83q-113 0 -169.5 58.5t-56.5 165.5q0 45 8 89l71 401h117l-63 -357q-10 -56 -10 -103q0 -68 28 -105t94 -37q89 0 133.5 65t65.5 180l63 357h49q79 0 93 74h100q-9 -50 -46.5 -87zM358 853
l196 107l-18 -121l-194 -64z" />
    <glyph glyph-name="uni1EF0" unicode="&#x1ef0;" horiz-adv-x="687" 
d="M766.5 687q-37.5 -37 -89.5 -53l-59 -335q-26 -147 -109.5 -230t-218.5 -83q-113 0 -169.5 58.5t-56.5 165.5q0 45 8 89l71 401h117l-63 -357q-10 -56 -10 -103q0 -68 28 -105t94 -37q89 0 133.5 65t65.5 180l63 357h49q79 0 93 74h100q-9 -50 -46.5 -87zM222 -81h97
l-18 -95h-97z" />
    <glyph glyph-name="uni1EEA" unicode="&#x1eea;" horiz-adv-x="687" 
d="M766.5 687q-37.5 -37 -89.5 -53l-59 -335q-26 -147 -109.5 -230t-218.5 -83q-113 0 -169.5 58.5t-56.5 165.5q0 45 8 89l71 401h117l-63 -357q-10 -56 -10 -103q0 -68 28 -105t94 -37q89 0 133.5 65t65.5 180l63 357h49q79 0 93 74h100q-9 -50 -46.5 -87zM349 849l20 110
l165 -111l-13 -73z" />
    <glyph glyph-name="uni1EEC" unicode="&#x1eec;" horiz-adv-x="687" 
d="M766.5 687q-37.5 -37 -89.5 -53l-59 -335q-26 -147 -109.5 -230t-218.5 -83q-113 0 -169.5 58.5t-56.5 165.5q0 45 8 89l71 401h117l-63 -357q-10 -56 -10 -103q0 -68 28 -105t94 -37q89 0 133.5 65t65.5 180l63 357h49q79 0 93 74h100q-9 -50 -46.5 -87zM451.5 808
q13.5 15 13.5 34q0 13 -8 20t-23 7q-25 0 -66 -18l-6 56q43 18 83 18q37 0 60 -18t24 -51q0 -37 -23.5 -65t-67.5 -57l-29 36q29 23 42.5 38z" />
    <glyph glyph-name="uni1EEE" unicode="&#x1eee;" horiz-adv-x="687" 
d="M766.5 687q-37.5 -37 -89.5 -53l-59 -335q-26 -147 -109.5 -230t-218.5 -83q-113 0 -169.5 58.5t-56.5 165.5q0 45 8 89l71 401h117l-63 -357q-10 -56 -10 -103q0 -68 28 -105t94 -37q89 0 133.5 65t65.5 180l63 357h49q79 0 93 74h100q-9 -50 -46.5 -87zM487.5 787.5
q-16.5 5.5 -39.5 16.5q-42 21 -62 21q-16 0 -26.5 -9.5t-13.5 -25.5h-77q10 57 37 87.5t68 30.5q17 0 33.5 -6.5t37.5 -17.5q15 -8 30.5 -14t27.5 -6q32 0 38 39h79q-11 -62 -36 -91.5t-65 -29.5q-15 0 -31.5 5.5z" />
    <glyph glyph-name="Uhungarumlaut" unicode="&#x170;" horiz-adv-x="687" 
d="M120.5 44.5q-56.5 58.5 -56.5 165.5q0 45 8 89l71 401h117l-63 -357q-10 -56 -10 -103q0 -68 28 -105t94 -37q89 0 133.5 65t65.5 180l63 357h118l-71 -401q-26 -147 -109.5 -230t-218.5 -83q-113 0 -169.5 58.5zM402 942h109l-118 -154h-74zM553 942h110l-126 -154h-74z
" />
    <glyph glyph-name="uni0216" unicode="&#x216;" horiz-adv-x="687" 
d="M120.5 44.5q-56.5 58.5 -56.5 165.5q0 45 8 89l71 401h117l-63 -357q-10 -56 -10 -103q0 -68 28 -105t94 -37q89 0 133.5 65t65.5 180l63 357h118l-71 -401q-26 -147 -109.5 -230t-218.5 -83q-113 0 -169.5 58.5zM337 871q47 37 116 37q62 0 96 -29.5t34 -75.5
q0 -9 -2 -23h-84q2 10 2 14q0 23 -15.5 35.5t-42.5 12.5q-30 0 -51 -16.5t-26 -45.5h-83q9 54 56 91z" />
    <glyph glyph-name="Umacron" unicode="&#x16a;" horiz-adv-x="687" 
d="M120.5 44.5q-56.5 58.5 -56.5 165.5q0 45 8 89l71 401h117l-63 -357q-10 -56 -10 -103q0 -68 28 -105t94 -37q89 0 133.5 65t65.5 180l63 357h118l-71 -401q-26 -147 -109.5 -230t-218.5 -83q-113 0 -169.5 58.5zM286 867h319l-14 -74h-318z" />
    <glyph glyph-name="uni1E7A" unicode="&#x1e7a;" horiz-adv-x="687" 
d="M120.5 44.5q-56.5 58.5 -56.5 165.5q0 45 8 89l71 401h117l-63 -357q-10 -56 -10 -103q0 -68 28 -105t94 -37q89 0 133.5 65t65.5 180l63 357h118l-71 -401q-26 -147 -109.5 -230t-218.5 -83q-113 0 -169.5 58.5zM286 867h319l-14 -74h-318zM338 1034h91l-15 -83h-91z
M530 1034h91l-15 -83h-91z" />
    <glyph glyph-name="Uogonek" unicode="&#x172;" horiz-adv-x="687" 
d="M689 700l-71 -401q-23 -128 -89 -208t-172 -99q-38 -27 -61.5 -53.5t-23.5 -54.5q0 -18 9.5 -27t27.5 -9q31 0 60 13l6 -53q-38 -18 -84 -18q-38 0 -61 18.5t-24 51.5q0 35 23.5 68t59.5 58q-113 0 -169 58.5t-56 165.5q0 45 8 89l71 401h117l-63 -357q-10 -56 -10 -103
q0 -68 28 -105t94 -37q89 0 133.5 65t65.5 180l63 357h118z" />
    <glyph glyph-name="Uring" unicode="&#x16e;" horiz-adv-x="687" 
d="M120.5 44.5q-56.5 58.5 -56.5 165.5q0 45 8 89l71 401h117l-63 -357q-10 -56 -10 -103q0 -68 28 -105t94 -37q89 0 133.5 65t65.5 180l63 357h118l-71 -401q-26 -147 -109.5 -230t-218.5 -83q-113 0 -169.5 58.5zM364 777.5q-23 22.5 -23 57.5q0 48 34.5 81.5t82.5 33.5
q41 0 63.5 -23t22.5 -58q0 -48 -34 -81t-82 -33q-41 0 -64 22.5zM471.5 821.5q15.5 17.5 15.5 39.5q-1 17 -10.5 28t-25.5 11q-21 0 -36.5 -17t-15.5 -40q0 -18 10 -28.5t25 -10.5q22 0 37.5 17.5z" />
    <glyph glyph-name="Utilde" unicode="&#x168;" horiz-adv-x="687" 
d="M120.5 44.5q-56.5 58.5 -56.5 165.5q0 45 8 89l71 401h117l-63 -357q-10 -56 -10 -103q0 -68 28 -105t94 -37q89 0 133.5 65t65.5 180l63 357h118l-71 -401q-26 -147 -109.5 -230t-218.5 -83q-113 0 -169.5 58.5zM487.5 787.5q-16.5 5.5 -39.5 16.5q-42 21 -62 21
q-16 0 -26.5 -9.5t-13.5 -25.5h-77q10 57 37 87.5t68 30.5q17 0 33.5 -6.5t37.5 -17.5q15 -8 30.5 -14t27.5 -6q32 0 38 39h79q-11 -62 -36 -91.5t-65 -29.5q-15 0 -31.5 5.5z" />
    <glyph glyph-name="uni1E78" unicode="&#x1e78;" horiz-adv-x="687" 
d="M120.5 44.5q-56.5 58.5 -56.5 165.5q0 45 8 89l71 401h117l-63 -357q-10 -56 -10 -103q0 -68 28 -105t94 -37q89 0 133.5 65t65.5 180l63 357h118l-71 -401q-26 -147 -109.5 -230t-218.5 -83q-113 0 -169.5 58.5zM478 785.5q-16 5.5 -40 15.5q-15 7 -31 12.5t-27 5.5
q-27 0 -33 -32h-72q9 50 33.5 76.5t63.5 26.5q25 0 69 -20q15 -7 31 -12.5t28 -5.5q27 0 33 33h72q-7 -51 -32 -78t-64 -27q-15 0 -31 5.5zM382 1000l187 95l-17 -108l-180 -58z" />
    <glyph glyph-name="V" unicode="V" horiz-adv-x="625" 
d="M72 700h123l90 -561l279 561h122l-357 -700h-142z" />
    <glyph glyph-name="W" unicode="W" horiz-adv-x="920" 
d="M89 700h123l39 -523l238 519h90l60 -509l219 513h123l-317 -700h-106l-59 499l-236 -499h-112z" />
    <glyph glyph-name="Wacute" unicode="&#x1e82;" horiz-adv-x="920" 
d="M89 700h123l39 -523l238 519h90l60 -509l219 513h123l-317 -700h-106l-59 499l-236 -499h-112zM471 832l187 95l-17 -108l-180 -58z" />
    <glyph glyph-name="Wcircumflex" unicode="&#x174;" horiz-adv-x="920" 
d="M89 700h123l39 -523l238 519h90l60 -509l219 513h123l-317 -700h-106l-59 499l-236 -499h-112zM555 818l-120 -59l13 70l124 80l113 -92l-12 -70z" />
    <glyph glyph-name="Wdieresis" unicode="&#x1e84;" horiz-adv-x="920" 
d="M89 700h123l39 -523l238 519h90l60 -509l219 513h123l-317 -700h-106l-59 499l-236 -499h-112zM422 869h91l-15 -83h-91zM614 869h91l-15 -83h-91z" />
    <glyph glyph-name="Wgrave" unicode="&#x1e80;" horiz-adv-x="920" 
d="M89 700h123l39 -523l238 519h90l60 -509l219 513h123l-317 -700h-106l-59 499l-236 -499h-112zM462 819l19 102l168 -95l-13 -65z" />
    <glyph glyph-name="X" unicode="X" horiz-adv-x="600" 
d="M244 359l-157 341h137l105 -260l191 260h135l-277 -345l166 -355h-136l-116 266l-203 -266h-135z" />
    <glyph glyph-name="Y" unicode="Y" horiz-adv-x="586" 
d="M234 314l-159 386h125l114 -283l209 283h125l-295 -386l-56 -314h-118z" />
    <glyph glyph-name="Yacute" unicode="&#xdd;" horiz-adv-x="586" 
d="M234 314l-159 386h125l114 -283l209 283h125l-295 -386l-56 -314h-118zM303 853l196 107l-18 -121l-194 -64z" />
    <glyph glyph-name="Ycircumflex" unicode="&#x176;" horiz-adv-x="586" 
d="M234 314l-159 386h125l114 -283l209 283h125l-295 -386l-56 -314h-118zM382 818l-120 -59l13 70l124 80l113 -92l-12 -70z" />
    <glyph glyph-name="Ydieresis" unicode="&#x178;" horiz-adv-x="586" 
d="M234 314l-159 386h125l114 -283l209 283h125l-295 -386l-56 -314h-118zM253 881h91l-17 -87h-91zM447 881h91l-17 -87h-91z" />
    <glyph glyph-name="uni1E8E" unicode="&#x1e8e;" horiz-adv-x="586" 
d="M234 314l-159 386h125l114 -283l209 283h125l-295 -386l-56 -314h-118zM345 887h99l-17 -95h-99z" />
    <glyph glyph-name="uni1EF4" unicode="&#x1ef4;" horiz-adv-x="586" 
d="M234 314l-159 386h125l114 -283l209 283h125l-295 -386l-56 -314h-118zM176 -81h97l-18 -95h-97z" />
    <glyph glyph-name="Ygrave" unicode="&#x1ef2;" horiz-adv-x="586" 
d="M234 314l-159 386h125l114 -283l209 283h125l-295 -386l-56 -314h-118zM294 849l20 110l165 -111l-13 -73z" />
    <glyph glyph-name="uni1EF6" unicode="&#x1ef6;" horiz-adv-x="586" 
d="M234 314l-159 386h125l114 -283l209 283h125l-295 -386l-56 -314h-118zM396.5 808q13.5 15 13.5 34q0 13 -8 20t-23 7q-25 0 -66 -18l-6 56q43 18 83 18q37 0 60 -18t24 -51q0 -37 -23.5 -65t-67.5 -57l-29 36q29 23 42.5 38z" />
    <glyph glyph-name="uni0232" unicode="&#x232;" horiz-adv-x="586" 
d="M234 314l-159 386h125l114 -283l209 283h125l-295 -386l-56 -314h-118zM231 867h319l-14 -74h-318z" />
    <glyph glyph-name="uni1EF8" unicode="&#x1ef8;" horiz-adv-x="586" 
d="M234 314l-159 386h125l114 -283l209 283h125l-295 -386l-56 -314h-118zM432.5 787.5q-16.5 5.5 -39.5 16.5q-42 21 -62 21q-16 0 -26.5 -9.5t-13.5 -25.5h-77q10 57 37 87.5t68 30.5q17 0 33.5 -6.5t37.5 -17.5q15 -8 30.5 -14t27.5 -6q32 0 38 39h79q-11 -62 -36 -91.5
t-65 -29.5q-15 0 -31.5 5.5z" />
    <glyph glyph-name="Z" unicode="Z" horiz-adv-x="525" 
d="M371 588h-264l19 112h460l-411 -588h264l-19 -112h-460z" />
    <glyph glyph-name="Zacute" unicode="&#x179;" horiz-adv-x="525" 
d="M371 588h-264l19 112h460l-411 -588h264l-19 -112h-460zM293 832l187 95l-17 -108l-180 -58z" />
    <glyph glyph-name="Zcaron" unicode="&#x17d;" horiz-adv-x="525" 
d="M371 588h-264l19 112h460l-411 -588h264l-19 -112h-460zM259 873l15 74l114 -82l141 82l-15 -84l-146 -101z" />
    <glyph glyph-name="Zdotaccent" unicode="&#x17b;" horiz-adv-x="525" 
d="M371 588h-264l19 112h460l-411 -588h264l-19 -112h-460zM340 887h99l-17 -95h-99z" />
    <glyph glyph-name="uni1E92" unicode="&#x1e92;" horiz-adv-x="525" 
d="M371 588h-264l19 112h460l-411 -588h264l-19 -112h-460zM128 -81h97l-18 -95h-97z" />
    <glyph glyph-name="Iacute_J.loclNLD" horiz-adv-x="686" 
d="M122.5 41.5q-56.5 55.5 -58.5 157.5l123 30q2 -63 30.5 -97t91.5 -34q89 0 133.5 65t65.5 180l63 357h118l-71 -401q-26 -147 -109.5 -230t-218.5 -83q-111 0 -167.5 55.5zM143 700h117l-63 -357q-4 -22 -6 -44h-119zM133 832l187 95l-17 -108l-180 -58zM564 832l187 95
l-17 -108l-180 -58z" />
    <glyph glyph-name="a" unicode="a" horiz-adv-x="571" 
d="M67 46.5q-48 56.5 -48 147.5q0 80 34.5 151.5t97 116t142.5 44.5q75 0 115 -49l16 40h99l-58 -344q-4 -21 -4 -38q0 -21 9.5 -26.5t38.5 -5.5l-27 -93q-47 0 -71.5 4.5t-39 17.5t-25.5 40q-31 -29 -66.5 -45.5t-82.5 -16.5q-82 0 -130 56.5zM315 115q32 30 47 76t15 96
q0 60 -23.5 91.5t-69.5 31.5q-42 0 -75.5 -27t-52.5 -72.5t-19 -99.5q0 -58 24.5 -92t74.5 -34q47 0 79 30z" />
    <glyph glyph-name="aacute" unicode="&#xe1;" horiz-adv-x="571" 
d="M67 46.5q-48 56.5 -48 147.5q0 80 34.5 151.5t97 116t142.5 44.5q75 0 115 -49l16 40h99l-58 -344q-4 -21 -4 -38q0 -21 9.5 -26.5t38.5 -5.5l-27 -93q-47 0 -71.5 4.5t-39 17.5t-25.5 40q-31 -29 -66.5 -45.5t-82.5 -16.5q-82 0 -130 56.5zM315 115q32 30 47 76t15 96
q0 60 -23.5 91.5t-69.5 31.5q-42 0 -75.5 -27t-52.5 -72.5t-19 -99.5q0 -58 24.5 -92t74.5 -34q47 0 79 30zM271 650l196 107l-18 -121l-194 -64z" />
    <glyph glyph-name="abreve" unicode="&#x103;" horiz-adv-x="571" 
d="M67 46.5q-48 56.5 -48 147.5q0 80 34.5 151.5t97 116t142.5 44.5q75 0 115 -49l16 40h99l-58 -344q-4 -21 -4 -38q0 -21 9.5 -26.5t38.5 -5.5l-27 -93q-47 0 -71.5 4.5t-39 17.5t-25.5 40q-31 -29 -66.5 -45.5t-82.5 -16.5q-82 0 -130 56.5zM315 115q32 30 47 76t15 96
q0 60 -23.5 91.5t-69.5 31.5q-42 0 -75.5 -27t-52.5 -72.5t-19 -99.5q0 -58 24.5 -92t74.5 -34q47 0 79 30zM258 614.5q-35 30.5 -35 77.5q0 16 4 27h79q-2 -10 -2 -16q0 -23 14.5 -35t41.5 -12q31 0 52.5 16.5t26.5 46.5h88q-14 -62 -58.5 -98.5t-114.5 -36.5
q-61 0 -96 30.5z" />
    <glyph glyph-name="uni1EAF" unicode="&#x1eaf;" horiz-adv-x="571" 
d="M67 46.5q-48 56.5 -48 147.5q0 80 34.5 151.5t97 116t142.5 44.5q75 0 115 -49l16 40h99l-58 -344q-4 -21 -4 -38q0 -21 9.5 -26.5t38.5 -5.5l-27 -93q-47 0 -71.5 4.5t-39 17.5t-25.5 40q-31 -29 -66.5 -45.5t-82.5 -16.5q-82 0 -130 56.5zM315 115q32 30 47 76t15 96
q0 60 -23.5 91.5t-69.5 31.5q-42 0 -75.5 -27t-52.5 -72.5t-19 -99.5q0 -58 24.5 -92t74.5 -34q47 0 79 30zM318 802l186 95l-17 -108l-180 -58zM252 591.5q-34 29.5 -34 75.5q0 7 2 23h83q-2 -8 -2 -15q0 -23 16 -35t42 -12q31 0 52.5 16.5t26.5 45.5h85q-10 -58 -56 -93
t-118 -35q-63 0 -97 29.5z" />
    <glyph glyph-name="uni1EB7" unicode="&#x1eb7;" horiz-adv-x="571" 
d="M67 46.5q-48 56.5 -48 147.5q0 80 34.5 151.5t97 116t142.5 44.5q75 0 115 -49l16 40h99l-58 -344q-4 -21 -4 -38q0 -21 9.5 -26.5t38.5 -5.5l-27 -93q-47 0 -71.5 4.5t-39 17.5t-25.5 40q-31 -29 -66.5 -45.5t-82.5 -16.5q-82 0 -130 56.5zM315 115q32 30 47 76t15 96
q0 60 -23.5 91.5t-69.5 31.5q-42 0 -75.5 -27t-52.5 -72.5t-19 -99.5q0 -58 24.5 -92t74.5 -34q47 0 79 30zM258 614.5q-35 30.5 -35 77.5q0 16 4 27h79q-2 -10 -2 -16q0 -23 14.5 -35t41.5 -12q31 0 52.5 16.5t26.5 46.5h88q-14 -62 -58.5 -98.5t-114.5 -36.5
q-61 0 -96 30.5zM153 -81h97l-18 -95h-97z" />
    <glyph glyph-name="uni1EB1" unicode="&#x1eb1;" horiz-adv-x="571" 
d="M67 46.5q-48 56.5 -48 147.5q0 80 34.5 151.5t97 116t142.5 44.5q75 0 115 -49l16 40h99l-58 -344q-4 -21 -4 -38q0 -21 9.5 -26.5t38.5 -5.5l-27 -93q-47 0 -71.5 4.5t-39 17.5t-25.5 40q-31 -29 -66.5 -45.5t-82.5 -16.5q-82 0 -130 56.5zM315 115q32 30 47 76t15 96
q0 60 -23.5 91.5t-69.5 31.5q-42 0 -75.5 -27t-52.5 -72.5t-19 -99.5q0 -58 24.5 -92t74.5 -34q47 0 79 30zM301 789l19 102l168 -95l-13 -65zM245 591.5q-34 29.5 -34 75.5q0 7 2 23h83q-2 -8 -2 -15q0 -23 16 -35t42 -12q31 0 52.5 16.5t26.5 45.5h85q-10 -58 -56 -93
t-118 -35q-63 0 -97 29.5z" />
    <glyph glyph-name="uni1EB3" unicode="&#x1eb3;" horiz-adv-x="571" 
d="M67 46.5q-48 56.5 -48 147.5q0 80 34.5 151.5t97 116t142.5 44.5q75 0 115 -49l16 40h99l-58 -344q-4 -21 -4 -38q0 -21 9.5 -26.5t38.5 -5.5l-27 -93q-47 0 -71.5 4.5t-39 17.5t-25.5 40q-31 -29 -66.5 -45.5t-82.5 -16.5q-82 0 -130 56.5zM315 115q32 30 47 76t15 96
q0 60 -23.5 91.5t-69.5 31.5q-42 0 -75.5 -27t-52.5 -72.5t-19 -99.5q0 -58 24.5 -92t74.5 -34q47 0 79 30zM386 755q42 12 42 39q0 26 -33 26q-26 0 -62 -17l-8 58q39 17 83 17q38 0 61.5 -18t23.5 -50q0 -72 -104 -98zM260.5 598.5q-34.5 29.5 -34.5 75.5q0 7 2 23h84
q-2 -8 -2 -15q0 -23 15.5 -35t42.5 -12q31 0 52 16.5t26 45.5h85q-9 -58 -55 -93t-118 -35q-63 0 -97.5 29.5z" />
    <glyph glyph-name="uni1EB5" unicode="&#x1eb5;" horiz-adv-x="571" 
d="M67 46.5q-48 56.5 -48 147.5q0 80 34.5 151.5t97 116t142.5 44.5q75 0 115 -49l16 40h99l-58 -344q-4 -21 -4 -38q0 -21 9.5 -26.5t38.5 -5.5l-27 -93q-47 0 -71.5 4.5t-39 17.5t-25.5 40q-31 -29 -66.5 -45.5t-82.5 -16.5q-82 0 -130 56.5zM315 115q32 30 47 76t15 96
q0 60 -23.5 91.5t-69.5 31.5q-42 0 -75.5 -27t-52.5 -72.5t-19 -99.5q0 -58 24.5 -92t74.5 -34q47 0 79 30zM439 743.5q-16 5.5 -40 15.5q-15 7 -30.5 12.5t-26.5 5.5q-13 0 -22 -8.5t-12 -23.5h-72q9 50 33.5 76.5t63.5 26.5q25 0 69 -20q15 -7 31 -12.5t28 -5.5
q27 0 33 33h73q-8 -51 -33 -78t-64 -27q-15 0 -31 5.5zM257.5 591.5q-34.5 29.5 -34.5 75.5q0 7 2 23h83q-1 -4 -1 -15q0 -23 15.5 -35t42.5 -12q30 0 51.5 16.5t26.5 45.5h85q-10 -58 -56 -93t-118 -35q-62 0 -96.5 29.5z" />
    <glyph glyph-name="acircumflex" unicode="&#xe2;" horiz-adv-x="571" 
d="M67 46.5q-48 56.5 -48 147.5q0 80 34.5 151.5t97 116t142.5 44.5q75 0 115 -49l16 40h99l-58 -344q-4 -21 -4 -38q0 -21 9.5 -26.5t38.5 -5.5l-27 -93q-47 0 -71.5 4.5t-39 17.5t-25.5 40q-31 -29 -66.5 -45.5t-82.5 -16.5q-82 0 -130 56.5zM315 115q32 30 47 76t15 96
q0 60 -23.5 91.5t-69.5 31.5q-42 0 -75.5 -27t-52.5 -72.5t-19 -99.5q0 -58 24.5 -92t74.5 -34q47 0 79 30zM246 644l131 98l108 -111l-15 -74l-113 82l-128 -71z" />
    <glyph glyph-name="uni1EA5" unicode="&#x1ea5;" horiz-adv-x="571" 
d="M67 46.5q-48 56.5 -48 147.5q0 80 34.5 151.5t97 116t142.5 44.5q75 0 115 -49l16 40h99l-58 -344q-4 -21 -4 -38q0 -21 9.5 -26.5t38.5 -5.5l-27 -93q-47 0 -71.5 4.5t-39 17.5t-25.5 40q-31 -29 -66.5 -45.5t-82.5 -16.5q-82 0 -130 56.5zM315 115q32 30 47 76t15 96
q0 60 -23.5 91.5t-69.5 31.5q-42 0 -75.5 -27t-52.5 -72.5t-19 -99.5q0 -58 24.5 -92t74.5 -34q47 0 79 30zM500 816h109l-112 -115h-74zM351 622l-120 -59l13 70l124 80l113 -92l-12 -70z" />
    <glyph glyph-name="uni1EAD" unicode="&#x1ead;" horiz-adv-x="571" 
d="M67 46.5q-48 56.5 -48 147.5q0 80 34.5 151.5t97 116t142.5 44.5q75 0 115 -49l16 40h99l-58 -344q-4 -21 -4 -38q0 -21 9.5 -26.5t38.5 -5.5l-27 -93q-47 0 -71.5 4.5t-39 17.5t-25.5 40q-31 -29 -66.5 -45.5t-82.5 -16.5q-82 0 -130 56.5zM315 115q32 30 47 76t15 96
q0 60 -23.5 91.5t-69.5 31.5q-42 0 -75.5 -27t-52.5 -72.5t-19 -99.5q0 -58 24.5 -92t74.5 -34q47 0 79 30zM246 644l131 98l108 -111l-15 -74l-113 82l-128 -71zM153 -81h97l-18 -95h-97z" />
    <glyph glyph-name="uni1EA7" unicode="&#x1ea7;" horiz-adv-x="571" 
d="M67 46.5q-48 56.5 -48 147.5q0 80 34.5 151.5t97 116t142.5 44.5q75 0 115 -49l16 40h99l-58 -344q-4 -21 -4 -38q0 -21 9.5 -26.5t38.5 -5.5l-27 -93q-47 0 -71.5 4.5t-39 17.5t-25.5 40q-31 -29 -66.5 -45.5t-82.5 -16.5q-82 0 -130 56.5zM315 115q32 30 47 76t15 96
q0 60 -23.5 91.5t-69.5 31.5q-42 0 -75.5 -27t-52.5 -72.5t-19 -99.5q0 -58 24.5 -92t74.5 -34q47 0 79 30zM370 825h103l31 -124h-72zM350 622l-120 -59l13 70l124 80l113 -92l-12 -70z" />
    <glyph glyph-name="uni1EA9" unicode="&#x1ea9;" horiz-adv-x="571" 
d="M67 46.5q-48 56.5 -48 147.5q0 80 34.5 151.5t97 116t142.5 44.5q75 0 115 -49l16 40h99l-58 -344q-4 -21 -4 -38q0 -21 9.5 -26.5t38.5 -5.5l-27 -93q-47 0 -71.5 4.5t-39 17.5t-25.5 40q-31 -29 -66.5 -45.5t-82.5 -16.5q-82 0 -130 56.5zM315 115q32 30 47 76t15 96
q0 60 -23.5 91.5t-69.5 31.5q-42 0 -75.5 -27t-52.5 -72.5t-19 -99.5q0 -58 24.5 -92t74.5 -34q47 0 79 30zM440 712q43 10 43 39q0 25 -34 25q-25 0 -62 -16l-7 58q40 16 82 16q38 0 61.5 -18t23.5 -49q0 -37 -27 -61.5t-77 -36.5zM350 615l-120 -59l13 70l124 80l113 -92
l-12 -70z" />
    <glyph glyph-name="uni1EAB" unicode="&#x1eab;" horiz-adv-x="571" 
d="M67 46.5q-48 56.5 -48 147.5q0 80 34.5 151.5t97 116t142.5 44.5q75 0 115 -49l16 40h99l-58 -344q-4 -21 -4 -38q0 -21 9.5 -26.5t38.5 -5.5l-27 -93q-47 0 -71.5 4.5t-39 17.5t-25.5 40q-31 -29 -66.5 -45.5t-82.5 -16.5q-82 0 -130 56.5zM315 115q32 30 47 76t15 96
q0 60 -23.5 91.5t-69.5 31.5q-42 0 -75.5 -27t-52.5 -72.5t-19 -99.5q0 -58 24.5 -92t74.5 -34q47 0 79 30zM424 738q-15 5 -40 16q-15 7 -31 12.5t-27 5.5q-13 0 -22 -8.5t-11 -23.5h-73q20 103 98 103q15 0 31 -5t38 -15q15 -7 31 -12.5t27 -5.5q28 0 34 33h72
q-7 -51 -32.5 -78t-64.5 -27q-15 0 -30 5zM350 615l-120 -59l13 70l124 80l113 -92l-12 -70z" />
    <glyph glyph-name="uni0201" unicode="&#x201;" horiz-adv-x="571" 
d="M67 46.5q-48 56.5 -48 147.5q0 80 34.5 151.5t97 116t142.5 44.5q75 0 115 -49l16 40h99l-58 -344q-4 -21 -4 -38q0 -21 9.5 -26.5t38.5 -5.5l-27 -93q-47 0 -71.5 4.5t-39 17.5t-25.5 40q-31 -29 -66.5 -45.5t-82.5 -16.5q-82 0 -130 56.5zM315 115q32 30 47 76t15 96
q0 60 -23.5 91.5t-69.5 31.5q-42 0 -75.5 -27t-52.5 -72.5t-19 -99.5q0 -58 24.5 -92t74.5 -34q47 0 79 30zM239 585l-76 174h110l41 -174h-75zM383 585l-68 174h110l33 -174h-75z" />
    <glyph glyph-name="adieresis" unicode="&#xe4;" horiz-adv-x="571" 
d="M67 46.5q-48 56.5 -48 147.5q0 80 34.5 151.5t97 116t142.5 44.5q75 0 115 -49l16 40h99l-58 -344q-4 -21 -4 -38q0 -21 9.5 -26.5t38.5 -5.5l-27 -93q-47 0 -71.5 4.5t-39 17.5t-25.5 40q-31 -29 -66.5 -45.5t-82.5 -16.5q-82 0 -130 56.5zM315 115q32 30 47 76t15 96
q0 60 -23.5 91.5t-69.5 31.5q-42 0 -75.5 -27t-52.5 -72.5t-19 -99.5q0 -58 24.5 -92t74.5 -34q47 0 79 30zM221 678h91l-17 -87h-91zM415 678h91l-17 -87h-91z" />
    <glyph glyph-name="uni1EA1" unicode="&#x1ea1;" horiz-adv-x="571" 
d="M67 46.5q-48 56.5 -48 147.5q0 80 34.5 151.5t97 116t142.5 44.5q75 0 115 -49l16 40h99l-58 -344q-4 -21 -4 -38q0 -21 9.5 -26.5t38.5 -5.5l-27 -93q-47 0 -71.5 4.5t-39 17.5t-25.5 40q-31 -29 -66.5 -45.5t-82.5 -16.5q-82 0 -130 56.5zM315 115q32 30 47 76t15 96
q0 60 -23.5 91.5t-69.5 31.5q-42 0 -75.5 -27t-52.5 -72.5t-19 -99.5q0 -58 24.5 -92t74.5 -34q47 0 79 30zM153 -81h97l-18 -95h-97z" />
    <glyph glyph-name="agrave" unicode="&#xe0;" horiz-adv-x="571" 
d="M67 46.5q-48 56.5 -48 147.5q0 80 34.5 151.5t97 116t142.5 44.5q75 0 115 -49l16 40h99l-58 -344q-4 -21 -4 -38q0 -21 9.5 -26.5t38.5 -5.5l-27 -93q-47 0 -71.5 4.5t-39 17.5t-25.5 40q-31 -29 -66.5 -45.5t-82.5 -16.5q-82 0 -130 56.5zM315 115q32 30 47 76t15 96
q0 60 -23.5 91.5t-69.5 31.5q-42 0 -75.5 -27t-52.5 -72.5t-19 -99.5q0 -58 24.5 -92t74.5 -34q47 0 79 30zM262 646l20 110l165 -111l-13 -73z" />
    <glyph glyph-name="uni1EA3" unicode="&#x1ea3;" horiz-adv-x="571" 
d="M67 46.5q-48 56.5 -48 147.5q0 80 34.5 151.5t97 116t142.5 44.5q75 0 115 -49l16 40h99l-58 -344q-4 -21 -4 -38q0 -21 9.5 -26.5t38.5 -5.5l-27 -93q-47 0 -71.5 4.5t-39 17.5t-25.5 40q-31 -29 -66.5 -45.5t-82.5 -16.5q-82 0 -130 56.5zM315 115q32 30 47 76t15 96
q0 60 -23.5 91.5t-69.5 31.5q-42 0 -75.5 -27t-52.5 -72.5t-19 -99.5q0 -58 24.5 -92t74.5 -34q47 0 79 30zM364.5 605q13.5 15 13.5 34q0 13 -8 20t-23 7q-25 0 -66 -18l-6 56q43 18 83 18q37 0 60 -18t24 -51q0 -37 -23.5 -65t-67.5 -57l-29 36q29 23 42.5 38z" />
    <glyph glyph-name="uni0203" unicode="&#x203;" horiz-adv-x="571" 
d="M67 46.5q-48 56.5 -48 147.5q0 80 34.5 151.5t97 116t142.5 44.5q75 0 115 -49l16 40h99l-58 -344q-4 -21 -4 -38q0 -21 9.5 -26.5t38.5 -5.5l-27 -93q-47 0 -71.5 4.5t-39 17.5t-25.5 40q-31 -29 -66.5 -45.5t-82.5 -16.5q-82 0 -130 56.5zM315 115q32 30 47 76t15 96
q0 60 -23.5 91.5t-69.5 31.5q-42 0 -75.5 -27t-52.5 -72.5t-19 -99.5q0 -58 24.5 -92t74.5 -34q47 0 79 30zM464 688q34 -31 34 -80q0 -8 -2 -24h-82q1 6 1 13q0 24 -16 37t-43 13q-31 0 -52.5 -16.5t-26.5 -46.5h-84q9 57 57 96t118 39q62 0 96 -31z" />
    <glyph glyph-name="amacron" unicode="&#x101;" horiz-adv-x="571" 
d="M67 46.5q-48 56.5 -48 147.5q0 80 34.5 151.5t97 116t142.5 44.5q75 0 115 -49l16 40h99l-58 -344q-4 -21 -4 -38q0 -21 9.5 -26.5t38.5 -5.5l-27 -93q-47 0 -71.5 4.5t-39 17.5t-25.5 40q-31 -29 -66.5 -45.5t-82.5 -16.5q-82 0 -130 56.5zM315 115q32 30 47 76t15 96
q0 60 -23.5 91.5t-69.5 31.5q-42 0 -75.5 -27t-52.5 -72.5t-19 -99.5q0 -58 24.5 -92t74.5 -34q47 0 79 30zM206 676h317l-15 -78h-318z" />
    <glyph glyph-name="aogonek" unicode="&#x105;" horiz-adv-x="571" 
d="M470.5 88.5q9.5 -5.5 38.5 -5.5l-27 -93q-24 0 -34 1q-38 -27 -60.5 -53t-22.5 -54q0 -18 9.5 -27t27.5 -9q31 0 60 13l6 -53q-38 -18 -84 -18q-38 0 -61 18.5t-24 51.5q0 38 29 74.5t71 62.5q-19 6 -31 18.5t-22 36.5q-31 -29 -66.5 -45.5t-82.5 -16.5q-82 0 -130 56.5
t-48 147.5q0 80 34.5 151.5t97 116t142.5 44.5q75 0 115 -49l16 40h99l-58 -344q-4 -21 -4 -38q0 -21 9.5 -26.5zM315 115q32 30 47 76t15 96q0 60 -23.5 91.5t-69.5 31.5q-42 0 -75.5 -27t-52.5 -72.5t-19 -99.5q0 -58 24.5 -92t74.5 -34q47 0 79 30z" />
    <glyph glyph-name="aring" unicode="&#xe5;" horiz-adv-x="571" 
d="M67 46.5q-48 56.5 -48 147.5q0 80 34.5 151.5t97 116t142.5 44.5q75 0 115 -49l16 40h99l-58 -344q-4 -21 -4 -38q0 -21 9.5 -26.5t38.5 -5.5l-27 -93q-47 0 -71.5 4.5t-39 17.5t-25.5 40q-31 -29 -66.5 -45.5t-82.5 -16.5q-82 0 -130 56.5zM315 115q32 30 47 76t15 96
q0 60 -23.5 91.5t-69.5 31.5q-42 0 -75.5 -27t-52.5 -72.5t-19 -99.5q0 -58 24.5 -92t74.5 -34q47 0 79 30zM279.5 591.5q-22.5 22.5 -22.5 56.5q0 32 17 59t45 43t61 16q41 0 63.5 -22t22.5 -56q0 -50 -36 -84.5t-87 -34.5q-41 0 -63.5 22.5zM390.5 636.5
q16.5 17.5 16.5 41.5q0 17 -10 27.5t-26 10.5q-22 0 -39 -18t-17 -41q0 -17 10 -27.5t27 -10.5q22 0 38.5 17.5z" />
    <glyph glyph-name="aringacute" unicode="&#x1fb;" horiz-adv-x="571" 
d="M67 46.5q-48 56.5 -48 147.5q0 80 34.5 151.5t97 116t142.5 44.5q75 0 115 -49l16 40h99l-58 -344q-4 -21 -4 -38q0 -21 9.5 -26.5t38.5 -5.5l-27 -93q-47 0 -71.5 4.5t-39 17.5t-25.5 40q-31 -29 -66.5 -45.5t-82.5 -16.5q-82 0 -130 56.5zM315 115q32 30 47 76t15 96
q0 60 -23.5 91.5t-69.5 31.5q-42 0 -75.5 -27t-52.5 -72.5t-19 -99.5q0 -58 24.5 -92t74.5 -34q47 0 79 30zM277 574.5q-23 22.5 -23 57.5q0 48 34.5 81.5t82.5 33.5q41 0 63.5 -23t22.5 -58q0 -48 -34 -81t-82 -33q-41 0 -64 22.5zM384.5 618.5q15.5 17.5 15.5 39.5
q-1 17 -10.5 28t-25.5 11q-21 0 -36.5 -17t-15.5 -40q0 -18 10 -28.5t25 -10.5q22 0 37.5 17.5zM304 847l187 95l-17 -108l-180 -58z" />
    <glyph glyph-name="atilde" unicode="&#xe3;" horiz-adv-x="571" 
d="M67 46.5q-48 56.5 -48 147.5q0 80 34.5 151.5t97 116t142.5 44.5q75 0 115 -49l16 40h99l-58 -344q-4 -21 -4 -38q0 -21 9.5 -26.5t38.5 -5.5l-27 -93q-47 0 -71.5 4.5t-39 17.5t-25.5 40q-31 -29 -66.5 -45.5t-82.5 -16.5q-82 0 -130 56.5zM315 115q32 30 47 76t15 96
q0 60 -23.5 91.5t-69.5 31.5q-42 0 -75.5 -27t-52.5 -72.5t-19 -99.5q0 -58 24.5 -92t74.5 -34q47 0 79 30zM400.5 584.5q-16.5 5.5 -39.5 16.5q-42 21 -62 21q-16 0 -26.5 -9.5t-13.5 -25.5h-77q10 57 37 87.5t68 30.5q17 0 33.5 -6.5t37.5 -17.5q15 -8 30.5 -14t27.5 -6
q32 0 38 39h79q-11 -62 -36 -91.5t-65 -29.5q-15 0 -31.5 5.5z" />
    <glyph glyph-name="ae" unicode="&#xe6;" horiz-adv-x="756" 
d="M25 15.5q-34 30.5 -34 83.5q0 115 93.5 160.5t210.5 52.5q0 36 -5 56t-20.5 29.5t-46.5 9.5q-30 0 -61.5 -8.5t-72.5 -27.5l6 92q94 43 176 43q57 0 88.5 -21.5t36.5 -77.5q20 43 71 71t111 28q71 0 112.5 -45.5t41.5 -123.5q0 -26 -5.5 -50t-18.5 -57h-300l-1 -17
q0 -8 2 -22q5 -53 35.5 -80.5t74.5 -27.5q33 0 75.5 11.5t74.5 28.5l-10 -94q-76 -39 -163 -39q-70 0 -113.5 25.5t-57.5 74.5q-42 -51 -90.5 -78t-111.5 -27q-64 0 -98 30.5zM626 307q3 17 3 31q-1 33 -18 52.5t-54 19.5q-43 0 -79 -27.5t-53 -75.5h201zM211 89
q25 14 45 42.5t27 69.5q4 23 5 34q-39 -1 -79 -12.5t-67.5 -36.5t-27.5 -63q0 -23 13.5 -35.5t35.5 -12.5q23 0 48 14z" />
    <glyph glyph-name="aeacute" unicode="&#x1fd;" horiz-adv-x="756" 
d="M25 15.5q-34 30.5 -34 83.5q0 115 93.5 160.5t210.5 52.5q0 36 -5 56t-20.5 29.5t-46.5 9.5q-30 0 -61.5 -8.5t-72.5 -27.5l6 92q94 43 176 43q57 0 88.5 -21.5t36.5 -77.5q20 43 71 71t111 28q71 0 112.5 -45.5t41.5 -123.5q0 -26 -5.5 -50t-18.5 -57h-300l-1 -17
q0 -8 2 -22q5 -53 35.5 -80.5t74.5 -27.5q33 0 75.5 11.5t74.5 28.5l-10 -94q-76 -39 -163 -39q-70 0 -113.5 25.5t-57.5 74.5q-42 -51 -90.5 -78t-111.5 -27q-64 0 -98 30.5zM626 307q3 17 3 31q-1 33 -18 52.5t-54 19.5q-43 0 -79 -27.5t-53 -75.5h201zM211 89
q25 14 45 42.5t27 69.5q4 23 5 34q-39 -1 -79 -12.5t-67.5 -36.5t-27.5 -63q0 -23 13.5 -35.5t35.5 -12.5q23 0 48 14zM366 650l196 107l-18 -121l-194 -64z" />
    <glyph glyph-name="b" unicode="b" horiz-adv-x="548" 
d="M126 61l-16 -61h-102l132 750h115l-53 -298q27 27 62 40.5t71 13.5q85 0 131.5 -59.5t46.5 -151.5q0 -84 -31 -153.5t-87 -110.5t-129 -41q-93 0 -140 71zM326.5 111.5q32.5 26.5 50.5 72.5t18 100q0 58 -23 92t-69 34q-44 0 -78 -27t-52 -73.5t-18 -102.5
q0 -122 98 -122q41 0 73.5 26.5z" />
    <glyph glyph-name="c" unicode="c" horiz-adv-x="431" 
d="M67.5 48q-47.5 58 -47.5 152q0 81 33.5 151t98.5 112.5t155 42.5q79 0 128 -35l-28 -98q-50 37 -101 37q-52 0 -90 -26.5t-58 -71t-20 -99.5q0 -61 27 -94.5t84 -33.5q55 0 114 38l-6 -98q-61 -35 -143 -35q-99 0 -146.5 58z" />
    <glyph glyph-name="cacute" unicode="&#x107;" horiz-adv-x="431" 
d="M67.5 48q-47.5 58 -47.5 152q0 81 33.5 151t98.5 112.5t155 42.5q79 0 128 -35l-28 -98q-50 37 -101 37q-52 0 -90 -26.5t-58 -71t-20 -99.5q0 -61 27 -94.5t84 -33.5q55 0 114 38l-6 -98q-61 -35 -143 -35q-99 0 -146.5 58zM256 650l196 107l-18 -121l-194 -64z" />
    <glyph glyph-name="ccaron" unicode="&#x10d;" horiz-adv-x="431" 
d="M67.5 48q-47.5 58 -47.5 152q0 81 33.5 151t98.5 112.5t155 42.5q79 0 128 -35l-28 -98q-50 37 -101 37q-52 0 -90 -26.5t-58 -71t-20 -99.5q0 -61 27 -94.5t84 -33.5q55 0 114 38l-6 -98q-61 -35 -143 -35q-99 0 -146.5 58zM217 670l15 74l114 -82l141 82l-15 -84
l-146 -101z" />
    <glyph glyph-name="ccedilla" unicode="&#xe7;" horiz-adv-x="431" 
d="M216 383.5q-38 -26.5 -58 -71t-20 -99.5q0 -61 27 -94.5t84 -33.5q55 0 114 38l-6 -98q-48 -28 -115 -34l-22 -45h7q35 0 55.5 -18.5t20.5 -51.5q0 -49 -37 -80t-92 -31q-46 0 -78 19l28 56q32 -17 61 -17q26 0 40.5 11t14.5 29q0 15 -11.5 23t-33.5 8q-23 0 -50 -7
l44 104q-86 8 -127.5 64.5t-41.5 144.5q0 81 33.5 151t98.5 112.5t155 42.5q79 0 128 -35l-28 -98q-50 37 -101 37q-52 0 -90 -26.5z" />
    <glyph glyph-name="uni1E09" unicode="&#x1e09;" horiz-adv-x="431" 
d="M434 636l-194 -64l16 78l196 107zM53.5 351q33.5 70 98.5 112.5t155 42.5q79 0 128 -35l-28 -98q-50 37 -101 37q-52 0 -90 -26.5t-58 -71t-20 -99.5q0 -61 27 -94.5t84 -33.5q55 0 114 38l-6 -98q-48 -28 -115 -34l-22 -45h7q35 0 55.5 -18.5t20.5 -51.5q0 -49 -37 -80
t-92 -31q-46 0 -78 19l28 56q32 -17 61 -17q26 0 40.5 11t14.5 29q0 15 -11.5 23t-33.5 8q-23 0 -50 -7l44 104q-86 8 -127.5 64.5t-41.5 144.5q0 81 33.5 151z" />
    <glyph glyph-name="ccircumflex" unicode="&#x109;" horiz-adv-x="431" 
d="M67.5 48q-47.5 58 -47.5 152q0 81 33.5 151t98.5 112.5t155 42.5q79 0 128 -35l-28 -98q-50 37 -101 37q-52 0 -90 -26.5t-58 -71t-20 -99.5q0 -61 27 -94.5t84 -33.5q55 0 114 38l-6 -98q-61 -35 -143 -35q-99 0 -146.5 58zM231 644l131 98l108 -111l-15 -74l-113 82
l-128 -71z" />
    <glyph glyph-name="cdotaccent" unicode="&#x10b;" horiz-adv-x="431" 
d="M67.5 48q-47.5 58 -47.5 152q0 81 33.5 151t98.5 112.5t155 42.5q79 0 128 -35l-28 -98q-50 37 -101 37q-52 0 -90 -26.5t-58 -71t-20 -99.5q0 -61 27 -94.5t84 -33.5q55 0 114 38l-6 -98q-61 -35 -143 -35q-99 0 -146.5 58zM303 694h97l-18 -95h-97z" />
    <glyph glyph-name="d" unicode="d" horiz-adv-x="549" 
d="M569 750l-132 -750h-107l8 56q-68 -66 -145 -66q-82 0 -128 57.5t-46 146.5q0 80 32 151.5t90 116t134 44.5q84 0 125 -63l55 307h114zM309 113.5q33 28.5 50.5 74.5t17.5 99q0 58 -23 90.5t-70 32.5q-42 0 -75.5 -27.5t-52.5 -73.5t-19 -101q0 -57 23.5 -90t71.5 -33
q44 0 77 28.5z" />
    <glyph glyph-name="eth" unicode="&#xf0;" horiz-adv-x="496" 
d="M379 574q77 -104 77 -246q0 -100 -32 -177.5t-91 -120.5t-138 -43q-57 0 -100.5 24t-67 66.5t-23.5 95.5q0 67 29 125t81.5 93t119.5 35q44 0 74 -17t48 -44q0 97 -52 176l-121 -51l-30 63l103 44q-31 29 -76 52l36 52q63 -27 114 -72l101 43l29 -64zM266 100
q28 17 45.5 50t17.5 78q0 49 -22 77t-64 28q-38 0 -66.5 -20.5t-44 -54.5t-15.5 -72q0 -46 23.5 -74.5t67.5 -28.5q30 0 58 17z" />
    <glyph glyph-name="dcaron" unicode="&#x10f;" horiz-adv-x="594" 
d="M569 750l-132 -750h-107l8 56q-68 -66 -145 -66q-82 0 -128 57.5t-46 146.5q0 80 32 151.5t90 116t134 44.5q84 0 125 -63l55 307h114zM309 113.5q33 28.5 50.5 74.5t17.5 99q0 58 -23 90.5t-70 32.5q-42 0 -75.5 -27.5t-52.5 -73.5t-19 -101q0 -57 23.5 -90t71.5 -33
q44 0 77 28.5zM605 750h96l-60 -174h-67z" />
    <glyph glyph-name="dcroat" unicode="&#x111;" horiz-adv-x="549" 
d="M595 591h-54l-104 -591h-107l8 56q-68 -66 -145 -66q-82 0 -128 57.5t-46 146.5q0 80 32 151.5t90 116t134 44.5q84 0 125 -63l27 148h-117l13 77h117l15 82h114l-14 -82h53zM309 113.5q33 28.5 50.5 74.5t17.5 99q0 58 -23 90.5t-70 32.5q-42 0 -75.5 -27.5t-52.5 -73.5
t-19 -101q0 -57 23.5 -90t71.5 -33q44 0 77 28.5z" />
    <glyph glyph-name="uni1E0D" unicode="&#x1e0d;" horiz-adv-x="549" 
d="M569 750l-132 -750h-107l8 56q-68 -66 -145 -66q-82 0 -128 57.5t-46 146.5q0 80 32 151.5t90 116t134 44.5q84 0 125 -63l55 307h114zM309 113.5q33 28.5 50.5 74.5t17.5 99q0 58 -23 90.5t-70 32.5q-42 0 -75.5 -27.5t-52.5 -73.5t-19 -101q0 -57 23.5 -90t71.5 -33
q44 0 77 28.5zM213 -81h97l-18 -95h-97z" />
    <glyph glyph-name="uni1E0F" unicode="&#x1e0f;" horiz-adv-x="549" 
d="M569 750l-132 -750h-107l8 56q-68 -66 -145 -66q-82 0 -128 57.5t-46 146.5q0 80 32 151.5t90 116t134 44.5q84 0 125 -63l55 307h114zM309 113.5q33 28.5 50.5 74.5t17.5 99q0 58 -23 90.5t-70 32.5q-42 0 -75.5 -27.5t-52.5 -73.5t-19 -101q0 -57 23.5 -90t71.5 -33
q44 0 77 28.5zM101 -91h317l-15 -78h-318z" />
    <glyph glyph-name="uni01C6" unicode="&#x1c6;" horiz-adv-x="1001" 
d="M569 750l-132 -750h-107l8 56q-68 -66 -145 -66q-82 0 -128 57.5t-46 146.5q0 80 32 151.5t90 116t134 44.5q84 0 125 -63l55 307h114zM309 113.5q33 28.5 50.5 74.5t17.5 99q0 58 -23 90.5t-70 32.5q-42 0 -75.5 -27.5t-52.5 -73.5t-19 -101q0 -57 23.5 -90t71.5 -33
q44 0 77 28.5zM807 399h-207l18 98h396l-286 -399h206l-18 -98h-395zM719 670l15 74l114 -82l141 82l-15 -84l-146 -101z" />
    <glyph glyph-name="e" unicode="e" horiz-adv-x="479" 
d="M73.5 49.5q-54.5 59.5 -54.5 154.5q0 78 35 147.5t98 112t144 42.5q76 0 117 -37.5t41 -101.5q0 -79 -63.5 -122t-171.5 -43q-50 0 -80 7q2 -66 35.5 -95t83.5 -29q76 0 150 38l-11 -95q-32 -17 -74 -27.5t-89 -10.5q-106 0 -160.5 59.5zM321 301q36 24 36 58
q0 29 -20.5 40t-46.5 11q-51 0 -88 -37.5t-53 -89.5q20 -6 53 -6q83 0 119 24z" />
    <glyph glyph-name="eacute" unicode="&#xe9;" horiz-adv-x="479" 
d="M73.5 49.5q-54.5 59.5 -54.5 154.5q0 78 35 147.5t98 112t144 42.5q76 0 117 -37.5t41 -101.5q0 -79 -63.5 -122t-171.5 -43q-50 0 -80 7q2 -66 35.5 -95t83.5 -29q76 0 150 38l-11 -95q-32 -17 -74 -27.5t-89 -10.5q-106 0 -160.5 59.5zM321 301q36 24 36 58
q0 29 -20.5 40t-46.5 11q-51 0 -88 -37.5t-53 -89.5q20 -6 53 -6q83 0 119 24zM247 650l196 107l-18 -121l-194 -64z" />
    <glyph glyph-name="ebreve" unicode="&#x115;" horiz-adv-x="479" 
d="M73.5 49.5q-54.5 59.5 -54.5 154.5q0 78 35 147.5t98 112t144 42.5q76 0 117 -37.5t41 -101.5q0 -79 -63.5 -122t-171.5 -43q-50 0 -80 7q2 -66 35.5 -95t83.5 -29q76 0 150 38l-11 -95q-32 -17 -74 -27.5t-89 -10.5q-106 0 -160.5 59.5zM321 301q36 24 36 58
q0 29 -20.5 40t-46.5 11q-51 0 -88 -37.5t-53 -89.5q20 -6 53 -6q83 0 119 24zM234 614.5q-35 30.5 -35 77.5q0 16 4 27h79q-2 -10 -2 -16q0 -23 14.5 -35t41.5 -12q31 0 52.5 16.5t26.5 46.5h88q-14 -62 -58.5 -98.5t-114.5 -36.5q-61 0 -96 30.5z" />
    <glyph glyph-name="ecaron" unicode="&#x11b;" horiz-adv-x="479" 
d="M73.5 49.5q-54.5 59.5 -54.5 154.5q0 78 35 147.5t98 112t144 42.5q76 0 117 -37.5t41 -101.5q0 -79 -63.5 -122t-171.5 -43q-50 0 -80 7q2 -66 35.5 -95t83.5 -29q76 0 150 38l-11 -95q-32 -17 -74 -27.5t-89 -10.5q-106 0 -160.5 59.5zM321 301q36 24 36 58
q0 29 -20.5 40t-46.5 11q-51 0 -88 -37.5t-53 -89.5q20 -6 53 -6q83 0 119 24zM208 670l15 74l114 -82l141 82l-15 -84l-146 -101z" />
    <glyph glyph-name="uni1E1D" unicode="&#x1e1d;" horiz-adv-x="479" 
d="M503 719q-14 -62 -58.5 -98.5t-114.5 -36.5q-61 0 -96 30.5t-35 77.5q0 16 4 27h79q-2 -10 -2 -16q0 -23 14.5 -35t41.5 -12q31 0 52.5 16.5t26.5 46.5h88zM413 468.5q41 -37.5 41 -101.5q0 -79 -63.5 -122t-171.5 -43q-50 0 -80 7q2 -66 35.5 -95t83.5 -29q76 0 150 38
l-11 -95q-54 -30 -126 -36l-22 -46h7q35 0 55.5 -18.5t20.5 -51.5q0 -49 -37 -80t-92 -31q-46 0 -78 19l28 56q32 -17 61 -17q26 0 40.5 11t14.5 29q0 15 -11.5 23t-33.5 8q-23 0 -50 -7l44 103q-99 5 -149 63.5t-50 150.5q0 78 35 147.5t98 112t144 42.5q76 0 117 -37.5z
M321 301q36 24 36 58q0 29 -20.5 40t-46.5 11q-51 0 -88 -37.5t-53 -89.5q20 -6 53 -6q83 0 119 24z" />
    <glyph glyph-name="ecircumflex" unicode="&#xea;" horiz-adv-x="479" 
d="M73.5 49.5q-54.5 59.5 -54.5 154.5q0 78 35 147.5t98 112t144 42.5q76 0 117 -37.5t41 -101.5q0 -79 -63.5 -122t-171.5 -43q-50 0 -80 7q2 -66 35.5 -95t83.5 -29q76 0 150 38l-11 -95q-32 -17 -74 -27.5t-89 -10.5q-106 0 -160.5 59.5zM321 301q36 24 36 58
q0 29 -20.5 40t-46.5 11q-51 0 -88 -37.5t-53 -89.5q20 -6 53 -6q83 0 119 24zM222 644l131 98l108 -111l-15 -74l-113 82l-128 -71z" />
    <glyph glyph-name="uni1EBF" unicode="&#x1ebf;" horiz-adv-x="479" 
d="M73.5 49.5q-54.5 59.5 -54.5 154.5q0 78 35 147.5t98 112t144 42.5q76 0 117 -37.5t41 -101.5q0 -79 -63.5 -122t-171.5 -43q-50 0 -80 7q2 -66 35.5 -95t83.5 -29q76 0 150 38l-11 -95q-32 -17 -74 -27.5t-89 -10.5q-106 0 -160.5 59.5zM321 301q36 24 36 58
q0 29 -20.5 40t-46.5 11q-51 0 -88 -37.5t-53 -89.5q20 -6 53 -6q83 0 119 24zM476 816h109l-112 -115h-74zM327 622l-120 -59l13 70l124 80l113 -92l-12 -70z" />
    <glyph glyph-name="uni1EC7" unicode="&#x1ec7;" horiz-adv-x="479" 
d="M73.5 49.5q-54.5 59.5 -54.5 154.5q0 78 35 147.5t98 112t144 42.5q76 0 117 -37.5t41 -101.5q0 -79 -63.5 -122t-171.5 -43q-50 0 -80 7q2 -66 35.5 -95t83.5 -29q76 0 150 38l-11 -95q-32 -17 -74 -27.5t-89 -10.5q-106 0 -160.5 59.5zM321 301q36 24 36 58
q0 29 -20.5 40t-46.5 11q-51 0 -88 -37.5t-53 -89.5q20 -6 53 -6q83 0 119 24zM222 644l131 98l108 -111l-15 -74l-113 82l-128 -71zM184 -81h97l-18 -95h-97z" />
    <glyph glyph-name="uni1EC1" unicode="&#x1ec1;" horiz-adv-x="479" 
d="M73.5 49.5q-54.5 59.5 -54.5 154.5q0 78 35 147.5t98 112t144 42.5q76 0 117 -37.5t41 -101.5q0 -79 -63.5 -122t-171.5 -43q-50 0 -80 7q2 -66 35.5 -95t83.5 -29q76 0 150 38l-11 -95q-32 -17 -74 -27.5t-89 -10.5q-106 0 -160.5 59.5zM321 301q36 24 36 58
q0 29 -20.5 40t-46.5 11q-51 0 -88 -37.5t-53 -89.5q20 -6 53 -6q83 0 119 24zM346 825h103l31 -124h-72zM326 622l-120 -59l13 70l124 80l113 -92l-12 -70z" />
    <glyph glyph-name="uni1EC3" unicode="&#x1ec3;" horiz-adv-x="479" 
d="M73.5 49.5q-54.5 59.5 -54.5 154.5q0 78 35 147.5t98 112t144 42.5q76 0 117 -37.5t41 -101.5q0 -79 -63.5 -122t-171.5 -43q-50 0 -80 7q2 -66 35.5 -95t83.5 -29q76 0 150 38l-11 -95q-32 -17 -74 -27.5t-89 -10.5q-106 0 -160.5 59.5zM321 301q36 24 36 58
q0 29 -20.5 40t-46.5 11q-51 0 -88 -37.5t-53 -89.5q20 -6 53 -6q83 0 119 24zM416 712q43 10 43 39q0 25 -34 25q-25 0 -62 -16l-7 58q40 16 82 16q38 0 61.5 -18t23.5 -49q0 -37 -27 -61.5t-77 -36.5zM326 615l-120 -59l13 70l124 80l113 -92l-12 -70z" />
    <glyph glyph-name="uni1EC5" unicode="&#x1ec5;" horiz-adv-x="479" 
d="M73.5 49.5q-54.5 59.5 -54.5 154.5q0 78 35 147.5t98 112t144 42.5q76 0 117 -37.5t41 -101.5q0 -79 -63.5 -122t-171.5 -43q-50 0 -80 7q2 -66 35.5 -95t83.5 -29q76 0 150 38l-11 -95q-32 -17 -74 -27.5t-89 -10.5q-106 0 -160.5 59.5zM321 301q36 24 36 58
q0 29 -20.5 40t-46.5 11q-51 0 -88 -37.5t-53 -89.5q20 -6 53 -6q83 0 119 24zM400 738q-15 5 -40 16q-15 7 -31 12.5t-27 5.5q-13 0 -22 -8.5t-11 -23.5h-73q20 103 98 103q15 0 31 -5t38 -15q15 -7 31 -12.5t27 -5.5q28 0 34 33h72q-7 -51 -32.5 -78t-64.5 -27
q-15 0 -30 5zM326 615l-120 -59l13 70l124 80l113 -92l-12 -70z" />
    <glyph glyph-name="uni0205" unicode="&#x205;" horiz-adv-x="479" 
d="M73.5 49.5q-54.5 59.5 -54.5 154.5q0 78 35 147.5t98 112t144 42.5q76 0 117 -37.5t41 -101.5q0 -79 -63.5 -122t-171.5 -43q-50 0 -80 7q2 -66 35.5 -95t83.5 -29q76 0 150 38l-11 -95q-32 -17 -74 -27.5t-89 -10.5q-106 0 -160.5 59.5zM321 301q36 24 36 58
q0 29 -20.5 40t-46.5 11q-51 0 -88 -37.5t-53 -89.5q20 -6 53 -6q83 0 119 24zM215 585l-76 174h110l41 -174h-75zM359 585l-68 174h110l33 -174h-75z" />
    <glyph glyph-name="edieresis" unicode="&#xeb;" horiz-adv-x="479" 
d="M73.5 49.5q-54.5 59.5 -54.5 154.5q0 78 35 147.5t98 112t144 42.5q76 0 117 -37.5t41 -101.5q0 -79 -63.5 -122t-171.5 -43q-50 0 -80 7q2 -66 35.5 -95t83.5 -29q76 0 150 38l-11 -95q-32 -17 -74 -27.5t-89 -10.5q-106 0 -160.5 59.5zM321 301q36 24 36 58
q0 29 -20.5 40t-46.5 11q-51 0 -88 -37.5t-53 -89.5q20 -6 53 -6q83 0 119 24zM197 678h91l-17 -87h-91zM391 678h91l-17 -87h-91z" />
    <glyph glyph-name="edotaccent" unicode="&#x117;" horiz-adv-x="479" 
d="M73.5 49.5q-54.5 59.5 -54.5 154.5q0 78 35 147.5t98 112t144 42.5q76 0 117 -37.5t41 -101.5q0 -79 -63.5 -122t-171.5 -43q-50 0 -80 7q2 -66 35.5 -95t83.5 -29q76 0 150 38l-11 -95q-32 -17 -74 -27.5t-89 -10.5q-106 0 -160.5 59.5zM321 301q36 24 36 58
q0 29 -20.5 40t-46.5 11q-51 0 -88 -37.5t-53 -89.5q20 -6 53 -6q83 0 119 24zM294 694h97l-18 -95h-97z" />
    <glyph glyph-name="uni1EB9" unicode="&#x1eb9;" horiz-adv-x="479" 
d="M73.5 49.5q-54.5 59.5 -54.5 154.5q0 78 35 147.5t98 112t144 42.5q76 0 117 -37.5t41 -101.5q0 -79 -63.5 -122t-171.5 -43q-50 0 -80 7q2 -66 35.5 -95t83.5 -29q76 0 150 38l-11 -95q-32 -17 -74 -27.5t-89 -10.5q-106 0 -160.5 59.5zM321 301q36 24 36 58
q0 29 -20.5 40t-46.5 11q-51 0 -88 -37.5t-53 -89.5q20 -6 53 -6q83 0 119 24zM184 -81h97l-18 -95h-97z" />
    <glyph glyph-name="egrave" unicode="&#xe8;" horiz-adv-x="479" 
d="M73.5 49.5q-54.5 59.5 -54.5 154.5q0 78 35 147.5t98 112t144 42.5q76 0 117 -37.5t41 -101.5q0 -79 -63.5 -122t-171.5 -43q-50 0 -80 7q2 -66 35.5 -95t83.5 -29q76 0 150 38l-11 -95q-32 -17 -74 -27.5t-89 -10.5q-106 0 -160.5 59.5zM321 301q36 24 36 58
q0 29 -20.5 40t-46.5 11q-51 0 -88 -37.5t-53 -89.5q20 -6 53 -6q83 0 119 24zM238 646l20 110l165 -111l-13 -73z" />
    <glyph glyph-name="uni1EBB" unicode="&#x1ebb;" horiz-adv-x="479" 
d="M73.5 49.5q-54.5 59.5 -54.5 154.5q0 78 35 147.5t98 112t144 42.5q76 0 117 -37.5t41 -101.5q0 -79 -63.5 -122t-171.5 -43q-50 0 -80 7q2 -66 35.5 -95t83.5 -29q76 0 150 38l-11 -95q-32 -17 -74 -27.5t-89 -10.5q-106 0 -160.5 59.5zM321 301q36 24 36 58
q0 29 -20.5 40t-46.5 11q-51 0 -88 -37.5t-53 -89.5q20 -6 53 -6q83 0 119 24zM340.5 605q13.5 15 13.5 34q0 13 -8 20t-23 7q-25 0 -66 -18l-6 56q43 18 83 18q37 0 60 -18t24 -51q0 -37 -23.5 -65t-67.5 -57l-29 36q29 23 42.5 38z" />
    <glyph glyph-name="uni0207" unicode="&#x207;" horiz-adv-x="479" 
d="M73.5 49.5q-54.5 59.5 -54.5 154.5q0 78 35 147.5t98 112t144 42.5q76 0 117 -37.5t41 -101.5q0 -79 -63.5 -122t-171.5 -43q-50 0 -80 7q2 -66 35.5 -95t83.5 -29q76 0 150 38l-11 -95q-32 -17 -74 -27.5t-89 -10.5q-106 0 -160.5 59.5zM321 301q36 24 36 58
q0 29 -20.5 40t-46.5 11q-51 0 -88 -37.5t-53 -89.5q20 -6 53 -6q83 0 119 24zM440 688q34 -31 34 -80q0 -8 -2 -24h-82q1 6 1 13q0 24 -16 37t-43 13q-31 0 -52.5 -16.5t-26.5 -46.5h-84q9 57 57 96t118 39q62 0 96 -31z" />
    <glyph glyph-name="emacron" unicode="&#x113;" horiz-adv-x="479" 
d="M73.5 49.5q-54.5 59.5 -54.5 154.5q0 78 35 147.5t98 112t144 42.5q76 0 117 -37.5t41 -101.5q0 -79 -63.5 -122t-171.5 -43q-50 0 -80 7q2 -66 35.5 -95t83.5 -29q76 0 150 38l-11 -95q-32 -17 -74 -27.5t-89 -10.5q-106 0 -160.5 59.5zM321 301q36 24 36 58
q0 29 -20.5 40t-46.5 11q-51 0 -88 -37.5t-53 -89.5q20 -6 53 -6q83 0 119 24zM182 676h317l-15 -78h-318z" />
    <glyph glyph-name="uni1E17" unicode="&#x1e17;" horiz-adv-x="479" 
d="M73.5 49.5q-54.5 59.5 -54.5 154.5q0 78 35 147.5t98 112t144 42.5q76 0 117 -37.5t41 -101.5q0 -79 -63.5 -122t-171.5 -43q-50 0 -80 7q2 -66 35.5 -95t83.5 -29q76 0 150 38l-11 -95q-32 -17 -74 -27.5t-89 -10.5q-106 0 -160.5 59.5zM321 301q36 24 36 58
q0 29 -20.5 40t-46.5 11q-51 0 -88 -37.5t-53 -89.5q20 -6 53 -6q83 0 119 24zM175 664h319l-14 -74h-318zM276 794l187 95l-17 -108l-180 -58z" />
    <glyph glyph-name="uni1E15" unicode="&#x1e15;" horiz-adv-x="479" 
d="M73.5 49.5q-54.5 59.5 -54.5 154.5q0 78 35 147.5t98 112t144 42.5q76 0 117 -37.5t41 -101.5q0 -79 -63.5 -122t-171.5 -43q-50 0 -80 7q2 -66 35.5 -95t83.5 -29q76 0 150 38l-11 -95q-32 -17 -74 -27.5t-89 -10.5q-106 0 -160.5 59.5zM321 301q36 24 36 58
q0 29 -20.5 40t-46.5 11q-51 0 -88 -37.5t-53 -89.5q20 -6 53 -6q83 0 119 24zM175 664h319l-14 -74h-318zM267 781l19 102l168 -95l-13 -65z" />
    <glyph glyph-name="eogonek" unicode="&#x119;" horiz-adv-x="479" 
d="M390.5 245q-63.5 -43 -171.5 -43q-50 0 -80 7q2 -66 35.5 -95t83.5 -29q76 0 150 38l-11 -95l-5 -3q-41 -28 -67 -55.5t-26 -57.5q0 -18 9.5 -27t27.5 -9q31 0 60 13l6 -53q-38 -18 -84 -18q-38 0 -61 18.5t-24 51.5q0 53 58 106q-24 -4 -57 -4q-106 0 -160.5 59.5
t-54.5 154.5q0 78 35 147.5t98 112t144 42.5q76 0 117 -37.5t41 -101.5q0 -79 -63.5 -122zM202 277q83 0 119 24t36 58q0 29 -20.5 40t-46.5 11q-51 0 -88 -37.5t-53 -89.5q20 -6 53 -6z" />
    <glyph glyph-name="uni1EBD" unicode="&#x1ebd;" horiz-adv-x="479" 
d="M73.5 49.5q-54.5 59.5 -54.5 154.5q0 78 35 147.5t98 112t144 42.5q76 0 117 -37.5t41 -101.5q0 -79 -63.5 -122t-171.5 -43q-50 0 -80 7q2 -66 35.5 -95t83.5 -29q76 0 150 38l-11 -95q-32 -17 -74 -27.5t-89 -10.5q-106 0 -160.5 59.5zM321 301q36 24 36 58
q0 29 -20.5 40t-46.5 11q-51 0 -88 -37.5t-53 -89.5q20 -6 53 -6q83 0 119 24zM376.5 584.5q-16.5 5.5 -39.5 16.5q-42 21 -62 21q-16 0 -26.5 -9.5t-13.5 -25.5h-77q10 57 37 87.5t68 30.5q17 0 33.5 -6.5t37.5 -17.5q15 -8 30.5 -14t27.5 -6q32 0 38 39h79
q-11 -62 -36 -91.5t-65 -29.5q-15 0 -31.5 5.5z" />
    <glyph glyph-name="f" unicode="f" horiz-adv-x="325" 
d="M106 405h-68l27 92h57l21 120q10 60 46 96.5t111 36.5q23 0 84 -8l-28 -95q-25 6 -43 6q-23 0 -34 -7.5t-17.5 -25.5t-13.5 -57l-12 -66h106l-16 -92h-106l-71 -405h-114z" />
    <glyph glyph-name="g" unicode="g" horiz-adv-x="479" 
d="M41 -231.5q-45 18.5 -65.5 48t-20.5 63.5q0 38 25.5 71.5t74.5 57.5q-15 11 -23.5 26.5t-8.5 32.5q0 49 61 80q-24 23 -36 57t-12 72q0 60 28 112.5t80 84.5t119 32q66 0 104 -32q18 10 46.5 17t59.5 7h28l-20 -73h-41q-12 0 -29 -3q13 -33 13 -79q0 -59 -28 -111.5
t-80 -85t-119 -32.5q-26 0 -52 6q-14 -10 -14 -23q0 -16 24.5 -23.5t87.5 -18.5q71 -11 118.5 -37.5t47.5 -91.5q0 -48 -31 -88.5t-89 -64t-135 -23.5q-68 0 -113 18.5zM291 238q30 40 30 96q0 86 -73 86q-50 0 -79.5 -39t-29.5 -96q0 -42 18 -64.5t54 -22.5q50 0 80 40z
M263 -145.5q41 21.5 41 53.5q0 30 -34 43.5t-93 21.5q-41 7 -44 8q-34 -11 -57 -32.5t-23 -49.5q0 -30 29 -48t81 -18q59 0 100 21.5z" />
    <glyph glyph-name="gbreve" unicode="&#x11f;" horiz-adv-x="479" 
d="M41 -231.5q-45 18.5 -65.5 48t-20.5 63.5q0 38 25.5 71.5t74.5 57.5q-15 11 -23.5 26.5t-8.5 32.5q0 49 61 80q-24 23 -36 57t-12 72q0 60 28 112.5t80 84.5t119 32q66 0 104 -32q18 10 46.5 17t59.5 7h28l-20 -73h-41q-12 0 -29 -3q13 -33 13 -79q0 -59 -28 -111.5
t-80 -85t-119 -32.5q-26 0 -52 6q-14 -10 -14 -23q0 -16 24.5 -23.5t87.5 -18.5q71 -11 118.5 -37.5t47.5 -91.5q0 -48 -31 -88.5t-89 -64t-135 -23.5q-68 0 -113 18.5zM291 238q30 40 30 96q0 86 -73 86q-50 0 -79.5 -39t-29.5 -96q0 -42 18 -64.5t54 -22.5q50 0 80 40z
M263 -145.5q41 21.5 41 53.5q0 30 -34 43.5t-93 21.5q-41 7 -44 8q-34 -11 -57 -32.5t-23 -49.5q0 -30 29 -48t81 -18q59 0 100 21.5zM185 614.5q-35 30.5 -35 77.5q0 16 4 27h79q-2 -10 -2 -16q0 -23 14.5 -35t41.5 -12q31 0 52.5 16.5t26.5 46.5h88q-14 -62 -58.5 -98.5
t-114.5 -36.5q-61 0 -96 30.5z" />
    <glyph glyph-name="gcaron" unicode="&#x1e7;" horiz-adv-x="479" 
d="M41 -231.5q-45 18.5 -65.5 48t-20.5 63.5q0 38 25.5 71.5t74.5 57.5q-15 11 -23.5 26.5t-8.5 32.5q0 49 61 80q-24 23 -36 57t-12 72q0 60 28 112.5t80 84.5t119 32q66 0 104 -32q18 10 46.5 17t59.5 7h28l-20 -73h-41q-12 0 -29 -3q13 -33 13 -79q0 -59 -28 -111.5
t-80 -85t-119 -32.5q-26 0 -52 6q-14 -10 -14 -23q0 -16 24.5 -23.5t87.5 -18.5q71 -11 118.5 -37.5t47.5 -91.5q0 -48 -31 -88.5t-89 -64t-135 -23.5q-68 0 -113 18.5zM291 238q30 40 30 96q0 86 -73 86q-50 0 -79.5 -39t-29.5 -96q0 -42 18 -64.5t54 -22.5q50 0 80 40z
M263 -145.5q41 21.5 41 53.5q0 30 -34 43.5t-93 21.5q-41 7 -44 8q-34 -11 -57 -32.5t-23 -49.5q0 -30 29 -48t81 -18q59 0 100 21.5zM159 670l15 74l114 -82l141 82l-15 -84l-146 -101z" />
    <glyph glyph-name="gcircumflex" unicode="&#x11d;" horiz-adv-x="479" 
d="M41 -231.5q-45 18.5 -65.5 48t-20.5 63.5q0 38 25.5 71.5t74.5 57.5q-15 11 -23.5 26.5t-8.5 32.5q0 49 61 80q-24 23 -36 57t-12 72q0 60 28 112.5t80 84.5t119 32q66 0 104 -32q18 10 46.5 17t59.5 7h28l-20 -73h-41q-12 0 -29 -3q13 -33 13 -79q0 -59 -28 -111.5
t-80 -85t-119 -32.5q-26 0 -52 6q-14 -10 -14 -23q0 -16 24.5 -23.5t87.5 -18.5q71 -11 118.5 -37.5t47.5 -91.5q0 -48 -31 -88.5t-89 -64t-135 -23.5q-68 0 -113 18.5zM291 238q30 40 30 96q0 86 -73 86q-50 0 -79.5 -39t-29.5 -96q0 -42 18 -64.5t54 -22.5q50 0 80 40z
M263 -145.5q41 21.5 41 53.5q0 30 -34 43.5t-93 21.5q-41 7 -44 8q-34 -11 -57 -32.5t-23 -49.5q0 -30 29 -48t81 -18q59 0 100 21.5zM173 644l131 98l108 -111l-15 -74l-113 82l-128 -71z" />
    <glyph glyph-name="gcommaaccent" unicode="&#x123;" horiz-adv-x="479" 
d="M41 -231.5q-45 18.5 -65.5 48t-20.5 63.5q0 38 25.5 71.5t74.5 57.5q-15 11 -23.5 26.5t-8.5 32.5q0 49 61 80q-24 23 -36 57t-12 72q0 60 28 112.5t80 84.5t119 32q66 0 104 -32q18 10 46.5 17t59.5 7h28l-20 -73h-41q-12 0 -29 -3q13 -33 13 -79q0 -59 -28 -111.5
t-80 -85t-119 -32.5q-26 0 -52 6q-14 -10 -14 -23q0 -16 24.5 -23.5t87.5 -18.5q71 -11 118.5 -37.5t47.5 -91.5q0 -48 -31 -88.5t-89 -64t-135 -23.5q-68 0 -113 18.5zM291 238q30 40 30 96q0 86 -73 86q-50 0 -79.5 -39t-29.5 -96q0 -42 18 -64.5t54 -22.5q50 0 80 40z
M263 -145.5q41 21.5 41 53.5q0 30 -34 43.5t-93 21.5q-41 7 -44 8q-34 -11 -57 -32.5t-23 -49.5q0 -30 29 -48t81 -18q59 0 100 21.5z" />
    <glyph glyph-name="gdotaccent" unicode="&#x121;" horiz-adv-x="479" 
d="M41 -231.5q-45 18.5 -65.5 48t-20.5 63.5q0 38 25.5 71.5t74.5 57.5q-15 11 -23.5 26.5t-8.5 32.5q0 49 61 80q-24 23 -36 57t-12 72q0 60 28 112.5t80 84.5t119 32q66 0 104 -32q18 10 46.5 17t59.5 7h28l-20 -73h-41q-12 0 -29 -3q13 -33 13 -79q0 -59 -28 -111.5
t-80 -85t-119 -32.5q-26 0 -52 6q-14 -10 -14 -23q0 -16 24.5 -23.5t87.5 -18.5q71 -11 118.5 -37.5t47.5 -91.5q0 -48 -31 -88.5t-89 -64t-135 -23.5q-68 0 -113 18.5zM291 238q30 40 30 96q0 86 -73 86q-50 0 -79.5 -39t-29.5 -96q0 -42 18 -64.5t54 -22.5q50 0 80 40z
M263 -145.5q41 21.5 41 53.5q0 30 -34 43.5t-93 21.5q-41 7 -44 8q-34 -11 -57 -32.5t-23 -49.5q0 -30 29 -48t81 -18q59 0 100 21.5zM245 694h97l-18 -95h-97z" />
    <glyph glyph-name="uni1E21" unicode="&#x1e21;" horiz-adv-x="479" 
d="M41 -231.5q-45 18.5 -65.5 48t-20.5 63.5q0 38 25.5 71.5t74.5 57.5q-15 11 -23.5 26.5t-8.5 32.5q0 49 61 80q-24 23 -36 57t-12 72q0 60 28 112.5t80 84.5t119 32q66 0 104 -32q18 10 46.5 17t59.5 7h28l-20 -73h-41q-12 0 -29 -3q13 -33 13 -79q0 -59 -28 -111.5
t-80 -85t-119 -32.5q-26 0 -52 6q-14 -10 -14 -23q0 -16 24.5 -23.5t87.5 -18.5q71 -11 118.5 -37.5t47.5 -91.5q0 -48 -31 -88.5t-89 -64t-135 -23.5q-68 0 -113 18.5zM291 238q30 40 30 96q0 86 -73 86q-50 0 -79.5 -39t-29.5 -96q0 -42 18 -64.5t54 -22.5q50 0 80 40z
M263 -145.5q41 21.5 41 53.5q0 30 -34 43.5t-93 21.5q-41 7 -44 8q-34 -11 -57 -32.5t-23 -49.5q0 -30 29 -48t81 -18q59 0 100 21.5zM133 676h317l-15 -78h-318z" />
    <glyph glyph-name="h" unicode="h" horiz-adv-x="528" 
d="M140 750h114l-52 -300q33 30 65.5 43t71.5 13q66 0 101.5 -42t35.5 -108q0 -41 -9 -96l-45 -260h-114l42 246q11 59 11 89q0 35 -18 55t-52 20q-30 0 -54.5 -12.5t-50.5 -36.5l-64 -361h-114z" />
    <glyph glyph-name="hbar" unicode="&#x127;" horiz-adv-x="528" 
d="M440.5 464q35.5 -42 35.5 -108q0 -41 -9 -96l-45 -260h-114l42 246q11 59 11 89q0 35 -18 55t-52 20q-30 0 -54.5 -12.5t-50.5 -36.5l-64 -361h-114l104 591h-54l13 77h55l14 82h114l-14 -82h116l-13 -77h-117l-24 -141q33 30 65.5 43t71.5 13q66 0 101.5 -42z" />
    <glyph glyph-name="uni1E2B" unicode="&#x1e2b;" horiz-adv-x="528" 
d="M140 750h114l-52 -300q33 30 65.5 43t71.5 13q66 0 101.5 -42t35.5 -108q0 -41 -9 -96l-45 -260h-114l42 246q11 59 11 89q0 35 -18 55t-52 20q-30 0 -54.5 -12.5t-50.5 -36.5l-64 -361h-114zM88 -195.5q-35 30.5 -35 77.5q0 16 4 27h79q-2 -10 -2 -16q0 -23 14.5 -35
t41.5 -12q31 0 52.5 16.5t26.5 46.5h88q-14 -62 -58.5 -98.5t-114.5 -36.5q-61 0 -96 30.5z" />
    <glyph glyph-name="hcircumflex" unicode="&#x125;" horiz-adv-x="528" 
d="M140 750h114l-52 -300q33 30 65.5 43t71.5 13q66 0 101.5 -42t35.5 -108q0 -41 -9 -96l-45 -260h-114l42 246q11 59 11 89q0 35 -18 55t-52 20q-30 0 -54.5 -12.5t-50.5 -36.5l-64 -361h-114zM218 868l-120 -59l13 70l124 80l113 -92l-12 -70z" />
    <glyph glyph-name="uni1E25" unicode="&#x1e25;" horiz-adv-x="528" 
d="M140 750h114l-52 -300q33 30 65.5 43t71.5 13q66 0 101.5 -42t35.5 -108q0 -41 -9 -96l-45 -260h-114l42 246q11 59 11 89q0 35 -18 55t-52 20q-30 0 -54.5 -12.5t-50.5 -36.5l-64 -361h-114zM153 -81h97l-18 -95h-97z" />
    <glyph glyph-name="i" unicode="i" horiz-adv-x="234" 
d="M131 700h115l-21 -117h-114zM95 497h114l-87 -497h-114z" />
    <glyph glyph-name="dotlessi" unicode="&#x131;" horiz-adv-x="234" 
d="M95 497h114l-87 -497h-114z" />
    <glyph glyph-name="iacute" unicode="&#xed;" horiz-adv-x="234" 
d="M95 497h114l-87 -497h-114zM94 650l196 107l-18 -121l-194 -64z" />
    <glyph glyph-name="ibreve" unicode="&#x12d;" horiz-adv-x="234" 
d="M95 497h114l-87 -497h-114zM81 614.5q-35 30.5 -35 77.5q0 16 4 27h79q-2 -10 -2 -16q0 -23 14.5 -35t41.5 -12q31 0 52.5 16.5t26.5 46.5h88q-14 -62 -58.5 -98.5t-114.5 -36.5q-61 0 -96 30.5z" />
    <glyph glyph-name="icircumflex" unicode="&#xee;" horiz-adv-x="234" 
d="M95 497h114l-87 -497h-114zM69 644l131 98l108 -111l-15 -74l-113 82l-128 -71z" />
    <glyph glyph-name="uni0209" unicode="&#x209;" horiz-adv-x="234" 
d="M95 497h114l-87 -497h-114zM62 585l-76 174h110l41 -174h-75zM206 585l-68 174h110l33 -174h-75z" />
    <glyph glyph-name="idieresis" unicode="&#xef;" horiz-adv-x="234" 
d="M95 497h114l-87 -497h-114zM44 678h91l-17 -87h-91zM238 678h91l-17 -87h-91z" />
    <glyph glyph-name="uni1E2F" unicode="&#x1e2f;" horiz-adv-x="234" 
d="M95 497h114l-87 -497h-114zM40 666h91l-15 -83h-91zM232 666h91l-15 -83h-91zM116 782l187 95l-17 -108l-180 -58z" />
    <glyph glyph-name="i.loclTRK" horiz-adv-x="234" 
d="M95 497h114l-87 -497h-114zM141 694h97l-18 -95h-97z" />
    <glyph glyph-name="uni1ECB" unicode="&#x1ecb;" horiz-adv-x="234" 
d="M131 700h115l-21 -117h-114zM95 497h114l-87 -497h-114zM3 -81h97l-18 -95h-97z" />
    <glyph glyph-name="igrave" unicode="&#xec;" horiz-adv-x="234" 
d="M95 497h114l-87 -497h-114zM85 646l20 110l165 -111l-13 -73z" />
    <glyph glyph-name="uni1EC9" unicode="&#x1ec9;" horiz-adv-x="234" 
d="M95 497h114l-87 -497h-114zM187.5 605q13.5 15 13.5 34q0 13 -8 20t-23 7q-25 0 -66 -18l-6 56q43 18 83 18q37 0 60 -18t24 -51q0 -37 -23.5 -65t-67.5 -57l-29 36q29 23 42.5 38z" />
    <glyph glyph-name="uni020B" unicode="&#x20b;" horiz-adv-x="234" 
d="M95 497h114l-87 -497h-114zM287 688q34 -31 34 -80q0 -8 -2 -24h-82q1 6 1 13q0 24 -16 37t-43 13q-31 0 -52.5 -16.5t-26.5 -46.5h-84q9 57 57 96t118 39q62 0 96 -31z" />
    <glyph glyph-name="ij" unicode="&#x133;" horiz-adv-x="468" 
d="M131 700h115l-21 -117h-114zM95 497h114l-87 -497h-114zM366 700h114l-21 -117h-114zM158 -150q28 1 40 6.5t19 22.5t14 57l99 561h114l-107 -607q-11 -60 -47.5 -94.5t-95.5 -35.5l-42 -2z" />
    <glyph glyph-name="imacron" unicode="&#x12b;" horiz-adv-x="234" 
d="M95 497h114l-87 -497h-114zM29 676h317l-15 -78h-318z" />
    <glyph glyph-name="iogonek" unicode="&#x12f;" horiz-adv-x="234" 
d="M95 497h114l-87 -497h-114zM141 694h97l-18 -95h-97zM121 0q-44 -29 -70.5 -57.5t-26.5 -58.5q0 -18 9.5 -27t27.5 -9q31 0 60 13l6 -53q-38 -18 -84 -18q-38 0 -61 18.5t-24 51.5q0 40 30.5 77t73.5 63h59z" />
    <glyph glyph-name="itilde" unicode="&#x129;" horiz-adv-x="234" 
d="M95 497h114l-87 -497h-114zM223.5 584.5q-16.5 5.5 -39.5 16.5q-42 21 -62 21q-16 0 -26.5 -9.5t-13.5 -25.5h-77q10 57 37 87.5t68 30.5q17 0 33.5 -6.5t37.5 -17.5q15 -8 30.5 -14t27.5 -6q32 0 38 39h79q-11 -62 -36 -91.5t-65 -29.5q-15 0 -31.5 5.5z" />
    <glyph glyph-name="j" unicode="j" horiz-adv-x="234" 
d="M132 700h114l-21 -117h-114zM-76 -150q28 1 40 6.5t19 22.5t14 57l99 561h114l-107 -607q-11 -60 -47.5 -94.5t-95.5 -35.5l-42 -2z" />
    <glyph glyph-name="uni0237" unicode="&#x237;" horiz-adv-x="234" 
d="M-76 -150q28 1 40 6t19 22t14 58l99 561h114l-107 -607q-11 -60 -47.5 -94.5t-95.5 -35.5l-42 -2z" />
    <glyph glyph-name="jcircumflex" unicode="&#x135;" horiz-adv-x="234" 
d="M-76 -150q28 1 40 6t19 22t14 58l99 561h114l-107 -607q-11 -60 -47.5 -94.5t-95.5 -35.5l-42 -2zM70 644l131 98l108 -111l-15 -74l-113 82l-128 -71z" />
    <glyph glyph-name="k" unicode="k" horiz-adv-x="464" 
d="M140 750h115l-83 -463l189 210h130l-216 -236l128 -261h-129l-112 230l-40 -230h-114z" />
    <glyph glyph-name="kcommaaccent" unicode="&#x137;" horiz-adv-x="464" 
d="M140 750h115l-83 -463l189 210h130l-216 -236l128 -261h-129l-112 230l-40 -230h-114zM106 -272l48 87h-38l17 94h101l-16 -94l-71 -87h-41z" />
    <glyph glyph-name="kgreenlandic" unicode="&#x138;" horiz-adv-x="491" 
d="M95 497h114l-35 -202l207 202h140l-253 -237l165 -260h-129l-140 238l-42 -238h-114z" />
    <glyph glyph-name="l" unicode="l" horiz-adv-x="255" 
d="M49 16q-25 26 -25 69q0 17 13 89l101 576h114l-102 -585q-7 -38 -7 -48q0 -22 11 -28t39 -6l-27 -93h-41q-51 0 -76 26z" />
    <glyph glyph-name="lacute" unicode="&#x13a;" horiz-adv-x="255" 
d="M49 16q-25 26 -25 69q0 17 13 89l101 576h114l-102 -585q-7 -38 -7 -48q0 -22 11 -28t39 -6l-27 -93h-41q-51 0 -76 26zM132 882l187 95l-17 -108l-180 -58z" />
    <glyph glyph-name="lcaron" unicode="&#x13e;" horiz-adv-x="281" 
d="M49 16q-25 26 -25 69q0 17 13 89l101 576h114l-102 -585q-7 -38 -7 -48q0 -22 11 -28t39 -6l-27 -93h-41q-51 0 -76 26zM290 750h96l-60 -174h-67z" />
    <glyph glyph-name="lcommaaccent" unicode="&#x13c;" horiz-adv-x="255" 
d="M49 16q-25 26 -25 69q0 17 13 89l101 576h114l-102 -585q-7 -38 -7 -48q0 -22 11 -28t39 -6l-27 -93h-41q-51 0 -76 26zM22 -272l48 87h-38l17 94h101l-16 -94l-71 -87h-41z" />
    <glyph glyph-name="ldot" unicode="&#x140;" horiz-adv-x="313" 
d="M49 16q-25 26 -25 69q0 17 13 89l101 576h114l-102 -585q-7 -38 -7 -48q0 -22 11 -28t39 -6l-27 -93h-41q-51 0 -76 26zM255 470h96l-20 -110h-96z" />
    <glyph glyph-name="uni1E37" unicode="&#x1e37;" horiz-adv-x="255" 
d="M49 16q-25 26 -25 69q0 17 13 89l101 576h114l-102 -585q-7 -38 -7 -48q0 -22 11 -28t39 -6l-27 -93h-41q-51 0 -76 26zM52 -81h97l-18 -95h-97z" />
    <glyph glyph-name="uni01C9" unicode="&#x1c9;" horiz-adv-x="489" 
d="M49 16q-25 26 -25 69q0 17 13 89l101 576h114l-102 -585q-7 -38 -7 -48q0 -22 11 -28t39 -6l-27 -93h-41q-51 0 -76 26zM387 700h114l-21 -117h-114zM179 -150q28 1 40 6.5t19 22.5t14 57l99 561h114l-107 -607q-11 -60 -47.5 -94.5t-95.5 -35.5l-42 -2z" />
    <glyph glyph-name="uni1E3B" unicode="&#x1e3b;" horiz-adv-x="255" 
d="M49 16q-25 26 -25 69q0 17 13 89l101 576h114l-102 -585q-7 -38 -7 -48q0 -22 11 -28t39 -6l-27 -93h-41q-51 0 -76 26zM-60 -91h317l-15 -78h-318z" />
    <glyph glyph-name="lslash" unicode="&#x142;" horiz-adv-x="255" 
d="M150 165q-7 -38 -7 -48q0 -22 11 -28t39 -6l-27 -93h-41q-51 0 -76 26t-25 69q0 17 13 89l34 192l-71 -27l14 82l71 27l53 302h114l-45 -257l87 33l-15 -82l-86 -32z" />
    <glyph glyph-name="m" unicode="m" horiz-adv-x="825" 
d="M95 497h93v-43q27 24 61 38t71 14q43 0 78 -20t52 -63q21 34 66.5 58.5t105.5 24.5q76 0 114.5 -42t38.5 -117q0 -19 -9 -75.5t-47 -271.5h-114q31 174 42.5 244.5t11.5 84.5q0 45 -17.5 63t-52.5 18q-54 0 -81 -31.5t-35 -77.5l-52 -301h-114q30 167 42.5 242t12.5 92
q0 76 -77 76q-58 0 -99 -48l-64 -362h-114z" />
    <glyph glyph-name="uni1E43" unicode="&#x1e43;" horiz-adv-x="825" 
d="M95 497h93v-43q27 24 61 38t71 14q43 0 78 -20t52 -63q21 34 66.5 58.5t105.5 24.5q76 0 114.5 -42t38.5 -117q0 -19 -9 -75.5t-47 -271.5h-114q31 174 42.5 244.5t11.5 84.5q0 45 -17.5 63t-52.5 18q-54 0 -81 -31.5t-35 -77.5l-52 -301h-114q30 167 42.5 242t12.5 92
q0 76 -77 76q-58 0 -99 -48l-64 -362h-114zM301 -81h97l-18 -95h-97z" />
    <glyph glyph-name="n" unicode="n" horiz-adv-x="530" 
d="M95 497h100l2 -37q31 23 62.5 34.5t69.5 11.5q75 0 112 -44.5t37 -121.5q0 -18 -9.5 -78.5t-44.5 -261.5h-115q30 172 41.5 242.5t11.5 82.5q0 44 -18 64.5t-57 20.5q-60 0 -101 -49l-64 -361h-114z" />
    <glyph glyph-name="nacute" unicode="&#x144;" horiz-adv-x="530" 
d="M95 497h100l2 -37q31 23 62.5 34.5t69.5 11.5q75 0 112 -44.5t37 -121.5q0 -18 -9.5 -78.5t-44.5 -261.5h-115q30 172 41.5 242.5t11.5 82.5q0 44 -18 64.5t-57 20.5q-60 0 -101 -49l-64 -361h-114zM250 643l196 107l-18 -121l-194 -64z" />
    <glyph glyph-name="napostrophe" unicode="&#x149;" horiz-adv-x="547" 
d="M113 497h100l2 -37q31 23 62.5 34.5t69.5 11.5q75 0 112 -44.5t37 -121.5q0 -18 -9.5 -78.5t-44.5 -261.5h-115q30 172 41.5 242.5t11.5 82.5q0 44 -18 64.5t-57 20.5q-60 0 -101 -49l-64 -361h-114zM33 519l48 87h-38l17 94h101l-16 -94l-71 -87h-41z" />
    <glyph glyph-name="ncaron" unicode="&#x148;" horiz-adv-x="530" 
d="M95 497h100l2 -37q31 23 62.5 34.5t69.5 11.5q75 0 112 -44.5t37 -121.5q0 -18 -9.5 -78.5t-44.5 -261.5h-115q30 172 41.5 242.5t11.5 82.5q0 44 -18 64.5t-57 20.5q-60 0 -101 -49l-64 -361h-114zM211 663l15 74l114 -82l141 82l-15 -84l-146 -101z" />
    <glyph glyph-name="ncommaaccent" unicode="&#x146;" horiz-adv-x="530" 
d="M95 497h100l2 -37q31 23 62.5 34.5t69.5 11.5q75 0 112 -44.5t37 -121.5q0 -18 -9.5 -78.5t-44.5 -261.5h-115q30 172 41.5 242.5t11.5 82.5q0 44 -18 64.5t-57 20.5q-60 0 -101 -49l-64 -361h-114zM124 -272l48 87h-38l17 94h101l-16 -94l-71 -87h-41z" />
    <glyph glyph-name="uni1E45" unicode="&#x1e45;" horiz-adv-x="530" 
d="M95 497h100l2 -37q31 23 62.5 34.5t69.5 11.5q75 0 112 -44.5t37 -121.5q0 -18 -9.5 -78.5t-44.5 -261.5h-115q30 172 41.5 242.5t11.5 82.5q0 44 -18 64.5t-57 20.5q-60 0 -101 -49l-64 -361h-114zM297 687h97l-18 -95h-97z" />
    <glyph glyph-name="uni1E47" unicode="&#x1e47;" horiz-adv-x="530" 
d="M95 497h100l2 -37q31 23 62.5 34.5t69.5 11.5q75 0 112 -44.5t37 -121.5q0 -18 -9.5 -78.5t-44.5 -261.5h-115q30 172 41.5 242.5t11.5 82.5q0 44 -18 64.5t-57 20.5q-60 0 -101 -49l-64 -361h-114zM154 -81h97l-18 -95h-97z" />
    <glyph glyph-name="eng" unicode="&#x14b;" horiz-adv-x="575" 
d="M378 -129q-55 -50 -141 -50q-52 0 -100 17l30 93q38 -15 69 -15q40 0 65.5 23t32.5 70l46 260q6 32 6 54q0 45 -17.5 66t-56.5 21q-59 0 -104 -45l-64 -365h-114l87 497h103l-3 -40q69 49 143 49q71 0 106.5 -43.5t35.5 -118.5q0 -26 -7 -68l-46 -262q-16 -93 -71 -143z
" />
    <glyph glyph-name="uni01CC" unicode="&#x1cc;" horiz-adv-x="764" 
d="M95 497h100l2 -37q31 23 62.5 34.5t69.5 11.5q75 0 112 -44.5t37 -121.5q0 -18 -9.5 -78.5t-44.5 -261.5h-115q30 172 41.5 242.5t11.5 82.5q0 44 -18 64.5t-57 20.5q-60 0 -101 -49l-64 -361h-114zM662 700h114l-21 -117h-114zM454 -150q28 1 40 6.5t19 22.5t14 57
l99 561h114l-107 -607q-11 -60 -47.5 -94.5t-95.5 -35.5l-42 -2z" />
    <glyph glyph-name="uni1E49" unicode="&#x1e49;" horiz-adv-x="530" 
d="M95 497h100l2 -37q31 23 62.5 34.5t69.5 11.5q75 0 112 -44.5t37 -121.5q0 -18 -9.5 -78.5t-44.5 -261.5h-115q30 172 41.5 242.5t11.5 82.5q0 44 -18 64.5t-57 20.5q-60 0 -101 -49l-64 -361h-114zM42 -91h317l-15 -78h-318z" />
    <glyph glyph-name="ntilde" unicode="&#xf1;" horiz-adv-x="530" 
d="M95 497h100l2 -37q31 23 62.5 34.5t69.5 11.5q75 0 112 -44.5t37 -121.5q0 -18 -9.5 -78.5t-44.5 -261.5h-115q30 172 41.5 242.5t11.5 82.5q0 44 -18 64.5t-57 20.5q-60 0 -101 -49l-64 -361h-114zM379.5 577.5q-16.5 5.5 -39.5 16.5q-42 21 -62 21q-16 0 -26.5 -9.5
t-13.5 -25.5h-77q10 57 37 87.5t68 30.5q17 0 33.5 -6.5t37.5 -17.5q15 -8 30.5 -14t27.5 -6q32 0 38 39h79q-11 -62 -36 -91.5t-65 -29.5q-15 0 -31.5 5.5z" />
    <glyph glyph-name="o" unicode="o" horiz-adv-x="538" 
d="M70 50q-52 60 -52 153q0 79 37 149t102 112t146 42q97 0 149 -60t52 -153q0 -79 -37 -149t-102 -112t-146 -42q-97 0 -149 60zM313 112q35 27 54 72.5t19 99.5q0 61 -25 93.5t-74 32.5q-44 0 -78.5 -26.5t-53.5 -72t-19 -99.5q0 -61 25 -94t73 -33q44 0 79 27z" />
    <glyph glyph-name="oacute" unicode="&#xf3;" horiz-adv-x="538" 
d="M70 50q-52 60 -52 153q0 79 37 149t102 112t146 42q97 0 149 -60t52 -153q0 -79 -37 -149t-102 -112t-146 -42q-97 0 -149 60zM313 112q35 27 54 72.5t19 99.5q0 61 -25 93.5t-74 32.5q-44 0 -78.5 -26.5t-53.5 -72t-19 -99.5q0 -61 25 -94t73 -33q44 0 79 27zM252 650
l196 107l-18 -121l-194 -64z" />
    <glyph glyph-name="obreve" unicode="&#x14f;" horiz-adv-x="538" 
d="M70 50q-52 60 -52 153q0 79 37 149t102 112t146 42q97 0 149 -60t52 -153q0 -79 -37 -149t-102 -112t-146 -42q-97 0 -149 60zM313 112q35 27 54 72.5t19 99.5q0 61 -25 93.5t-74 32.5q-44 0 -78.5 -26.5t-53.5 -72t-19 -99.5q0 -61 25 -94t73 -33q44 0 79 27zM239 614.5
q-35 30.5 -35 77.5q0 16 4 27h79q-2 -10 -2 -16q0 -23 14.5 -35t41.5 -12q31 0 52.5 16.5t26.5 46.5h88q-14 -62 -58.5 -98.5t-114.5 -36.5q-61 0 -96 30.5z" />
    <glyph glyph-name="ocircumflex" unicode="&#xf4;" horiz-adv-x="538" 
d="M70 50q-52 60 -52 153q0 79 37 149t102 112t146 42q97 0 149 -60t52 -153q0 -79 -37 -149t-102 -112t-146 -42q-97 0 -149 60zM313 112q35 27 54 72.5t19 99.5q0 61 -25 93.5t-74 32.5q-44 0 -78.5 -26.5t-53.5 -72t-19 -99.5q0 -61 25 -94t73 -33q44 0 79 27zM227 644
l131 98l108 -111l-15 -74l-113 82l-128 -71z" />
    <glyph glyph-name="uni1ED1" unicode="&#x1ed1;" horiz-adv-x="538" 
d="M70 50q-52 60 -52 153q0 79 37 149t102 112t146 42q97 0 149 -60t52 -153q0 -79 -37 -149t-102 -112t-146 -42q-97 0 -149 60zM313 112q35 27 54 72.5t19 99.5q0 61 -25 93.5t-74 32.5q-44 0 -78.5 -26.5t-53.5 -72t-19 -99.5q0 -61 25 -94t73 -33q44 0 79 27zM481 816
h109l-112 -115h-74zM332 622l-120 -59l13 70l124 80l113 -92l-12 -70z" />
    <glyph glyph-name="uni1ED9" unicode="&#x1ed9;" horiz-adv-x="538" 
d="M70 50q-52 60 -52 153q0 79 37 149t102 112t146 42q97 0 149 -60t52 -153q0 -79 -37 -149t-102 -112t-146 -42q-97 0 -149 60zM313 112q35 27 54 72.5t19 99.5q0 61 -25 93.5t-74 32.5q-44 0 -78.5 -26.5t-53.5 -72t-19 -99.5q0 -61 25 -94t73 -33q44 0 79 27zM227 644
l131 98l108 -111l-15 -74l-113 82l-128 -71zM151 -81h97l-18 -95h-97z" />
    <glyph glyph-name="uni1ED3" unicode="&#x1ed3;" horiz-adv-x="538" 
d="M70 50q-52 60 -52 153q0 79 37 149t102 112t146 42q97 0 149 -60t52 -153q0 -79 -37 -149t-102 -112t-146 -42q-97 0 -149 60zM313 112q35 27 54 72.5t19 99.5q0 61 -25 93.5t-74 32.5q-44 0 -78.5 -26.5t-53.5 -72t-19 -99.5q0 -61 25 -94t73 -33q44 0 79 27zM351 825
h103l31 -124h-72zM331 622l-120 -59l13 70l124 80l113 -92l-12 -70z" />
    <glyph glyph-name="uni1ED5" unicode="&#x1ed5;" horiz-adv-x="538" 
d="M70 50q-52 60 -52 153q0 79 37 149t102 112t146 42q97 0 149 -60t52 -153q0 -79 -37 -149t-102 -112t-146 -42q-97 0 -149 60zM313 112q35 27 54 72.5t19 99.5q0 61 -25 93.5t-74 32.5q-44 0 -78.5 -26.5t-53.5 -72t-19 -99.5q0 -61 25 -94t73 -33q44 0 79 27zM421 712
q43 10 43 39q0 25 -34 25q-25 0 -62 -16l-7 58q40 16 82 16q38 0 61.5 -18t23.5 -49q0 -37 -27 -61.5t-77 -36.5zM331 615l-120 -59l13 70l124 80l113 -92l-12 -70z" />
    <glyph glyph-name="uni1ED7" unicode="&#x1ed7;" horiz-adv-x="538" 
d="M70 50q-52 60 -52 153q0 79 37 149t102 112t146 42q97 0 149 -60t52 -153q0 -79 -37 -149t-102 -112t-146 -42q-97 0 -149 60zM313 112q35 27 54 72.5t19 99.5q0 61 -25 93.5t-74 32.5q-44 0 -78.5 -26.5t-53.5 -72t-19 -99.5q0 -61 25 -94t73 -33q44 0 79 27zM405 738
q-15 5 -40 16q-15 7 -31 12.5t-27 5.5q-13 0 -22 -8.5t-11 -23.5h-73q20 103 98 103q15 0 31 -5t38 -15q15 -7 31 -12.5t27 -5.5q28 0 34 33h72q-7 -51 -32.5 -78t-64.5 -27q-15 0 -30 5zM331 615l-120 -59l13 70l124 80l113 -92l-12 -70z" />
    <glyph glyph-name="uni020D" unicode="&#x20d;" horiz-adv-x="538" 
d="M70 50q-52 60 -52 153q0 79 37 149t102 112t146 42q97 0 149 -60t52 -153q0 -79 -37 -149t-102 -112t-146 -42q-97 0 -149 60zM313 112q35 27 54 72.5t19 99.5q0 61 -25 93.5t-74 32.5q-44 0 -78.5 -26.5t-53.5 -72t-19 -99.5q0 -61 25 -94t73 -33q44 0 79 27zM220 585
l-76 174h110l41 -174h-75zM364 585l-68 174h110l33 -174h-75z" />
    <glyph glyph-name="odieresis" unicode="&#xf6;" horiz-adv-x="538" 
d="M70 50q-52 60 -52 153q0 79 37 149t102 112t146 42q97 0 149 -60t52 -153q0 -79 -37 -149t-102 -112t-146 -42q-97 0 -149 60zM313 112q35 27 54 72.5t19 99.5q0 61 -25 93.5t-74 32.5q-44 0 -78.5 -26.5t-53.5 -72t-19 -99.5q0 -61 25 -94t73 -33q44 0 79 27zM202 678
h91l-17 -87h-91zM396 678h91l-17 -87h-91z" />
    <glyph glyph-name="uni022B" unicode="&#x22b;" horiz-adv-x="538" 
d="M70 50q-52 60 -52 153q0 79 37 149t102 112t146 42q97 0 149 -60t52 -153q0 -79 -37 -149t-102 -112t-146 -42q-97 0 -149 60zM313 112q35 27 54 72.5t19 99.5q0 61 -25 93.5t-74 32.5q-44 0 -78.5 -26.5t-53.5 -72t-19 -99.5q0 -61 25 -94t73 -33q44 0 79 27zM198 666
h91l-15 -83h-91zM390 666h91l-15 -83h-91zM207 817h319l-14 -74h-318z" />
    <glyph glyph-name="uni0231" unicode="&#x231;" horiz-adv-x="538" 
d="M70 50q-52 60 -52 153q0 79 37 149t102 112t146 42q97 0 149 -60t52 -153q0 -79 -37 -149t-102 -112t-146 -42q-97 0 -149 60zM313 112q35 27 54 72.5t19 99.5q0 61 -25 93.5t-74 32.5q-44 0 -78.5 -26.5t-53.5 -72t-19 -99.5q0 -61 25 -94t73 -33q44 0 79 27zM294 684
h99l-17 -95h-99zM211 840h319l-14 -74h-318z" />
    <glyph glyph-name="uni1ECD" unicode="&#x1ecd;" horiz-adv-x="538" 
d="M70 50q-52 60 -52 153q0 79 37 149t102 112t146 42q97 0 149 -60t52 -153q0 -79 -37 -149t-102 -112t-146 -42q-97 0 -149 60zM313 112q35 27 54 72.5t19 99.5q0 61 -25 93.5t-74 32.5q-44 0 -78.5 -26.5t-53.5 -72t-19 -99.5q0 -61 25 -94t73 -33q44 0 79 27zM151 -81
h97l-18 -95h-97z" />
    <glyph glyph-name="ograve" unicode="&#xf2;" horiz-adv-x="538" 
d="M70 50q-52 60 -52 153q0 79 37 149t102 112t146 42q97 0 149 -60t52 -153q0 -79 -37 -149t-102 -112t-146 -42q-97 0 -149 60zM313 112q35 27 54 72.5t19 99.5q0 61 -25 93.5t-74 32.5q-44 0 -78.5 -26.5t-53.5 -72t-19 -99.5q0 -61 25 -94t73 -33q44 0 79 27zM243 646
l20 110l165 -111l-13 -73z" />
    <glyph glyph-name="uni1ECF" unicode="&#x1ecf;" horiz-adv-x="538" 
d="M70 50q-52 60 -52 153q0 79 37 149t102 112t146 42q97 0 149 -60t52 -153q0 -79 -37 -149t-102 -112t-146 -42q-97 0 -149 60zM313 112q35 27 54 72.5t19 99.5q0 61 -25 93.5t-74 32.5q-44 0 -78.5 -26.5t-53.5 -72t-19 -99.5q0 -61 25 -94t73 -33q44 0 79 27zM345.5 605
q13.5 15 13.5 34q0 13 -8 20t-23 7q-25 0 -66 -18l-6 56q43 18 83 18q37 0 60 -18t24 -51q0 -37 -23.5 -65t-67.5 -57l-29 36q29 23 42.5 38z" />
    <glyph glyph-name="ohorn" unicode="&#x1a1;" horiz-adv-x="538" 
d="M511 500.5q-25 -31.5 -62 -51.5q27 -29 41 -69t14 -87q0 -79 -37 -149t-102 -112t-146 -42q-97 0 -149 60t-52 153q0 79 37 149t102 112t146 42q32 0 64 -8q63 6 76 73h100q-7 -39 -32 -70.5zM313 112q35 27 54 72.5t19 99.5q0 61 -25 93.5t-74 32.5q-44 0 -78.5 -26.5
t-53.5 -72t-19 -99.5q0 -61 25 -94t73 -33q44 0 79 27z" />
    <glyph glyph-name="uni1EDB" unicode="&#x1edb;" horiz-adv-x="538" 
d="M511 500.5q-25 -31.5 -62 -51.5q27 -29 41 -69t14 -87q0 -79 -37 -149t-102 -112t-146 -42q-97 0 -149 60t-52 153q0 79 37 149t102 112t146 42q32 0 64 -8q63 6 76 73h100q-7 -39 -32 -70.5zM313 112q35 27 54 72.5t19 99.5q0 61 -25 93.5t-74 32.5q-44 0 -78.5 -26.5
t-53.5 -72t-19 -99.5q0 -61 25 -94t73 -33q44 0 79 27zM252 650l196 107l-18 -121l-194 -64z" />
    <glyph glyph-name="uni1EE3" unicode="&#x1ee3;" horiz-adv-x="538" 
d="M511 500.5q-25 -31.5 -62 -51.5q27 -29 41 -69t14 -87q0 -79 -37 -149t-102 -112t-146 -42q-97 0 -149 60t-52 153q0 79 37 149t102 112t146 42q32 0 64 -8q63 6 76 73h100q-7 -39 -32 -70.5zM313 112q35 27 54 72.5t19 99.5q0 61 -25 93.5t-74 32.5q-44 0 -78.5 -26.5
t-53.5 -72t-19 -99.5q0 -61 25 -94t73 -33q44 0 79 27zM151 -81h97l-18 -95h-97z" />
    <glyph glyph-name="uni1EDD" unicode="&#x1edd;" horiz-adv-x="538" 
d="M511 500.5q-25 -31.5 -62 -51.5q27 -29 41 -69t14 -87q0 -79 -37 -149t-102 -112t-146 -42q-97 0 -149 60t-52 153q0 79 37 149t102 112t146 42q32 0 64 -8q63 6 76 73h100q-7 -39 -32 -70.5zM313 112q35 27 54 72.5t19 99.5q0 61 -25 93.5t-74 32.5q-44 0 -78.5 -26.5
t-53.5 -72t-19 -99.5q0 -61 25 -94t73 -33q44 0 79 27zM243 646l20 110l165 -111l-13 -73z" />
    <glyph glyph-name="uni1EDF" unicode="&#x1edf;" horiz-adv-x="538" 
d="M511 500.5q-25 -31.5 -62 -51.5q27 -29 41 -69t14 -87q0 -79 -37 -149t-102 -112t-146 -42q-97 0 -149 60t-52 153q0 79 37 149t102 112t146 42q32 0 64 -8q63 6 76 73h100q-7 -39 -32 -70.5zM313 112q35 27 54 72.5t19 99.5q0 61 -25 93.5t-74 32.5q-44 0 -78.5 -26.5
t-53.5 -72t-19 -99.5q0 -61 25 -94t73 -33q44 0 79 27zM345.5 605q13.5 15 13.5 34q0 13 -8 20t-23 7q-25 0 -66 -18l-6 56q43 18 83 18q37 0 60 -18t24 -51q0 -37 -23.5 -65t-67.5 -57l-29 36q29 23 42.5 38z" />
    <glyph glyph-name="uni1EE1" unicode="&#x1ee1;" horiz-adv-x="538" 
d="M511 500.5q-25 -31.5 -62 -51.5q27 -29 41 -69t14 -87q0 -79 -37 -149t-102 -112t-146 -42q-97 0 -149 60t-52 153q0 79 37 149t102 112t146 42q32 0 64 -8q63 6 76 73h100q-7 -39 -32 -70.5zM313 112q35 27 54 72.5t19 99.5q0 61 -25 93.5t-74 32.5q-44 0 -78.5 -26.5
t-53.5 -72t-19 -99.5q0 -61 25 -94t73 -33q44 0 79 27zM381.5 584.5q-16.5 5.5 -39.5 16.5q-42 21 -62 21q-16 0 -26.5 -9.5t-13.5 -25.5h-77q10 57 37 87.5t68 30.5q17 0 33.5 -6.5t37.5 -17.5q15 -8 30.5 -14t27.5 -6q32 0 38 39h79q-11 -62 -36 -91.5t-65 -29.5
q-15 0 -31.5 5.5z" />
    <glyph glyph-name="ohungarumlaut" unicode="&#x151;" horiz-adv-x="538" 
d="M70 50q-52 60 -52 153q0 79 37 149t102 112t146 42q97 0 149 -60t52 -153q0 -79 -37 -149t-102 -112t-146 -42q-97 0 -149 60zM313 112q35 27 54 72.5t19 99.5q0 61 -25 93.5t-74 32.5q-44 0 -78.5 -26.5t-53.5 -72t-19 -99.5q0 -61 25 -94t73 -33q44 0 79 27zM320 759
h109l-140 -174h-75zM472 759h109l-147 -174h-75z" />
    <glyph glyph-name="uni020F" unicode="&#x20f;" horiz-adv-x="538" 
d="M70 50q-52 60 -52 153q0 79 37 149t102 112t146 42q97 0 149 -60t52 -153q0 -79 -37 -149t-102 -112t-146 -42q-97 0 -149 60zM313 112q35 27 54 72.5t19 99.5q0 61 -25 93.5t-74 32.5q-44 0 -78.5 -26.5t-53.5 -72t-19 -99.5q0 -61 25 -94t73 -33q44 0 79 27zM445 688
q34 -31 34 -80q0 -8 -2 -24h-82q1 6 1 13q0 24 -16 37t-43 13q-31 0 -52.5 -16.5t-26.5 -46.5h-84q9 57 57 96t118 39q62 0 96 -31z" />
    <glyph glyph-name="omacron" unicode="&#x14d;" horiz-adv-x="538" 
d="M70 50q-52 60 -52 153q0 79 37 149t102 112t146 42q97 0 149 -60t52 -153q0 -79 -37 -149t-102 -112t-146 -42q-97 0 -149 60zM313 112q35 27 54 72.5t19 99.5q0 61 -25 93.5t-74 32.5q-44 0 -78.5 -26.5t-53.5 -72t-19 -99.5q0 -61 25 -94t73 -33q44 0 79 27zM187 676
h317l-15 -78h-318z" />
    <glyph glyph-name="uni1E53" unicode="&#x1e53;" horiz-adv-x="538" 
d="M70 50q-52 60 -52 153q0 79 37 149t102 112t146 42q97 0 149 -60t52 -153q0 -79 -37 -149t-102 -112t-146 -42q-97 0 -149 60zM313 112q35 27 54 72.5t19 99.5q0 61 -25 93.5t-74 32.5q-44 0 -78.5 -26.5t-53.5 -72t-19 -99.5q0 -61 25 -94t73 -33q44 0 79 27zM180 664
h319l-14 -74h-318zM281 794l187 95l-17 -108l-180 -58z" />
    <glyph glyph-name="uni1E51" unicode="&#x1e51;" horiz-adv-x="538" 
d="M70 50q-52 60 -52 153q0 79 37 149t102 112t146 42q97 0 149 -60t52 -153q0 -79 -37 -149t-102 -112t-146 -42q-97 0 -149 60zM313 112q35 27 54 72.5t19 99.5q0 61 -25 93.5t-74 32.5q-44 0 -78.5 -26.5t-53.5 -72t-19 -99.5q0 -61 25 -94t73 -33q44 0 79 27zM180 664
h319l-14 -74h-318zM272 781l19 102l168 -95l-13 -65z" />
    <glyph glyph-name="uni01EB" unicode="&#x1eb;" horiz-adv-x="538" 
d="M208 -60q-25 -27 -25 -56q0 -18 9.5 -27t27.5 -9q31 0 60 13l6 -53q-38 -18 -84 -18q-38 0 -61 18.5t-24 51.5q0 36 25.5 70t63.5 60q-91 4 -139.5 63.5t-48.5 149.5q0 79 37 149t102 112t146 42q97 0 149 -60t52 -153q0 -70 -29.5 -133t-82 -107t-119.5 -58
q-40 -28 -65 -55zM161 118q25 -33 73 -33q44 0 79 27t54 72.5t19 99.5q0 61 -25 93.5t-74 32.5q-44 0 -78.5 -26.5t-53.5 -72t-19 -99.5q0 -61 25 -94z" />
    <glyph glyph-name="oslash" unicode="&#xf8;" horiz-adv-x="538" 
d="M454 444q50 -59 50 -151q0 -79 -37 -149t-102 -112t-146 -42q-52 0 -91 18l-36 -48h-85l65 87q-27 29 -40.5 69t-13.5 87q0 79 37 149t102 112t146 42q57 0 97 -21l33 45h85zM146 146l189 253q-20 11 -48 11q-44 0 -78.5 -26.5t-53.5 -72t-19 -99.5q0 -40 10 -66z
M378 343l-186 -250q19 -8 42 -8q44 0 79 27t54 72.5t19 99.5q0 32 -8 59z" />
    <glyph glyph-name="oslashacute" unicode="&#x1ff;" horiz-adv-x="538" 
d="M454 444q50 -59 50 -151q0 -79 -37 -149t-102 -112t-146 -42q-52 0 -91 18l-36 -48h-85l65 87q-27 29 -40.5 69t-13.5 87q0 79 37 149t102 112t146 42q57 0 97 -21l33 45h85zM146 146l189 253q-20 11 -48 11q-44 0 -78.5 -26.5t-53.5 -72t-19 -99.5q0 -40 10 -66z
M378 343l-186 -250q19 -8 42 -8q44 0 79 27t54 72.5t19 99.5q0 32 -8 59zM252 650l196 107l-18 -121l-194 -64z" />
    <glyph glyph-name="otilde" unicode="&#xf5;" horiz-adv-x="538" 
d="M70 50q-52 60 -52 153q0 79 37 149t102 112t146 42q97 0 149 -60t52 -153q0 -79 -37 -149t-102 -112t-146 -42q-97 0 -149 60zM313 112q35 27 54 72.5t19 99.5q0 61 -25 93.5t-74 32.5q-44 0 -78.5 -26.5t-53.5 -72t-19 -99.5q0 -61 25 -94t73 -33q44 0 79 27z
M381.5 584.5q-16.5 5.5 -39.5 16.5q-42 21 -62 21q-16 0 -26.5 -9.5t-13.5 -25.5h-77q10 57 37 87.5t68 30.5q17 0 33.5 -6.5t37.5 -17.5q15 -8 30.5 -14t27.5 -6q32 0 38 39h79q-11 -62 -36 -91.5t-65 -29.5q-15 0 -31.5 5.5z" />
    <glyph glyph-name="uni1E4D" unicode="&#x1e4d;" horiz-adv-x="538" 
d="M70 50q-52 60 -52 153q0 79 37 149t102 112t146 42q97 0 149 -60t52 -153q0 -79 -37 -149t-102 -112t-146 -42q-97 0 -149 60zM313 112q35 27 54 72.5t19 99.5q0 61 -25 93.5t-74 32.5q-44 0 -78.5 -26.5t-53.5 -72t-19 -99.5q0 -61 25 -94t73 -33q44 0 79 27zM372 582.5
q-16 5.5 -40 15.5q-15 7 -31 12.5t-27 5.5q-27 0 -33 -32h-72q9 50 33.5 76.5t63.5 26.5q25 0 69 -20q15 -7 31 -12.5t28 -5.5q27 0 33 33h72q-7 -51 -32 -78t-64 -27q-15 0 -31 5.5zM276 797l187 95l-17 -108l-180 -58z" />
    <glyph glyph-name="uni1E4F" unicode="&#x1e4f;" horiz-adv-x="538" 
d="M70 50q-52 60 -52 153q0 79 37 149t102 112t146 42q97 0 149 -60t52 -153q0 -79 -37 -149t-102 -112t-146 -42q-97 0 -149 60zM313 112q35 27 54 72.5t19 99.5q0 61 -25 93.5t-74 32.5q-44 0 -78.5 -26.5t-53.5 -72t-19 -99.5q0 -61 25 -94t73 -33q44 0 79 27zM372 582.5
q-16 5.5 -40 15.5q-15 7 -31 12.5t-27 5.5q-27 0 -33 -32h-72q9 50 33.5 76.5t63.5 26.5q25 0 69 -20q15 -7 31 -12.5t28 -5.5q27 0 33 33h72q-7 -51 -32 -78t-64 -27q-15 0 -31 5.5zM227 834h91l-15 -83h-91zM419 834h91l-15 -83h-91z" />
    <glyph glyph-name="uni022D" unicode="&#x22d;" horiz-adv-x="538" 
d="M70 50q-52 60 -52 153q0 79 37 149t102 112t146 42q97 0 149 -60t52 -153q0 -79 -37 -149t-102 -112t-146 -42q-97 0 -149 60zM313 112q35 27 54 72.5t19 99.5q0 61 -25 93.5t-74 32.5q-44 0 -78.5 -26.5t-53.5 -72t-19 -99.5q0 -61 25 -94t73 -33q44 0 79 27zM372 582.5
q-16 5.5 -40 15.5q-15 7 -31 12.5t-27 5.5q-27 0 -33 -32h-72q9 50 33.5 76.5t63.5 26.5q25 0 69 -20q15 -7 31 -12.5t28 -5.5q27 0 33 33h72q-7 -51 -32 -78t-64 -27q-15 0 -31 5.5zM209 832h319l-14 -74h-318z" />
    <glyph glyph-name="oe" unicode="&#x153;" horiz-adv-x="851" 
d="M108.5 18q-44.5 28 -67 76.5t-22.5 108.5q0 80 36.5 149.5t101.5 111.5t148 42q57 0 99 -22.5t65 -63.5q37 41 84 63.5t101 22.5q78 0 125.5 -47.5t47.5 -127.5q0 -31 -5 -49t-18 -52h-306l-1 -18q0 -8 2 -22q6 -56 37.5 -81.5t76.5 -25.5q34 0 77 11.5t76 28.5l-11 -97
q-76 -36 -163 -36q-132 0 -181 89q-38 -43 -88 -66t-108 -23q-62 0 -106.5 28zM313 112q35 27 54.5 73.5t19.5 101.5t-25.5 89t-71.5 34t-81 -26.5t-54 -72.5t-19 -103t25 -90t72 -33q45 0 80 27zM709 307q2 12 2 28q0 32 -17 53.5t-54 21.5q-44 0 -76 -27.5t-50 -75.5h195z
" />
    <glyph glyph-name="p" unicode="p" horiz-adv-x="548" 
d="M95 497h99l-1 -52q34 30 68.5 45.5t77.5 15.5q82 0 128 -58t46 -152q0 -87 -31 -157t-87.5 -109.5t-130.5 -39.5q-46 0 -79.5 18t-53.5 50l-52 -300h-114zM327.5 111.5q31.5 26.5 49.5 72.5t18 102q0 57 -22.5 90.5t-67.5 33.5q-43 0 -77.5 -26.5t-54 -73.5t-19.5 -105
q0 -60 25.5 -90t75.5 -30q41 0 72.5 26.5z" />
    <glyph glyph-name="thorn" unicode="&#xfe;" horiz-adv-x="548" 
d="M140 750h114l-53 -294q63 50 140 50q81 0 126.5 -57.5t45.5 -152.5q0 -87 -31 -157t-87.5 -109.5t-130.5 -39.5q-46 0 -79.5 18t-53.5 50l-52 -300h-114zM327.5 111.5q31.5 26.5 49.5 72.5t18 102q0 57 -22.5 90.5t-67.5 33.5q-43 0 -77.5 -26.5t-54 -73.5t-19.5 -105
q0 -60 25.5 -90t75.5 -30q41 0 72.5 26.5z" />
    <glyph glyph-name="q" unicode="q" horiz-adv-x="549" 
d="M330 45q-60 -55 -133 -55q-86 0 -132 58.5t-46 150.5q0 79 33 150t93 114t137 43q45 0 74.5 -17t52.5 -53l26 61h90l-131 -739h-114zM339 142.5q39 57.5 39 146.5q0 59 -23 90t-69 31q-43 0 -77 -27t-53 -72t-19 -99q0 -59 24.5 -93t73.5 -34q65 0 104 57.5z" />
    <glyph glyph-name="r" unicode="r" horiz-adv-x="330" 
d="M95 497h106l-7 -62q27 32 64.5 52.5t76.5 20.5h29l-42 -112h-43q-28 0 -55 -15.5t-41 -37.5l-61 -343h-114z" />
    <glyph glyph-name="racute" unicode="&#x155;" horiz-adv-x="330" 
d="M95 497h106l-7 -62q27 32 64.5 52.5t76.5 20.5h29l-42 -112h-43q-28 0 -55 -15.5t-41 -37.5l-61 -343h-114zM167 650l196 107l-18 -121l-194 -64z" />
    <glyph glyph-name="rcaron" unicode="&#x159;" horiz-adv-x="330" 
d="M95 497h106l-7 -62q27 32 64.5 52.5t76.5 20.5h29l-42 -112h-43q-28 0 -55 -15.5t-41 -37.5l-61 -343h-114zM128 670l15 74l114 -82l141 82l-15 -84l-146 -101z" />
    <glyph glyph-name="rcommaaccent" unicode="&#x157;" horiz-adv-x="330" 
d="M95 497h106l-7 -62q27 32 64.5 52.5t76.5 20.5h29l-42 -112h-43q-28 0 -55 -15.5t-41 -37.5l-61 -343h-114zM-27 -272l48 87h-38l17 94h101l-16 -94l-71 -87h-41z" />
    <glyph glyph-name="uni0211" unicode="&#x211;" horiz-adv-x="330" 
d="M95 497h106l-7 -62q27 32 64.5 52.5t76.5 20.5h29l-42 -112h-43q-28 0 -55 -15.5t-41 -37.5l-61 -343h-114zM135 585l-76 174h110l41 -174h-75zM279 585l-68 174h110l33 -174h-75z" />
    <glyph glyph-name="uni1E5B" unicode="&#x1e5b;" horiz-adv-x="330" 
d="M95 497h106l-7 -62q27 32 64.5 52.5t76.5 20.5h29l-42 -112h-43q-28 0 -55 -15.5t-41 -37.5l-61 -343h-114zM3 -81h97l-18 -95h-97z" />
    <glyph glyph-name="uni0213" unicode="&#x213;" horiz-adv-x="330" 
d="M95 497h106l-7 -62q27 32 64.5 52.5t76.5 20.5h29l-42 -112h-43q-28 0 -55 -15.5t-41 -37.5l-61 -343h-114zM360 688q34 -31 34 -80q0 -8 -2 -24h-82q1 6 1 13q0 24 -16 37t-43 13q-31 0 -52.5 -16.5t-26.5 -46.5h-84q9 57 57 96t118 39q62 0 96 -31z" />
    <glyph glyph-name="uni1E5F" unicode="&#x1e5f;" horiz-adv-x="330" 
d="M95 497h106l-7 -62q27 32 64.5 52.5t76.5 20.5h29l-42 -112h-43q-28 0 -55 -15.5t-41 -37.5l-61 -343h-114zM-109 -91h317l-15 -78h-318z" />
    <glyph glyph-name="s" unicode="s" horiz-adv-x="408" 
d="M-12 29l28 100q75 -50 141 -50q40 0 60 16.5t20 44.5t-18 42.5t-57 27.5q-58 19 -88 45.5t-30 81.5q0 46 23 84.5t69 61.5t112 23q82 0 141 -36l-26 -94q-59 46 -126 46q-39 0 -62 -15.5t-23 -45.5q0 -20 11 -32t27 -19t57 -22q52 -19 79 -48.5t27 -82.5q0 -43 -21.5 -81
t-67.5 -62t-116 -24q-86 0 -160 39z" />
    <glyph glyph-name="sacute" unicode="&#x15b;" horiz-adv-x="408" 
d="M-12 29l28 100q75 -50 141 -50q40 0 60 16.5t20 44.5t-18 42.5t-57 27.5q-58 19 -88 45.5t-30 81.5q0 46 23 84.5t69 61.5t112 23q82 0 141 -36l-26 -94q-59 46 -126 46q-39 0 -62 -15.5t-23 -45.5q0 -20 11 -32t27 -19t57 -22q52 -19 79 -48.5t27 -82.5q0 -43 -21.5 -81
t-67.5 -62t-116 -24q-86 0 -160 39zM190 643l196 107l-18 -121l-194 -64z" />
    <glyph glyph-name="uni1E65" unicode="&#x1e65;" horiz-adv-x="408" 
d="M-12 29l28 100q75 -50 141 -50q40 0 60 16.5t20 44.5t-18 42.5t-57 27.5q-58 19 -88 45.5t-30 81.5q0 46 23 84.5t69 61.5t112 23q82 0 141 -36l-26 -94q-59 46 -126 46q-39 0 -62 -15.5t-23 -45.5q0 -20 11 -32t27 -19t57 -22q52 -19 79 -48.5t27 -82.5q0 -43 -21.5 -81
t-67.5 -62t-116 -24q-86 0 -160 39zM185 622l187 95l-17 -108l-180 -58zM267 859h99l-17 -95h-99z" />
    <glyph glyph-name="scaron" unicode="&#x161;" horiz-adv-x="408" 
d="M-12 29l28 100q75 -50 141 -50q40 0 60 16.5t20 44.5t-18 42.5t-57 27.5q-58 19 -88 45.5t-30 81.5q0 46 23 84.5t69 61.5t112 23q82 0 141 -36l-26 -94q-59 46 -126 46q-39 0 -62 -15.5t-23 -45.5q0 -20 11 -32t27 -19t57 -22q52 -19 79 -48.5t27 -82.5q0 -43 -21.5 -81
t-67.5 -62t-116 -24q-86 0 -160 39zM151 663l15 74l114 -82l141 82l-15 -84l-146 -101z" />
    <glyph glyph-name="uni1E67" unicode="&#x1e67;" horiz-adv-x="408" 
d="M-12 29l28 100q75 -50 141 -50q40 0 60 16.5t20 44.5t-18 42.5t-57 27.5q-58 19 -88 45.5t-30 81.5q0 46 23 84.5t69 61.5t112 23q82 0 141 -36l-26 -94q-59 46 -126 46q-39 0 -62 -15.5t-23 -45.5q0 -20 11 -32t27 -19t57 -22q52 -19 79 -48.5t27 -82.5q0 -43 -21.5 -81
t-67.5 -62t-116 -24q-86 0 -160 39zM139 629l12 70l116 -75l123 72l-13 -79l-124 -80zM253 826h99l-17 -95h-99z" />
    <glyph glyph-name="scedilla" unicode="&#x15f;" horiz-adv-x="408" 
d="M175 406.5q-23 -15.5 -23 -45.5q0 -20 11 -32t27 -19t57 -22q52 -19 79 -48.5t27 -82.5q0 -63 -44.5 -111t-132.5 -55l-22 -45h7q35 0 55.5 -18.5t20.5 -51.5q0 -49 -37 -80t-92 -31q-46 0 -78 19l28 56q32 -17 61 -17q26 0 40.5 11t14.5 29q0 15 -11.5 23t-33.5 8
q-23 0 -50 -7l44 104q-71 5 -135 38l28 100q75 -50 141 -50q40 0 60 16.5t20 44.5t-18 42.5t-57 27.5q-58 19 -88 45.5t-30 81.5q0 46 23 84.5t69 61.5t112 23q82 0 141 -36l-26 -94q-59 46 -126 46q-39 0 -62 -15.5z" />
    <glyph glyph-name="scircumflex" unicode="&#x15d;" horiz-adv-x="408" 
d="M-12 29l28 100q75 -50 141 -50q40 0 60 16.5t20 44.5t-18 42.5t-57 27.5q-58 19 -88 45.5t-30 81.5q0 46 23 84.5t69 61.5t112 23q82 0 141 -36l-26 -94q-59 46 -126 46q-39 0 -62 -15.5t-23 -45.5q0 -20 11 -32t27 -19t57 -22q52 -19 79 -48.5t27 -82.5q0 -43 -21.5 -81
t-67.5 -62t-116 -24q-86 0 -160 39zM165 637l131 98l108 -111l-15 -74l-113 82l-128 -71z" />
    <glyph glyph-name="scommaaccent" unicode="&#x219;" horiz-adv-x="408" 
d="M-12 29l28 100q75 -50 141 -50q40 0 60 16.5t20 44.5t-18 42.5t-57 27.5q-58 19 -88 45.5t-30 81.5q0 46 23 84.5t69 61.5t112 23q82 0 141 -36l-26 -94q-59 46 -126 46q-39 0 -62 -15.5t-23 -45.5q0 -20 11 -32t27 -19t57 -22q52 -19 79 -48.5t27 -82.5q0 -43 -21.5 -81
t-67.5 -62t-116 -24q-86 0 -160 39zM59 -272l48 87h-38l17 94h101l-16 -94l-71 -87h-41z" />
    <glyph glyph-name="uni1E61" unicode="&#x1e61;" horiz-adv-x="408" 
d="M-12 29l28 100q75 -50 141 -50q40 0 60 16.5t20 44.5t-18 42.5t-57 27.5q-58 19 -88 45.5t-30 81.5q0 46 23 84.5t69 61.5t112 23q82 0 141 -36l-26 -94q-59 46 -126 46q-39 0 -62 -15.5t-23 -45.5q0 -20 11 -32t27 -19t57 -22q52 -19 79 -48.5t27 -82.5q0 -43 -21.5 -81
t-67.5 -62t-116 -24q-86 0 -160 39zM237 687h97l-18 -95h-97z" />
    <glyph glyph-name="uni1E63" unicode="&#x1e63;" horiz-adv-x="408" 
d="M-12 29l28 100q75 -50 141 -50q40 0 60 16.5t20 44.5t-18 42.5t-57 27.5q-58 19 -88 45.5t-30 81.5q0 46 23 84.5t69 61.5t112 23q82 0 141 -36l-26 -94q-59 46 -126 46q-39 0 -62 -15.5t-23 -45.5q0 -20 11 -32t27 -19t57 -22q52 -19 79 -48.5t27 -82.5q0 -43 -21.5 -81
t-67.5 -62t-116 -24q-86 0 -160 39zM89 -81h97l-18 -95h-97z" />
    <glyph glyph-name="uni1E69" unicode="&#x1e69;" horiz-adv-x="408" 
d="M-12 29l28 100q75 -50 141 -50q40 0 60 16.5t20 44.5t-18 42.5t-57 27.5q-58 19 -88 45.5t-30 81.5q0 46 23 84.5t69 61.5t112 23q82 0 141 -36l-26 -94q-59 46 -126 46q-39 0 -62 -15.5t-23 -45.5q0 -20 11 -32t27 -19t57 -22q52 -19 79 -48.5t27 -82.5q0 -43 -21.5 -81
t-67.5 -62t-116 -24q-86 0 -160 39zM237 687h97l-18 -95h-97zM89 -81h97l-18 -95h-97z" />
    <glyph glyph-name="germandbls" unicode="&#xdf;" horiz-adv-x="607" 
d="M206 -3l16 95q52 -11 101 -11q52 0 86.5 24.5t34.5 69.5q0 32 -18 52.5t-54 45.5q-35 24 -53 44.5t-18 51.5q0 32 22.5 62t69.5 72q39 35 54.5 55.5t15.5 49.5q-1 28 -22.5 44.5t-61.5 16.5q-57 0 -92.5 -34.5t-46.5 -96.5l-95 -538h-115l72 405h-68l26 92h58l7 39
q20 112 93 170t181 58q83 0 131.5 -35.5t48.5 -96.5q0 -46 -19.5 -77.5t-62.5 -71.5l-18 -16q-31 -27 -44.5 -44t-13.5 -35q0 -20 13.5 -34.5t41.5 -35.5t44.5 -37t28.5 -40.5t12 -57.5q0 -60 -35 -104.5t-93 -68.5t-125 -24q-55 0 -102 11z" />
    <glyph glyph-name="uni0259" unicode="&#x259;" horiz-adv-x="479" 
d="M405.5 447.5q54.5 -59.5 54.5 -154.5q0 -78 -35 -147.5t-98 -112t-144 -42.5q-76 0 -117 37.5t-41 101.5q0 79 63.5 122t171.5 43q50 0 80 -7q-2 66 -35.5 95t-83.5 29q-76 0 -150 -38l11 95q32 17 74 27.5t89 10.5q106 0 160.5 -59.5zM158 196q-36 -24 -36 -58
q0 -29 20.5 -40t46.5 -11q51 0 88 37.5t53 89.5q-19 6 -53 6q-83 0 -119 -24z" />
    <glyph glyph-name="t" unicode="t" horiz-adv-x="327" 
d="M78.5 18.5q-25.5 28.5 -25.5 72.5q0 16 53 314h-68l26 92h58l20 113l116 12l-22 -125h105l-16 -92h-105q-27 -153 -37.5 -215.5t-10.5 -72.5q0 -23 12.5 -28.5t51.5 -5.5h32l-27 -93h-83q-54 0 -79.5 28.5z" />
    <glyph glyph-name="tbar" unicode="&#x167;" horiz-adv-x="338" 
d="M230 405l-17 -99h103l-14 -77h-103q-17 -99 -17 -112q0 -23 12.5 -28.5t51.5 -5.5h32l-27 -93h-83q-54 0 -79.5 28.5t-25.5 72.5q0 10 22 138h-68l15 77h66l10 53q2 12 8 46h-68l26 92h58l20 113l116 12l-22 -125h105l-16 -92h-105z" />
    <glyph glyph-name="tcaron" unicode="&#x165;" horiz-adv-x="327" 
d="M78.5 18.5q-25.5 28.5 -25.5 72.5q0 16 53 314h-68l26 92h58l20 113l116 12l-22 -125h105l-16 -92h-105q-27 -153 -37.5 -215.5t-10.5 -72.5q0 -23 12.5 -28.5t51.5 -5.5h32l-27 -93h-83q-54 0 -79.5 28.5zM322 718h96l-60 -174h-67z" />
    <glyph glyph-name="uni0163" unicode="&#x163;" horiz-adv-x="327" 
d="M220 405q-27 -153 -37.5 -215.5t-10.5 -72.5q0 -23 12.5 -28.5t51.5 -5.5h32l-27 -93h-53l-21 -44h7q35 0 55.5 -18.5t20.5 -51.5q0 -49 -37 -80t-92 -31q-46 0 -78 19l28 56q32 -17 61 -17q26 0 40.5 11t14.5 29q0 15 -11.5 23t-33.5 8q-23 0 -50 -7l44 104
q-43 6 -63 33t-20 67q0 16 53 314h-68l26 92h58l20 113l116 12l-22 -125h105l-16 -92h-105z" />
    <glyph glyph-name="uni021B" unicode="&#x21b;" horiz-adv-x="327" 
d="M78.5 18.5q-25.5 28.5 -25.5 72.5q0 16 53 314h-68l26 92h58l20 113l116 12l-22 -125h105l-16 -92h-105q-27 -153 -37.5 -215.5t-10.5 -72.5q0 -23 12.5 -28.5t51.5 -5.5h32l-27 -93h-83q-54 0 -79.5 28.5zM72 -272l48 87h-38l17 94h101l-16 -94l-71 -87h-41z" />
    <glyph glyph-name="uni1E97" unicode="&#x1e97;" horiz-adv-x="327" 
d="M78.5 18.5q-25.5 28.5 -25.5 72.5q0 16 53 314h-68l26 92h58l20 113l116 12l-22 -125h105l-16 -92h-105q-27 -153 -37.5 -215.5t-10.5 -72.5q0 -23 12.5 -28.5t51.5 -5.5h32l-27 -93h-83q-54 0 -79.5 28.5zM92 794h91l-17 -87h-91zM286 794h91l-17 -87h-91z" />
    <glyph glyph-name="uni1E6D" unicode="&#x1e6d;" horiz-adv-x="327" 
d="M78.5 18.5q-25.5 28.5 -25.5 72.5q0 16 53 314h-68l26 92h58l20 113l116 12l-22 -125h105l-16 -92h-105q-27 -153 -37.5 -215.5t-10.5 -72.5q0 -23 12.5 -28.5t51.5 -5.5h32l-27 -93h-83q-54 0 -79.5 28.5zM102 -81h97l-18 -95h-97z" />
    <glyph glyph-name="uni1E6F" unicode="&#x1e6f;" horiz-adv-x="327" 
d="M78.5 18.5q-25.5 28.5 -25.5 72.5q0 16 53 314h-68l26 92h58l20 113l116 12l-22 -125h105l-16 -92h-105q-27 -153 -37.5 -215.5t-10.5 -72.5q0 -23 12.5 -28.5t51.5 -5.5h32l-27 -93h-83q-54 0 -79.5 28.5zM-10 -91h317l-15 -78h-318z" />
    <glyph glyph-name="u" unicode="u" horiz-adv-x="527" 
d="M74 33q-39 43 -39 120q0 28 7 66l48 278h114l-46 -267q-7 -39 -7 -57q0 -86 76 -86q57 0 97 46l65 364h114l-88 -497h-107l5 42q-29 -25 -58.5 -38.5t-66.5 -13.5q-75 0 -114 43z" />
    <glyph glyph-name="uacute" unicode="&#xfa;" horiz-adv-x="527" 
d="M74 33q-39 43 -39 120q0 28 7 66l48 278h114l-46 -267q-7 -39 -7 -57q0 -86 76 -86q57 0 97 46l65 364h114l-88 -497h-107l5 42q-29 -25 -58.5 -38.5t-66.5 -13.5q-75 0 -114 43zM238 650l196 107l-18 -121l-194 -64z" />
    <glyph glyph-name="ubreve" unicode="&#x16d;" horiz-adv-x="527" 
d="M74 33q-39 43 -39 120q0 28 7 66l48 278h114l-46 -267q-7 -39 -7 -57q0 -86 76 -86q57 0 97 46l65 364h114l-88 -497h-107l5 42q-29 -25 -58.5 -38.5t-66.5 -13.5q-75 0 -114 43zM225 614.5q-35 30.5 -35 77.5q0 16 4 27h79q-2 -10 -2 -16q0 -23 14.5 -35t41.5 -12
q31 0 52.5 16.5t26.5 46.5h88q-14 -62 -58.5 -98.5t-114.5 -36.5q-61 0 -96 30.5z" />
    <glyph glyph-name="ucircumflex" unicode="&#xfb;" horiz-adv-x="527" 
d="M74 33q-39 43 -39 120q0 28 7 66l48 278h114l-46 -267q-7 -39 -7 -57q0 -86 76 -86q57 0 97 46l65 364h114l-88 -497h-107l5 42q-29 -25 -58.5 -38.5t-66.5 -13.5q-75 0 -114 43zM213 644l131 98l108 -111l-15 -74l-113 82l-128 -71z" />
    <glyph glyph-name="uni0215" unicode="&#x215;" horiz-adv-x="527" 
d="M74 33q-39 43 -39 120q0 28 7 66l48 278h114l-46 -267q-7 -39 -7 -57q0 -86 76 -86q57 0 97 46l65 364h114l-88 -497h-107l5 42q-29 -25 -58.5 -38.5t-66.5 -13.5q-75 0 -114 43zM206 585l-76 174h110l41 -174h-75zM350 585l-68 174h110l33 -174h-75z" />
    <glyph glyph-name="udieresis" unicode="&#xfc;" horiz-adv-x="527" 
d="M74 33q-39 43 -39 120q0 28 7 66l48 278h114l-46 -267q-7 -39 -7 -57q0 -86 76 -86q57 0 97 46l65 364h114l-88 -497h-107l5 42q-29 -25 -58.5 -38.5t-66.5 -13.5q-75 0 -114 43zM188 678h91l-17 -87h-91zM382 678h91l-17 -87h-91z" />
    <glyph glyph-name="uni1EE5" unicode="&#x1ee5;" horiz-adv-x="527" 
d="M74 33q-39 43 -39 120q0 28 7 66l48 278h114l-46 -267q-7 -39 -7 -57q0 -86 76 -86q57 0 97 46l65 364h114l-88 -497h-107l5 42q-29 -25 -58.5 -38.5t-66.5 -13.5q-75 0 -114 43zM119 -81h97l-18 -95h-97z" />
    <glyph glyph-name="ugrave" unicode="&#xf9;" horiz-adv-x="527" 
d="M74 33q-39 43 -39 120q0 28 7 66l48 278h114l-46 -267q-7 -39 -7 -57q0 -86 76 -86q57 0 97 46l65 364h114l-88 -497h-107l5 42q-29 -25 -58.5 -38.5t-66.5 -13.5q-75 0 -114 43zM229 646l20 110l165 -111l-13 -73z" />
    <glyph glyph-name="uni1EE7" unicode="&#x1ee7;" horiz-adv-x="527" 
d="M74 33q-39 43 -39 120q0 28 7 66l48 278h114l-46 -267q-7 -39 -7 -57q0 -86 76 -86q57 0 97 46l65 364h114l-88 -497h-107l5 42q-29 -25 -58.5 -38.5t-66.5 -13.5q-75 0 -114 43zM331.5 605q13.5 15 13.5 34q0 13 -8 20t-23 7q-25 0 -66 -18l-6 56q43 18 83 18
q37 0 60 -18t24 -51q0 -37 -23.5 -65t-67.5 -57l-29 36q29 23 42.5 38z" />
    <glyph glyph-name="uhorn" unicode="&#x1b0;" horiz-adv-x="527" 
d="M581.5 483q-37.5 -37 -90.5 -53l-76 -430h-107l5 42q-29 -25 -58.5 -38.5t-66.5 -13.5q-75 0 -114 43t-39 120q0 28 7 66l48 278h114l-46 -267q-7 -39 -7 -57q0 -86 76 -86q57 0 97 46l65 364h47q79 0 93 74h100q-10 -51 -47.5 -88z" />
    <glyph glyph-name="uni1EE9" unicode="&#x1ee9;" horiz-adv-x="527" 
d="M581.5 483q-37.5 -37 -90.5 -53l-76 -430h-107l5 42q-29 -25 -58.5 -38.5t-66.5 -13.5q-75 0 -114 43t-39 120q0 28 7 66l48 278h114l-46 -267q-7 -39 -7 -57q0 -86 76 -86q57 0 97 46l65 364h47q79 0 93 74h100q-10 -51 -47.5 -88zM238 650l196 107l-18 -121l-194 -64z
" />
    <glyph glyph-name="uni1EF1" unicode="&#x1ef1;" horiz-adv-x="527" 
d="M581.5 483q-37.5 -37 -90.5 -53l-76 -430h-107l5 42q-29 -25 -58.5 -38.5t-66.5 -13.5q-75 0 -114 43t-39 120q0 28 7 66l48 278h114l-46 -267q-7 -39 -7 -57q0 -86 76 -86q57 0 97 46l65 364h47q79 0 93 74h100q-10 -51 -47.5 -88zM119 -81h97l-18 -95h-97z" />
    <glyph glyph-name="uni1EEB" unicode="&#x1eeb;" horiz-adv-x="527" 
d="M581.5 483q-37.5 -37 -90.5 -53l-76 -430h-107l5 42q-29 -25 -58.5 -38.5t-66.5 -13.5q-75 0 -114 43t-39 120q0 28 7 66l48 278h114l-46 -267q-7 -39 -7 -57q0 -86 76 -86q57 0 97 46l65 364h47q79 0 93 74h100q-10 -51 -47.5 -88zM229 646l20 110l165 -111l-13 -73z
" />
    <glyph glyph-name="uni1EED" unicode="&#x1eed;" horiz-adv-x="527" 
d="M581.5 483q-37.5 -37 -90.5 -53l-76 -430h-107l5 42q-29 -25 -58.5 -38.5t-66.5 -13.5q-75 0 -114 43t-39 120q0 28 7 66l48 278h114l-46 -267q-7 -39 -7 -57q0 -86 76 -86q57 0 97 46l65 364h47q79 0 93 74h100q-10 -51 -47.5 -88zM331.5 605q13.5 15 13.5 34
q0 13 -8 20t-23 7q-25 0 -66 -18l-6 56q43 18 83 18q37 0 60 -18t24 -51q0 -37 -23.5 -65t-67.5 -57l-29 36q29 23 42.5 38z" />
    <glyph glyph-name="uni1EEF" unicode="&#x1eef;" horiz-adv-x="527" 
d="M581.5 483q-37.5 -37 -90.5 -53l-76 -430h-107l5 42q-29 -25 -58.5 -38.5t-66.5 -13.5q-75 0 -114 43t-39 120q0 28 7 66l48 278h114l-46 -267q-7 -39 -7 -57q0 -86 76 -86q57 0 97 46l65 364h47q79 0 93 74h100q-10 -51 -47.5 -88zM367.5 584.5q-16.5 5.5 -39.5 16.5
q-42 21 -62 21q-16 0 -26.5 -9.5t-13.5 -25.5h-77q10 57 37 87.5t68 30.5q17 0 33.5 -6.5t37.5 -17.5q15 -8 30.5 -14t27.5 -6q32 0 38 39h79q-11 -62 -36 -91.5t-65 -29.5q-15 0 -31.5 5.5z" />
    <glyph glyph-name="uhungarumlaut" unicode="&#x171;" horiz-adv-x="527" 
d="M74 33q-39 43 -39 120q0 28 7 66l48 278h114l-46 -267q-7 -39 -7 -57q0 -86 76 -86q57 0 97 46l65 364h114l-88 -497h-107l5 42q-29 -25 -58.5 -38.5t-66.5 -13.5q-75 0 -114 43zM306 759h109l-140 -174h-75zM458 759h109l-147 -174h-75z" />
    <glyph glyph-name="uni0217" unicode="&#x217;" horiz-adv-x="527" 
d="M74 33q-39 43 -39 120q0 28 7 66l48 278h114l-46 -267q-7 -39 -7 -57q0 -86 76 -86q57 0 97 46l65 364h114l-88 -497h-107l5 42q-29 -25 -58.5 -38.5t-66.5 -13.5q-75 0 -114 43zM431 688q34 -31 34 -80q0 -8 -2 -24h-82q1 6 1 13q0 24 -16 37t-43 13q-31 0 -52.5 -16.5
t-26.5 -46.5h-84q9 57 57 96t118 39q62 0 96 -31z" />
    <glyph glyph-name="umacron" unicode="&#x16b;" horiz-adv-x="527" 
d="M74 33q-39 43 -39 120q0 28 7 66l48 278h114l-46 -267q-7 -39 -7 -57q0 -86 76 -86q57 0 97 46l65 364h114l-88 -497h-107l5 42q-29 -25 -58.5 -38.5t-66.5 -13.5q-75 0 -114 43zM173 676h317l-15 -78h-318z" />
    <glyph glyph-name="uni1E7B" unicode="&#x1e7b;" horiz-adv-x="527" 
d="M74 33q-39 43 -39 120q0 28 7 66l48 278h114l-46 -267q-7 -39 -7 -57q0 -86 76 -86q57 0 97 46l65 364h114l-88 -497h-107l5 42q-29 -25 -58.5 -38.5t-66.5 -13.5q-75 0 -114 43zM166 664h319l-14 -74h-318zM218 831h91l-15 -83h-91zM410 831h91l-15 -83h-91z" />
    <glyph glyph-name="uogonek" unicode="&#x173;" horiz-adv-x="527" 
d="M74 33q-39 43 -39 120q0 28 7 66l48 278h114l-46 -267q-7 -39 -7 -57q0 -86 76 -86q57 0 97 46l65 364h114l-88 -497h-107l5 42q-29 -25 -58.5 -38.5t-66.5 -13.5q-75 0 -114 43zM504 10q-44 -29 -70.5 -57.5t-26.5 -58.5q0 -18 9.5 -27t27.5 -9q31 0 60 13l6 -53
q-38 -18 -84 -18q-38 0 -61 18.5t-24 51.5q0 40 30.5 77t73.5 63h59z" />
    <glyph glyph-name="uring" unicode="&#x16f;" horiz-adv-x="527" 
d="M74 33q-39 43 -39 120q0 28 7 66l48 278h114l-46 -267q-7 -39 -7 -57q0 -86 76 -86q57 0 97 46l65 364h114l-88 -497h-107l5 42q-29 -25 -58.5 -38.5t-66.5 -13.5q-75 0 -114 43zM246.5 591.5q-22.5 22.5 -22.5 56.5q0 32 17 59t45 43t61 16q41 0 63.5 -22t22.5 -56
q0 -50 -36 -84.5t-87 -34.5q-41 0 -63.5 22.5zM357.5 636.5q16.5 17.5 16.5 41.5q0 17 -10 27.5t-26 10.5q-22 0 -39 -18t-17 -41q0 -17 10 -27.5t27 -10.5q22 0 38.5 17.5z" />
    <glyph glyph-name="utilde" unicode="&#x169;" horiz-adv-x="527" 
d="M74 33q-39 43 -39 120q0 28 7 66l48 278h114l-46 -267q-7 -39 -7 -57q0 -86 76 -86q57 0 97 46l65 364h114l-88 -497h-107l5 42q-29 -25 -58.5 -38.5t-66.5 -13.5q-75 0 -114 43zM367.5 584.5q-16.5 5.5 -39.5 16.5q-42 21 -62 21q-16 0 -26.5 -9.5t-13.5 -25.5h-77
q10 57 37 87.5t68 30.5q17 0 33.5 -6.5t37.5 -17.5q15 -8 30.5 -14t27.5 -6q32 0 38 39h79q-11 -62 -36 -91.5t-65 -29.5q-15 0 -31.5 5.5z" />
    <glyph glyph-name="uni1E79" unicode="&#x1e79;" horiz-adv-x="527" 
d="M74 33q-39 43 -39 120q0 28 7 66l48 278h114l-46 -267q-7 -39 -7 -57q0 -86 76 -86q57 0 97 46l65 364h114l-88 -497h-107l5 42q-29 -25 -58.5 -38.5t-66.5 -13.5q-75 0 -114 43zM358 582.5q-16 5.5 -40 15.5q-15 7 -31 12.5t-27 5.5q-27 0 -33 -32h-72q9 50 33.5 76.5
t63.5 26.5q25 0 69 -20q15 -7 31 -12.5t28 -5.5q27 0 33 33h72q-7 -51 -32 -78t-64 -27q-15 0 -31 5.5zM262 797l187 95l-17 -108l-180 -58z" />
    <glyph glyph-name="v" unicode="v" horiz-adv-x="469" 
d="M36 497h114l53 -360l181 360h113l-269 -497h-99z" />
    <glyph glyph-name="w" unicode="w" horiz-adv-x="691" 
d="M48 497h113l18 -362l151 350h97l27 -350l146 362h113l-226 -497h-97l-37 337l-157 -337h-98z" />
    <glyph glyph-name="wacute" unicode="&#x1e83;" horiz-adv-x="691" 
d="M48 497h113l18 -362l151 350h97l27 -350l146 362h113l-226 -497h-97l-37 337l-157 -337h-98zM321 650l196 107l-18 -121l-194 -64z" />
    <glyph glyph-name="wcircumflex" unicode="&#x175;" horiz-adv-x="691" 
d="M48 497h113l18 -362l151 350h97l27 -350l146 362h113l-226 -497h-97l-37 337l-157 -337h-98zM296 644l131 98l108 -111l-15 -74l-113 82l-128 -71z" />
    <glyph glyph-name="wdieresis" unicode="&#x1e85;" horiz-adv-x="691" 
d="M48 497h113l18 -362l151 350h97l27 -350l146 362h113l-226 -497h-97l-37 337l-157 -337h-98zM271 678h91l-17 -87h-91zM465 678h91l-17 -87h-91z" />
    <glyph glyph-name="wgrave" unicode="&#x1e81;" horiz-adv-x="691" 
d="M48 497h113l18 -362l151 350h97l27 -350l146 362h113l-226 -497h-97l-37 337l-157 -337h-98zM312 646l20 110l165 -111l-13 -73z" />
    <glyph glyph-name="x" unicode="x" horiz-adv-x="468" 
d="M158 249l-108 248h135l57 -170l112 170h137l-201 -251l114 -246h-136l-60 161l-111 -161h-135z" />
    <glyph glyph-name="y" unicode="y" horiz-adv-x="504" 
d="M147 30l-114 467h127l64 -335l182 335h127l-424 -739h-115z" />
    <glyph glyph-name="yacute" unicode="&#xfd;" horiz-adv-x="504" 
d="M147 30l-114 467h127l64 -335l182 335h127l-424 -739h-115zM226 650l196 107l-18 -121l-194 -64z" />
    <glyph glyph-name="ycircumflex" unicode="&#x177;" horiz-adv-x="504" 
d="M147 30l-114 467h127l64 -335l182 335h127l-424 -739h-115zM201 644l131 98l108 -111l-15 -74l-113 82l-128 -71z" />
    <glyph glyph-name="ydieresis" unicode="&#xff;" horiz-adv-x="504" 
d="M147 30l-114 467h127l64 -335l182 335h127l-424 -739h-115zM176 678h91l-17 -87h-91zM370 678h91l-17 -87h-91z" />
    <glyph glyph-name="uni1E8F" unicode="&#x1e8f;" horiz-adv-x="504" 
d="M147 30l-114 467h127l64 -335l182 335h127l-424 -739h-115zM273 694h97l-18 -95h-97z" />
    <glyph glyph-name="uni1EF5" unicode="&#x1ef5;" horiz-adv-x="504" 
d="M147 30l-114 467h127l64 -335l182 335h127l-424 -739h-115zM284 -81h97l-18 -95h-97z" />
    <glyph glyph-name="ygrave" unicode="&#x1ef3;" horiz-adv-x="504" 
d="M147 30l-114 467h127l64 -335l182 335h127l-424 -739h-115zM217 646l20 110l165 -111l-13 -73z" />
    <glyph glyph-name="uni1EF7" unicode="&#x1ef7;" horiz-adv-x="504" 
d="M147 30l-114 467h127l64 -335l182 335h127l-424 -739h-115zM319.5 605q13.5 15 13.5 34q0 13 -8 20t-23 7q-25 0 -66 -18l-6 56q43 18 83 18q37 0 60 -18t24 -51q0 -37 -23.5 -65t-67.5 -57l-29 36q29 23 42.5 38z" />
    <glyph glyph-name="uni0233" unicode="&#x233;" horiz-adv-x="504" 
d="M147 30l-114 467h127l64 -335l182 335h127l-424 -739h-115zM161 676h317l-15 -78h-318z" />
    <glyph glyph-name="uni1EF9" unicode="&#x1ef9;" horiz-adv-x="504" 
d="M147 30l-114 467h127l64 -335l182 335h127l-424 -739h-115zM355.5 584.5q-16.5 5.5 -39.5 16.5q-42 21 -62 21q-16 0 -26.5 -9.5t-13.5 -25.5h-77q10 57 37 87.5t68 30.5q17 0 33.5 -6.5t37.5 -17.5q15 -8 30.5 -14t27.5 -6q32 0 38 39h79q-11 -62 -36 -91.5t-65 -29.5
q-15 0 -31.5 5.5z" />
    <glyph glyph-name="z" unicode="z" horiz-adv-x="452" 
d="M258 399h-207l18 98h396l-286 -399h206l-18 -98h-395z" />
    <glyph glyph-name="zacute" unicode="&#x17a;" horiz-adv-x="452" 
d="M258 399h-207l18 98h396l-286 -399h206l-18 -98h-395zM209 650l196 107l-18 -121l-194 -64z" />
    <glyph glyph-name="zcaron" unicode="&#x17e;" horiz-adv-x="452" 
d="M258 399h-207l18 98h396l-286 -399h206l-18 -98h-395zM170 670l15 74l114 -82l141 82l-15 -84l-146 -101z" />
    <glyph glyph-name="zdotaccent" unicode="&#x17c;" horiz-adv-x="452" 
d="M258 399h-207l18 98h396l-286 -399h206l-18 -98h-395zM256 694h97l-18 -95h-97z" />
    <glyph glyph-name="uni1E93" unicode="&#x1e93;" horiz-adv-x="452" 
d="M258 399h-207l18 98h396l-286 -399h206l-18 -98h-395zM108 -81h97l-18 -95h-97z" />
    <glyph glyph-name="iacute_j.loclNLD" horiz-adv-x="461" 
d="M95 644l182 115l-19 -109l-176 -79zM326 644l183 115l-20 -109l-176 -79zM95 497h114l-87 -497h-114zM158 -150q28 1 40 6t19 22t14 58l99 561h114l-107 -607q-11 -60 -47.5 -94.5t-95.5 -35.5l-42 -2z" />
    <glyph glyph-name="ordfeminine" unicode="&#xaa;" horiz-adv-x="313" 
d="M74.5 453q-21.5 19 -21.5 53q0 54 51.5 83t127.5 37q1 2 1 5q0 10 -9 15.5t-31 5.5q-40 0 -88 -16l8 74q65 20 117 20q48 0 74 -21.5t26 -61.5q0 -8 -2 -22l-15 -82l-2 -18q0 -7 3.5 -10t12.5 -3h3l-18 -78h-33q-53 0 -60 32q-15 -15 -39.5 -23.5t-47.5 -8.5
q-36 0 -57.5 19zM222 565q-66 -8 -66 -45q0 -20 23 -20q17 0 34 12z" />
    <glyph glyph-name="ordmasculine" unicode="&#xba;" horiz-adv-x="337" 
d="M93.5 468.5q-33.5 34.5 -33.5 86.5q0 47 24 87.5t65 64t91 23.5q61 0 94.5 -34t33.5 -86q0 -49 -24.5 -89.5t-65.5 -63.5t-90 -23q-61 0 -94.5 34.5zM252 535.5q19 29.5 19 69.5q0 26 -11 39.5t-33 13.5q-33 0 -51.5 -29.5t-18.5 -68.5q0 -26 11 -40t32 -14q33 0 52 29.5
z" />
    <glyph glyph-name="pi" unicode="&#x3c0;" horiz-adv-x="673" 
d="M545 92l-16 -87q-14 -6 -36 -10.5t-45 -4.5q-52 0 -80 25t-28 73q0 10 5 38l49 279h-156l-71 -405h-113l71 405h-96l16 92h575l-16 -92h-97l-45 -259q-3 -13 -3 -24q0 -37 39 -37q26 0 47 7z" />
    <glyph glyph-name="zero" unicode="0" horiz-adv-x="686" 
d="M98.5 60q-61.5 74 -61.5 200q0 117 45 221.5t127.5 168.5t187.5 64q109 0 170.5 -72t61.5 -195q0 -117 -45.5 -223t-128 -172t-186.5 -66q-109 0 -170.5 74zM407 144q50 52 76 132.5t26 163.5t-35 126t-96 43q-70 0 -120 -51t-75.5 -130.5t-25.5 -163.5q0 -86 34 -129
t96 -43q70 0 120 52z" />
    <glyph glyph-name="one" unicode="1" horiz-adv-x="349" 
d="M161 532q-53 -33 -101 -43l5 102q38 9 85 41.5t70 67.5h88l-124 -700h-117z" />
    <glyph glyph-name="two" unicode="2" horiz-adv-x="510" 
d="M203 285q79 97 107.5 144t28.5 93q0 38 -20.5 59.5t-56.5 21.5q-46 0 -89.5 -22t-93.5 -64l7 120q100 77 212 77q80 0 121 -43.5t41 -114.5q0 -54 -21 -104t-57 -99.5t-101 -126.5l-97 -116h230l-19 -110h-425z" />
    <glyph glyph-name="three" unicode="3" horiz-adv-x="521" 
d="M408.5 310.5q26.5 -40.5 26.5 -99.5q0 -66 -33.5 -117t-92 -79.5t-130.5 -28.5q-113 0 -209 61l47 102q82 -60 166 -60q59 0 94.5 32t35.5 88q0 49 -30 74.5t-90 25.5h-55l19 109h54q63 0 101.5 30.5t38.5 81.5q0 38 -24 59.5t-68 21.5q-70 0 -161 -53l1 108
q89 48 191 48q83 0 131 -43.5t48 -115.5q0 -62 -36.5 -111t-98.5 -72q48 -21 74.5 -61.5z" />
    <glyph glyph-name="four" unicode="4" horiz-adv-x="582" 
d="M530 263l-18 -97h-80l-29 -166h-111l29 166h-345l470 534h81l-77 -437h80zM339 263l39 225l-197 -225h158z" />
    <glyph glyph-name="five" unicode="5" horiz-adv-x="508" 
d="M235 586l-46 -148q22 3 46 3q93 0 147 -52.5t54 -143.5q0 -76 -36 -134.5t-98 -91t-136 -32.5q-113 0 -193 57l54 100q37 -25 71 -38t75 -13q63 0 103.5 37t40.5 98q0 55 -33.5 85t-97.5 30q-63 0 -130 -14l108 371h322l-27 -114h-224z" />
    <glyph glyph-name="six" unicode="6" horiz-adv-x="568" 
d="M451.5 370.5q48.5 -50.5 48.5 -131.5q0 -71 -34.5 -128.5t-94.5 -91t-134 -33.5q-95 0 -152.5 56.5t-57.5 151.5q0 103 57.5 205t150.5 184.5t198 130.5l66 -77q-88 -39 -179 -106.5t-140 -152.5q61 43 143 43q80 0 128.5 -50.5zM318 104q32 19 50.5 51t18.5 70
q0 42 -27.5 69.5t-70.5 27.5q-40 0 -72.5 -18.5t-51.5 -51t-19 -70.5q0 -43 28 -70t72 -27q40 0 72 19z" />
    <glyph glyph-name="seven" unicode="7" horiz-adv-x="508" 
d="M548 700l-405 -700h-124l339 589h-273l20 111h443z" />
    <glyph glyph-name="eight" unicode="8" horiz-adv-x="590" 
d="M486.5 321.5q19.5 -36.5 19.5 -82.5q0 -72 -36.5 -130t-99 -90.5t-136.5 -32.5q-96 0 -153.5 48.5t-57.5 128.5q0 72 38.5 130t102.5 89q-49 42 -51 111q0 63 32 113.5t87.5 79t121.5 28.5q87 0 130 -43.5t43 -110.5q0 -57 -25.5 -103.5t-70.5 -75.5q36 -23 55.5 -59.5z
M254 586q-33 -32 -33 -79q1 -34 23 -56t62 -22q49 0 81 33t32 80q0 36 -20 56t-60 20q-52 0 -85 -32zM352.5 128q41.5 39 41.5 99q0 45 -28 71.5t-79 26.5q-65 0 -107 -41t-42 -103q0 -43 28 -67.5t79 -24.5q66 0 107.5 39z" />
    <glyph glyph-name="nine" unicode="9" horiz-adv-x="576" 
d="M476.5 657.5q57.5 -56.5 57.5 -151.5q0 -103 -57.5 -205t-150.5 -184.5t-198 -130.5l-66 77q88 39 179 106.5t140 152.5q-61 -43 -143 -43q-80 0 -128.5 50.5t-48.5 131.5q0 71 34.5 128.5t94.5 91t134 33.5q95 0 152.5 -56.5zM344.5 396.5q32.5 18.5 51.5 51t19 70.5
q0 43 -28 70t-72 27q-40 0 -72 -19t-50.5 -51t-18.5 -70q0 -42 27.5 -69.5t70.5 -27.5q40 0 72.5 18.5z" />
    <glyph glyph-name="uni2080" unicode="&#x2080;" horiz-adv-x="375" 
d="M12 -31q-36 41 -36 111q0 64 26.5 121.5t74 92t108.5 34.5q65 0 102 -39.5t37 -107.5q0 -66 -26.5 -124.5t-74 -93.5t-108.5 -35q-67 0 -103 41zM182.5 35q22.5 25 34 62t11.5 74t-15 56t-42 19q-48 0 -73.5 -50.5t-25.5 -111.5q0 -74 57 -74q31 0 53.5 25z" />
    <glyph glyph-name="uni2081" unicode="&#x2081;" horiz-adv-x="222" 
d="M67 211q-37 -25 -69 -33l7 76q26 8 54.5 25t45.5 35h69l-66 -372h-89z" />
    <glyph glyph-name="uni2082" unicode="&#x2082;" horiz-adv-x="300" 
d="M123 23h108l-14 -81h-266l139 158q31 34 45 58t14 48q0 19 -11 29.5t-33 10.5q-43 0 -100 -43l8 87q67 38 129 38q50 0 79 -26t29 -68q0 -40 -21 -76.5t-66 -88.5z" />
    <glyph glyph-name="uni2083" unicode="&#x2083;" horiz-adv-x="306" 
d="M222 61q0 -38 -21.5 -68.5t-57.5 -47.5t-78 -17q-70 0 -125 35l33 81q22 -18 43 -27t47 -9q29 0 46 12.5t17 35.5q0 19 -13.5 30t-40.5 11h-30l13 73h31q26 0 41.5 11.5t15.5 31.5q0 16 -10.5 25.5t-31.5 9.5q-40 0 -92 -31l8 84q56 27 120 27q50 0 77.5 -24t27.5 -65
q0 -34 -18.5 -60t-51.5 -42q50 -23 50 -76z" />
    <glyph glyph-name="uni2084" unicode="&#x2084;" horiz-adv-x="328" 
d="M271 90l-12 -68h-49l-14 -80h-79l14 80h-203l261 292h73l-40 -224h49zM143 90l20 106l-93 -106h73z" />
    <glyph glyph-name="uni2085" unicode="&#x2085;" horiz-adv-x="302" 
d="M101 234l-17 -57q18 2 26 2q57 0 86.5 -28.5t29.5 -78.5q0 -64 -47 -104t-118 -40q-63 0 -114 28l31 80q43 -28 87 -28q30 0 47 13t17 37q0 43 -64 43q-42 0 -75 -6l60 219h204l-21 -80h-132z" />
    <glyph glyph-name="uni2086" unicode="&#x2086;" horiz-adv-x="302" 
d="M218.5 144.5q27.5 -26.5 27.5 -70.5q0 -41 -20 -74.5t-55 -52.5t-77 -19q-57 0 -90.5 33t-33.5 89q0 87 68.5 161t169.5 117l42 -59q-49 -18 -93 -47t-73 -64q26 13 59 13q48 0 75.5 -26.5zM143 19q16 17 16 41q0 18 -11 28.5t-30 10.5q-24 0 -41 -17t-17 -41
q0 -17 11.5 -28t30.5 -11q25 0 41 17z" />
    <glyph glyph-name="uni2087" unicode="&#x2087;" horiz-adv-x="290" 
d="M291 320l-229 -378h-88l182 298h-149l14 80h270z" />
    <glyph glyph-name="uni2088" unicode="&#x2088;" horiz-adv-x="301" 
d="M223.5 114.5q11.5 -20.5 11.5 -46.5q0 -63 -46 -101.5t-114 -38.5q-56 0 -89 26.5t-33 70.5q0 40 22 72t60 50q-25 22 -25 58q0 53 39.5 88t97.5 35q48 0 72.5 -24t24.5 -60q0 -30 -14.5 -55.5t-39.5 -41.5q22 -12 33.5 -32.5zM100.5 244q-12.5 -15 -12.5 -33
q0 -14 8 -22.5t23 -8.5q19 0 31.5 15t12.5 35q0 29 -30 29q-20 0 -32.5 -15zM130 17q17 20 17 46q0 18 -11 29.5t-31 11.5q-27 0 -43.5 -18.5t-16.5 -46.5q0 -20 10.5 -31t30.5 -11q27 0 44 20z" />
    <glyph glyph-name="uni2089" unicode="&#x2089;" horiz-adv-x="323" 
d="M233 295q33 -33 33 -88q0 -87 -68 -161.5t-170 -117.5l-42 59q49 18 92.5 46.5t72.5 62.5q-25 -11 -53 -11q-50 0 -79 27t-29 72q0 40 20.5 73t56 52t78.5 19q55 0 88 -33zM89 168.5q11 -10.5 29 -10.5q24 0 40.5 17t16.5 40q0 17 -11 27.5t-30 10.5q-24 0 -40 -16.5
t-16 -40.5q0 -17 11 -27.5z" />
    <glyph glyph-name="zero.dnom" horiz-adv-x="375" 
d="M20 27q-36 41 -36 111q0 64 26.5 121.5t74 92t108.5 34.5q65 0 102 -39.5t37 -107.5q0 -66 -26.5 -124.5t-74 -93.5t-108.5 -35q-67 0 -103 41zM190.5 93q22.5 25 34 62t11.5 74t-15 56t-42 19q-48 0 -73.5 -50.5t-25.5 -111.5q0 -74 57 -74q31 0 53.5 25z" />
    <glyph glyph-name="one.dnom" horiz-adv-x="222" 
d="M75 269q-37 -25 -69 -33l7 76q26 8 54.5 25t45.5 35h69l-66 -372h-89z" />
    <glyph glyph-name="two.dnom" horiz-adv-x="300" 
d="M130 81h108l-14 -81h-266l139 158q31 34 45 58t14 48q0 19 -11 29.5t-33 10.5q-43 0 -100 -43l8 87q67 38 129 38q50 0 79 -26t29 -68q0 -40 -21 -76.5t-66 -88.5z" />
    <glyph glyph-name="three.dnom" horiz-adv-x="306" 
d="M229 119q0 -38 -21.5 -68.5t-57.5 -47.5t-78 -17q-70 0 -125 35l33 81q22 -18 43 -27t47 -9q29 0 46 12.5t17 35.5q0 19 -13.5 30t-40.5 11h-30l13 73h31q26 0 41.5 11.5t15.5 31.5q0 16 -10.5 25.5t-31.5 9.5q-40 0 -92 -31l8 84q56 27 120 27q50 0 77.5 -24t27.5 -65
q0 -34 -18.5 -60t-51.5 -42q50 -23 50 -76z" />
    <glyph glyph-name="four.dnom" horiz-adv-x="328" 
d="M278 148l-12 -68h-49l-14 -80h-79l14 80h-203l261 292h73l-40 -224h49zM150 148l20 106l-93 -106h73z" />
    <glyph glyph-name="five.dnom" horiz-adv-x="303" 
d="M108 292l-17 -57q18 2 26 2q57 0 86.5 -28.5t29.5 -78.5q0 -64 -47 -104t-118 -40q-63 0 -114 28l31 80q43 -28 87 -28q30 0 47 13t17 37q0 43 -64 43q-42 0 -75 -6l60 219h204l-21 -80h-132z" />
    <glyph glyph-name="six.dnom" horiz-adv-x="302" 
d="M225.5 202.5q27.5 -26.5 27.5 -70.5q0 -41 -20 -74.5t-55 -52.5t-77 -19q-57 0 -90.5 33t-33.5 89q0 87 68.5 161t169.5 117l42 -59q-49 -18 -93 -47t-73 -64q26 13 59 13q48 0 75.5 -26.5zM150 77q16 17 16 41q0 18 -11 28.5t-30 10.5q-24 0 -41 -17t-17 -41
q0 -17 11.5 -28t30.5 -11q25 0 41 17z" />
    <glyph glyph-name="seven.dnom" horiz-adv-x="290" 
d="M298 378l-229 -378h-88l182 298h-149l14 80h270z" />
    <glyph glyph-name="eight.dnom" horiz-adv-x="301" 
d="M230.5 172.5q11.5 -20.5 11.5 -46.5q0 -63 -46 -101.5t-114 -38.5q-56 0 -89 26.5t-33 70.5q0 40 22 72t60 50q-25 22 -25 58q0 53 39.5 88t97.5 35q48 0 72.5 -24t24.5 -60q0 -30 -14.5 -55.5t-39.5 -41.5q22 -12 33.5 -32.5zM107.5 302q-12.5 -15 -12.5 -33
q0 -14 8 -22.5t23 -8.5q19 0 31.5 15t12.5 35q0 29 -30 29q-20 0 -32.5 -15zM137 75q17 20 17 46q0 18 -11 29.5t-31 11.5q-27 0 -43.5 -18.5t-16.5 -46.5q0 -20 10.5 -31t30.5 -11q27 0 44 20z" />
    <glyph glyph-name="nine.dnom" horiz-adv-x="323" 
d="M240 353q33 -33 33 -88q0 -87 -68 -161.5t-170 -117.5l-42 59q49 18 92.5 46.5t72.5 62.5q-25 -11 -53 -11q-50 0 -79 27t-29 72q0 40 20.5 73t56 52t78.5 19q55 0 88 -33zM96 226.5q11 -10.5 29 -10.5q24 0 40.5 17t16.5 40q0 17 -11 27.5t-30 10.5q-24 0 -40 -16.5
t-16 -40.5q0 -17 11 -27.5z" />
    <glyph glyph-name="zero.numr" horiz-adv-x="389" 
d="M69 355q-36 41 -36 111q0 64 26.5 121.5t74 92t108.5 34.5q65 0 102 -39.5t37 -107.5q0 -66 -26.5 -124.5t-74 -93.5t-108.5 -35q-67 0 -103 41zM239.5 421q22.5 25 34 62t11.5 74t-15 56t-42 19q-48 0 -73.5 -50.5t-25.5 -111.5q0 -74 57 -74q31 0 53.5 25z" />
    <glyph glyph-name="one.numr" horiz-adv-x="209" 
d="M95 597q-37 -25 -69 -33l7 76q26 8 54.5 25t45.5 35h69l-66 -372h-89z" />
    <glyph glyph-name="two.numr" horiz-adv-x="319" 
d="M179 409h108l-14 -81h-266l139 158q31 34 45 58t14 48q0 19 -11 29.5t-33 10.5q-43 0 -100 -43l8 87q67 38 129 38q50 0 79 -26t29 -68q0 -40 -21 -76.5t-66 -88.5z" />
    <glyph glyph-name="three.numr" horiz-adv-x="328" 
d="M295 447q0 -38 -21.5 -68.5t-57.5 -47.5t-78 -17q-70 0 -125 35l33 81q22 -18 43 -27t47 -9q29 0 46 12.5t17 35.5q0 19 -13.5 30t-40.5 11h-30l13 73h31q26 0 41.5 11.5t15.5 31.5q0 16 -10.5 25.5t-31.5 9.5q-40 0 -92 -31l8 84q56 27 120 27q50 0 77.5 -24t27.5 -65
q0 -34 -18.5 -60t-51.5 -42q50 -23 50 -76z" />
    <glyph glyph-name="four.numr" horiz-adv-x="369" 
d="M381 476l-12 -68h-49l-14 -80h-79l14 80h-203l261 292h73l-40 -224h49zM253 476l20 106l-93 -106h73z" />
    <glyph glyph-name="five.numr" horiz-adv-x="340" 
d="M181 620l-17 -57q18 2 26 2q57 0 86.5 -28.5t29.5 -78.5q0 -64 -47 -104t-118 -40q-63 0 -114 28l31 80q43 -28 87 -28q30 0 47 13t17 37q0 43 -64 43q-42 0 -75 -6l60 219h204l-21 -80h-132z" />
    <glyph glyph-name="six.numr" horiz-adv-x="326" 
d="M271.5 530.5q27.5 -26.5 27.5 -70.5q0 -41 -20 -74.5t-55 -52.5t-77 -19q-57 0 -90.5 33t-33.5 89q0 87 68.5 161t169.5 117l42 -59q-49 -18 -93 -47t-73 -64q26 13 59 13q48 0 75.5 -26.5zM196 405q16 17 16 41q0 18 -11 28.5t-30 10.5q-24 0 -41 -17t-17 -41
q0 -17 11.5 -28t30.5 -11q25 0 41 17z" />
    <glyph glyph-name="seven.numr" horiz-adv-x="293" 
d="M330 700l-229 -378h-88l182 298h-149l14 80h270z" />
    <glyph glyph-name="eight.numr" horiz-adv-x="317" 
d="M283.5 500.5q11.5 -20.5 11.5 -46.5q0 -63 -46 -101.5t-114 -38.5q-56 0 -89 26.5t-33 70.5q0 40 22 72t60 50q-25 22 -25 58q0 53 39.5 88t97.5 35q48 0 72.5 -24t24.5 -60q0 -30 -14.5 -55.5t-39.5 -41.5q22 -12 33.5 -32.5zM160.5 630q-12.5 -15 -12.5 -33
q0 -14 8 -22.5t23 -8.5q19 0 31.5 15t12.5 35q0 29 -30 29q-20 0 -32.5 -15zM190 403q17 20 17 46q0 18 -11 29.5t-31 11.5q-27 0 -43.5 -18.5t-16.5 -46.5q0 -20 10.5 -31t30.5 -11q27 0 44 20z" />
    <glyph glyph-name="nine.numr" horiz-adv-x="286" 
d="M270 681q33 -33 33 -88q0 -87 -68 -161.5t-170 -117.5l-42 59q49 18 92.5 46.5t72.5 62.5q-25 -11 -53 -11q-50 0 -79 27t-29 72q0 40 20.5 73t56 52t78.5 19q55 0 88 -33zM126 554.5q11 -10.5 29 -10.5q24 0 40.5 17t16.5 40q0 17 -11 27.5t-30 10.5q-24 0 -40 -16.5
t-16 -40.5q0 -17 11 -27.5z" />
    <glyph glyph-name="uni2070" unicode="&#x2070;" horiz-adv-x="388" 
d="M76 413q-36 41 -36 111q0 64 26.5 121.5t74 92t108.5 34.5q65 0 102 -39.5t37 -107.5q0 -66 -26.5 -124.5t-74 -93.5t-108.5 -35q-67 0 -103 41zM246.5 479q22.5 25 34 62t11.5 74t-15 56t-42 19q-48 0 -73.5 -50.5t-25.5 -111.5q0 -74 57 -74q31 0 53.5 25z" />
    <glyph glyph-name="uni00B9" unicode="&#xb9;" horiz-adv-x="210" 
d="M102 655q-37 -25 -69 -33l7 76q26 8 54.5 25t45.5 35h69l-66 -372h-89z" />
    <glyph glyph-name="uni00B2" unicode="&#xb2;" horiz-adv-x="319" 
d="M186 467h108l-14 -81h-266l139 158q31 34 45 58t14 48q0 19 -11 29.5t-33 10.5q-43 0 -100 -43l8 87q67 38 129 38q50 0 79 -26t29 -68q0 -40 -21 -76.5t-66 -88.5z" />
    <glyph glyph-name="uni00B3" unicode="&#xb3;" horiz-adv-x="328" 
d="M303 509q0 -38 -21.5 -68.5t-57.5 -47.5t-78 -17q-70 0 -125 35l33 81q22 -18 43 -27t47 -9q29 0 46 12.5t17 35.5q0 19 -13.5 30t-40.5 11h-30l13 73h31q26 0 41.5 11.5t15.5 31.5q0 16 -10.5 25.5t-31.5 9.5q-40 0 -92 -31l8 84q56 27 120 27q50 0 77.5 -24t27.5 -65
q0 -34 -18.5 -60t-51.5 -42q50 -23 50 -76z" />
    <glyph glyph-name="uni2074" unicode="&#x2074;" horiz-adv-x="370" 
d="M389 534l-12 -68h-49l-14 -80h-79l14 80h-203l261 292h73l-40 -224h49zM261 534l20 106l-93 -106h73z" />
    <glyph glyph-name="uni2075" unicode="&#x2075;" horiz-adv-x="339" 
d="M188 678l-17 -57q18 2 26 2q57 0 86.5 -28.5t29.5 -78.5q0 -64 -47 -104t-118 -40q-63 0 -114 28l31 80q43 -28 87 -28q30 0 47 13t17 37q0 43 -64 43q-42 0 -75 -6l60 219h204l-21 -80h-132z" />
    <glyph glyph-name="uni2076" unicode="&#x2076;" horiz-adv-x="327" 
d="M279.5 588.5q27.5 -26.5 27.5 -70.5q0 -41 -20 -74.5t-55 -52.5t-77 -19q-57 0 -90.5 33t-33.5 89q0 87 68.5 161t169.5 117l42 -59q-49 -18 -93 -47t-73 -64q26 13 59 13q48 0 75.5 -26.5zM204 463q16 17 16 41q0 18 -11 28.5t-30 10.5q-24 0 -41 -17t-17 -41
q0 -17 11.5 -28t30.5 -11q25 0 41 17z" />
    <glyph glyph-name="uni2077" unicode="&#x2077;" horiz-adv-x="292" 
d="M337 764l-229 -378h-88l182 298h-149l14 80h270z" />
    <glyph glyph-name="uni2078" unicode="&#x2078;" horiz-adv-x="317" 
d="M290.5 558.5q11.5 -20.5 11.5 -46.5q0 -63 -46 -101.5t-114 -38.5q-56 0 -89 26.5t-33 70.5q0 40 22 72t60 50q-25 22 -25 58q0 53 39.5 88t97.5 35q48 0 72.5 -24t24.5 -60q0 -30 -14.5 -55.5t-39.5 -41.5q22 -12 33.5 -32.5zM167.5 688q-12.5 -15 -12.5 -33
q0 -14 8 -22.5t23 -8.5q19 0 31.5 15t12.5 35q0 29 -30 29q-20 0 -32.5 -15zM197 461q17 20 17 46q0 18 -11 29.5t-31 11.5q-27 0 -43.5 -18.5t-16.5 -46.5q0 -20 10.5 -31t30.5 -11q27 0 44 20z" />
    <glyph glyph-name="uni2079" unicode="&#x2079;" horiz-adv-x="286" 
d="M277 739q33 -33 33 -88q0 -87 -68 -161.5t-170 -117.5l-42 59q49 18 92.5 46.5t72.5 62.5q-25 -11 -53 -11q-50 0 -79 27t-29 72q0 40 20.5 73t56 52t78.5 19q55 0 88 -33zM133 612.5q11 -10.5 29 -10.5q24 0 40.5 17t16.5 40q0 17 -11 27.5t-30 10.5q-24 0 -40 -16.5
t-16 -40.5q0 -17 11 -27.5z" />
    <glyph glyph-name="fraction" unicode="&#x2044;" horiz-adv-x="84" 
d="M262 700h94l-533 -700h-95z" />
    <glyph glyph-name="onehalf" unicode="&#xbd;" horiz-adv-x="691" 
d="M511 700h94l-533 -700h-95zM514 81h108l-14 -81h-266l139 158q31 34 45 58t14 48q0 19 -11 29.5t-33 10.5q-43 0 -100 -43l8 87q67 38 129 38q50 0 79 -26t29 -68q0 -40 -21 -76.5t-66 -88.5zM93 597q-37 -25 -69 -33l7 76q26 8 54.5 25t45.5 35h69l-66 -372h-89z" />
    <glyph glyph-name="onequarter" unicode="&#xbc;" horiz-adv-x="642" 
d="M91 597q-37 -25 -69 -33l7 76q26 8 54.5 25t45.5 35h69l-66 -372h-89zM511 700h94l-533 -700h-95zM618 148l-12 -68h-49l-14 -80h-79l14 80h-203l261 292h73l-40 -224h49zM490 148l20 106l-93 -106h73z" />
    <glyph glyph-name="threequarters" unicode="&#xbe;" horiz-adv-x="745" 
d="M614 700h94l-533 -700h-95zM306 447q0 -38 -21.5 -68.5t-57.5 -47.5t-78 -17q-70 0 -125 35l33 81q22 -18 43 -27t47 -9q29 0 46 12.5t17 35.5q0 19 -13.5 30t-40.5 11h-30l13 73h31q26 0 41.5 11.5t15.5 31.5q0 16 -10.5 25.5t-31.5 9.5q-40 0 -92 -31l8 84
q56 27 120 27q50 0 77.5 -24t27.5 -65q0 -34 -18.5 -60t-51.5 -42q50 -23 50 -76zM721 148l-12 -68h-49l-14 -80h-79l14 80h-203l261 292h73l-40 -224h49zM593 148l20 106l-93 -106h73z" />
    <glyph glyph-name="asterisk" unicode="*" horiz-adv-x="420" 
d="M190 561l-117 77l47 57l104 -83l19 141h70l-30 -140l132 82l27 -59l-143 -77l119 -78l-46 -57l-108 84l-20 -144h-70l32 144l-134 -83l-27 59z" />
    <glyph glyph-name="backslash" unicode="\" horiz-adv-x="340" 
d="M67 700h115l111 -785h-115z" />
    <glyph glyph-name="periodcentered" unicode="&#xb7;" horiz-adv-x="230" 
d="M65 343h117l-23 -130h-117z" />
    <glyph glyph-name="bullet" unicode="&#x2022;" horiz-adv-x="290" 
d="M61 196q-24 27 -24 66q0 33 17.5 61.5t46.5 46t60 17.5q37 0 61 -27t24 -66q0 -33 -17.5 -61.5t-46 -46t-60.5 -17.5q-37 0 -61 27z" />
    <glyph glyph-name="colon" unicode=":" horiz-adv-x="196" 
d="M73 497h124l-22 -127h-124zM9 127h124l-22 -127h-124z" />
    <glyph glyph-name="comma" unicode="," horiz-adv-x="196" 
d="M-29 -116l62 116h-46l23 127h123l-20 -116l-84 -127h-58z" />
    <glyph glyph-name="ellipsis" unicode="&#x2026;" horiz-adv-x="602" 
d="M9 127h124l-22 -127h-124zM212 127h124l-22 -127h-124zM415 127h124l-22 -127h-124z" />
    <glyph glyph-name="exclam" unicode="!" horiz-adv-x="203" 
d="M46 224l70 476h124l-97 -476l-5 -28h-97zM15 127h124l-23 -127h-123z" />
    <glyph glyph-name="exclamdown" unicode="&#xa1;" horiz-adv-x="202" 
d="M179 373h-124l23 127h123zM148 276l-70 -476h-124l97 476l5 28h97z" />
    <glyph glyph-name="numbersign" unicode="#" horiz-adv-x="675" 
d="M129 213h-110l60 100h106l53 103h-114l47 94h118l103 190h88l-101 -190h108l102 190h88l-102 -190h105l-49 -94h-107l-54 -103h118l-62 -100h-111l-119 -224h-89l119 224h-107l-121 -224h-87zM381 313l55 103h-108l-56 -103h109z" />
    <glyph glyph-name="period" unicode="." horiz-adv-x="196" 
d="M9 127h124l-22 -127h-124z" />
    <glyph glyph-name="question" unicode="?" horiz-adv-x="466" 
d="M106 211q10 54 37.5 91.5t75.5 80.5q39 36 57.5 55t32 43.5t13.5 53.5q0 32 -22.5 49.5t-59.5 17.5t-72 -10t-74 -28l6 107q44 21 88.5 32t99.5 11q80 0 124 -40t44 -104q0 -61 -32 -107.5t-94 -101.5q-45 -39 -70.5 -71.5t-32.5 -72.5l-3 -21h-120zM90 127h123l-22 -127
h-124z" />
    <glyph glyph-name="questiondown" unicode="&#xbf;" horiz-adv-x="461" 
d="M371 373h-123l22 127h124zM355 289q-10 -54 -37.5 -91.5t-75.5 -80.5q-39 -36 -57.5 -55t-32 -43.5t-13.5 -53.5q0 -32 22.5 -49.5t59.5 -17.5t72 10t74 28l-6 -107q-44 -21 -88.5 -32t-99.5 -11q-80 0 -124 40t-44 104q0 61 32 107.5t94 101.5q45 39 70.5 71.5
t32.5 72.5l3 21h120z" />
    <glyph glyph-name="quotedbl" unicode="&#x22;" horiz-adv-x="324" 
d="M71 700h116l-56 -203h-78zM235 700h116l-56 -203h-78z" />
    <glyph glyph-name="quotesingle" unicode="'" horiz-adv-x="160" 
d="M71 700h116l-56 -203h-78z" />
    <glyph glyph-name="semicolon" unicode=";" horiz-adv-x="196" 
d="M-29 -116l62 116h-46l23 127h123l-20 -116l-84 -127h-58zM73 497h124l-22 -127h-124z" />
    <glyph glyph-name="slash" unicode="/" horiz-adv-x="363" 
d="M359 700h120l-402 -785h-120z" />
    <glyph glyph-name="underscore" unicode="_" horiz-adv-x="525" 
d="M-54 -36h527l-15 -92h-528z" />
    <glyph glyph-name="periodcentered.loclCAT.case" horiz-adv-x="225" 
d="M66 339h114l-21 -122h-114z" />
    <glyph glyph-name="periodcentered.loclCAT" horiz-adv-x="224" 
d="M74 333h96l-20 -110h-96z" />
    <glyph glyph-name="braceleft" unicode="{" horiz-adv-x="325" 
d="M395 750l-17 -97h-27q-49 0 -76.5 -21t-35.5 -69q-3 -23 -7 -79l-6 -63q-8 -44 -32.5 -71.5t-64.5 -42.5q54 -26 54 -85q0 -24 -20 -102q-18 -72 -18 -93q0 -35 21 -50.5t63 -15.5h27l-17 -97h-37q-78 0 -115 32t-37 89q0 18 4.5 42t8.5 40l6 24q21 74 21 115
q0 33 -16.5 48.5t-52.5 15.5l12 74q47 0 70 25.5t33 81.5q4 32 6 71q4 50 7 71q13 73 65 115t144 42h37z" />
    <glyph glyph-name="braceright" unicode="}" horiz-adv-x="325" 
d="M251.5 359.5q16.5 -15.5 52.5 -15.5l-12 -74q-47 0 -70 -25.5t-33 -81.5q-4 -32 -6 -71q-4 -50 -7 -71q-13 -73 -65 -115t-144 -42h-37l17 97h27q49 0 76.5 21t35.5 69q3 23 7 79l6 63q8 44 32.5 71.5t64.5 42.5q-54 26 -54 85q0 24 20 102q18 72 18 93q0 35 -21 50.5
t-63 15.5h-27l17 97h37q78 0 115 -32t37 -89q0 -18 -4.5 -42t-8.5 -40l-6 -24q-21 -74 -21 -115q0 -33 16.5 -48.5z" />
    <glyph glyph-name="bracketleft" unicode="[" horiz-adv-x="320" 
d="M149 750h242l-17 -97h-138l-122 -692h138l-17 -97h-242z" />
    <glyph glyph-name="bracketright" unicode="]" horiz-adv-x="326" 
d="M-51 -39h127l122 692h-127l17 97h231l-156 -886h-231z" />
    <glyph glyph-name="parenleft" unicode="(" horiz-adv-x="309" 
d="M70.5 1.5q-18.5 69.5 -18.5 152.5q0 325 219 596h104q-102 -132 -157 -289.5t-55 -315.5q0 -146 56 -281h-98q-32 68 -50.5 137.5z" />
    <glyph glyph-name="parenright" unicode=")" horiz-adv-x="309" 
d="M238.5 612.5q18.5 -69.5 18.5 -152.5q0 -325 -219 -596h-104q102 132 157 289.5t55 315.5q0 146 -56 281h98q32 -68 50.5 -137.5z" />
    <glyph glyph-name="emdash" unicode="&#x2014;" horiz-adv-x="731" 
d="M16 357h715l-15 -92h-716z" />
    <glyph glyph-name="endash" unicode="&#x2013;" horiz-adv-x="644" 
d="M16 357h628l-17 -92h-627z" />
    <glyph glyph-name="figuredash" unicode="&#x2012;" horiz-adv-x="686" 
d="M17 357h669l-16 -92h-670z" />
    <glyph glyph-name="uni2015" unicode="&#x2015;" horiz-adv-x="731" 
d="M16 357h715l-15 -92h-716z" />
    <glyph glyph-name="hyphen" unicode="-" horiz-adv-x="405" 
d="M62 357h292l-17 -92h-292z" />
    <glyph glyph-name="uni2010" unicode="&#x2010;" horiz-adv-x="405" 
d="M62 357h292l-17 -92h-292z" />
    <glyph glyph-name="uni00AD" unicode="&#xad;" horiz-adv-x="425" 
d="M72 357h292l-17 -92h-292z" />
    <glyph glyph-name="guillemotleft" unicode="&#xab;" horiz-adv-x="576" 
d="M14 284l179 206h135l-179 -206l106 -206h-135zM259 284l179 206h135l-179 -206l106 -206h-135z" />
    <glyph glyph-name="guillemotright" unicode="&#xbb;" horiz-adv-x="577" 
d="M180 284l-107 206h135l106 -206l-179 -206h-135zM424 284l-106 206h135l106 -206l-179 -206h-135z" />
    <glyph glyph-name="guilsinglleft" unicode="&#x2039;" horiz-adv-x="333" 
d="M14 284l179 206h136l-180 -206l108 -206h-136z" />
    <glyph glyph-name="guilsinglright" unicode="&#x203a;" horiz-adv-x="333" 
d="M180 284l-107 206h136l106 -206l-179 -206h-136z" />
    <glyph glyph-name="quotedblbase" unicode="&#x201e;" horiz-adv-x="377" 
d="M-29 -116l62 116h-46l23 127h123l-20 -116l-84 -127h-58zM152 -116l62 116h-46l23 127h123l-20 -116l-84 -127h-58z" />
    <glyph glyph-name="quotedblleft" unicode="&#x201c;" horiz-adv-x="383" 
d="M236 709l-62 -116h46l-23 -127h-123l20 116l84 127h58zM417 709l-62 -116h46l-23 -127h-123l20 116l84 127h58z" />
    <glyph glyph-name="quotedblright" unicode="&#x201d;" horiz-adv-x="376" 
d="M67 457l62 116h-46l23 127h123l-20 -116l-84 -127h-58zM247 457l62 116h-46l23 127h123l-20 -116l-84 -127h-58z" />
    <glyph glyph-name="quoteleft" unicode="&#x2018;" horiz-adv-x="202" 
d="M235 700l-62 -116h46l-23 -127h-123l20 116l84 127h58z" />
    <glyph glyph-name="quoteright" unicode="&#x2019;" horiz-adv-x="196" 
d="M67 457l62 116h-46l23 127h123l-20 -116l-84 -127h-58z" />
    <glyph glyph-name="quotesinglbase" unicode="&#x201a;" horiz-adv-x="196" 
d="M-29 -116l62 116h-46l23 127h123l-20 -116l-84 -127h-58z" />
    <glyph glyph-name="uni2007" unicode="&#x2007;" horiz-adv-x="686" 
 />
    <glyph glyph-name="uni200A" unicode="&#x200a;" horiz-adv-x="100" 
 />
    <glyph glyph-name="uni2008" unicode="&#x2008;" horiz-adv-x="196" 
 />
    <glyph glyph-name="uni00A0" unicode="&#xa0;" horiz-adv-x="212" 
 />
    <glyph glyph-name="uni2009" unicode="&#x2009;" horiz-adv-x="200" 
 />
    <glyph glyph-name="uni200B" unicode="&#x200b;" 
 />
    <glyph glyph-name="uni20B5" unicode="&#x20b5;" horiz-adv-x="604" 
d="M256.5 560q-57.5 -42 -87 -112t-29.5 -152q0 -93 40 -145.5t126 -52.5q69 0 174 40l-7 -111q-34 -16 -77.5 -26.5t-86.5 -13.5l-15 -131h-92l31 133q-105 16 -164 93.5t-59 203.5q0 111 46.5 203.5t126.5 151t177 70.5l16 133h92l-31 -131q43 -3 82.5 -13.5t68.5 -26.5
l-33 -112q-43 19 -81 30t-81 11q-79 0 -136.5 -42z" />
    <glyph glyph-name="cent" unicode="&#xa2;" horiz-adv-x="455" 
d="M216 383.5q-38 -26.5 -58 -71t-20 -99.5q0 -61 27 -94.5t84 -33.5q55 0 114 38l-6 -98q-48 -28 -113 -34l-16 -135h-92l32 138q-76 14 -112 69t-36 137q0 73 27.5 137.5t81 108.5t128.5 56l16 134h92l-31 -131q63 -6 101 -34l-28 -98q-50 37 -101 37q-52 0 -90 -26.5z
" />
    <glyph glyph-name="colonmonetary" unicode="&#x20a1;" horiz-adv-x="622" 
d="M549 577l-130 -469q38 10 94 30l-7 -111q-49 -24 -120 -35l-29 -106h-73l28 100q-41 0 -77 9l-30 -109h-72l38 136q-61 35 -94.5 102.5t-33.5 161.5q0 105 41.5 193.5t113.5 147t162 78.5l30 109h73l-28 -100h7q35 0 71 -6l29 106h73l-34 -123q20 -8 40 -18l-33 -112
q-35 14 -39 16zM482 597q-30 5 -56 5q-15 0 -22 -1l-137 -490q30 -13 72 -13h4zM208 157l117 424q-72 -34 -112 -111.5t-40 -173.5q0 -88 35 -139z" />
    <glyph glyph-name="currency" unicode="&#xa4;" horiz-adv-x="642" 
d="M569 398q0 -62 -23.5 -118t-64.5 -98l82 -100l-53 -44l-82 101q-73 -48 -163 -48q-85 0 -143 45l-114 -96l-41 50l113 96q-28 48 -28 112q0 62 23.5 117.5t64.5 98.5l-82 100l53 44l83 -101q75 48 162 48q84 0 142 -45l115 96l42 -50l-114 -97q28 -48 28 -111zM198.5 225
q29.5 -32 84.5 -32q50 0 88.5 25t60 68.5t21.5 97.5t-29.5 86.5t-85.5 32.5q-50 0 -88.5 -25.5t-59.5 -69.5t-21 -96q0 -55 29.5 -87z" />
    <glyph glyph-name="dollar" unicode="$" horiz-adv-x="562" 
d="M224 580q-39 -23 -39 -69q0 -36 28 -56t89 -41q64 -23 101.5 -42t64.5 -56.5t27 -96.5q0 -86 -57 -152t-179 -78l-16 -133h-92l30 131q-110 4 -191 48l38 136q36 -32 84.5 -52.5t108.5 -20.5q64 0 101.5 23t37.5 72q0 45 -30.5 69.5t-103.5 50.5q-55 20 -90 41t-55 54.5
t-20 84.5q0 58 31.5 109t92 81.5t143.5 30.5h2l15 130h92l-32 -136q81 -14 134 -46l-33 -122q-52 33 -94.5 48t-92.5 15q-56 0 -95 -23z" />
    <glyph glyph-name="dong" unicode="&#x20ab;" horiz-adv-x="583" 
d="M576 591h-54l-104 -591h-107l8 56q-68 -66 -145 -66q-82 0 -128 57.5t-46 146.5q0 80 32 151.5t90 116t134 44.5q84 0 125 -63l27 148h-117l13 77h117l15 82h114l-14 -82h53zM290 113.5q33 28.5 50.5 74.5t17.5 99q0 58 -23 90.5t-70 32.5q-42 0 -75.5 -27.5t-52.5 -73.5
t-19 -101q0 -57 23.5 -90t71.5 -33q44 0 77 28.5zM6 -55h403l-16 -87h-403z" />
    <glyph glyph-name="Euro" unicode="&#x20ac;" horiz-adv-x="661" 
d="M336.5 568.5q-53.5 -33.5 -86.5 -92.5h268l-16 -84h-284q-10 -40 -11 -79h282l-15 -84h-261q26 -131 160 -131q69 0 174 40l-7 -111q-39 -19 -91 -30t-100 -11q-112 0 -183 64t-86 179h-99l15 84h82q1 39 11 79h-79l15 84h92q49 109 145.5 173.5t213.5 64.5
q49 0 97 -11.5t82 -29.5l-33 -112q-43 19 -81 30t-81 11q-70 0 -123.5 -33.5z" />
    <glyph glyph-name="florin" unicode="&#x192;" horiz-adv-x="566" 
d="M593 703l-26 -92q-21 8 -47 8q-44 0 -72 -24.5t-47 -81.5l-5 -16h124l-26 -92h-130l-127 -376q-29 -88 -82 -130.5t-132 -42.5q-45 0 -80 11l26 92q21 -8 47 -8q44 0 72 24.5t47 81.5l117 348h-77l26 92h82l15 43q32 92 84.5 133t134.5 41q43 0 76 -11z" />
    <glyph glyph-name="franc" unicode="&#x20a3;" horiz-adv-x="545" 
d="M254 588l-29 -166h222l-20 -113h-222l-17 -97h182l-16 -84h-181l-22 -128h-118l22 128h-60l15 84h60l86 488h406l-20 -112h-288z" />
    <glyph glyph-name="uni20B2" unicode="&#x20b2;" horiz-adv-x="638" 
d="M262.5 559.5q-57.5 -42.5 -86.5 -112t-29 -147.5q0 -95 43 -148.5t128 -53.5q45 0 94 13l25 140h-75l18 100h192l-55 -312q-32 -18 -85 -32t-104 -19l-16 -132h-92l30 132q-107 11 -170 90.5t-63 209.5q0 113 48 206.5t130.5 151t183.5 66.5l15 132h92l-31 -132
q44 -4 86 -14t67 -25l-33 -110q-36 17 -84 28t-90 11q-81 0 -138.5 -42.5z" />
    <glyph glyph-name="uni20AD" unicode="&#x20ad;" horiz-adv-x="621" 
d="M377 412h174l-15 -85h-176l159 -327h-130l-156 327h-38l-57 -327h-118l57 327h-67l15 85h67l51 288h118l-51 -288h38l248 288h142z" />
    <glyph glyph-name="lira" unicode="&#x20a4;" horiz-adv-x="529" 
d="M274 493l-10 -36h181l-14 -80h-190l-14 -51l-6 -22h187l-14 -81h-199q-26 -68 -51 -112h286l-19 -111h-434q33 61 56.5 112.5t43.5 110.5h-74l14 81h86l4 14l17 59h-84l14 80h93l14 49q30 105 89.5 156.5t156.5 51.5q66 0 119 -28l-32 -122q-27 19 -50 29t-50 10
q-89 0 -120 -110z" />
    <glyph glyph-name="uni20BA" unicode="&#x20ba;" horiz-adv-x="575" 
d="M533 339l-5 -27q-27 -153 -119 -232.5t-239 -79.5h-139l54 307l-76 -22l15 90l77 22l13 69l-78 -22l16 90l78 22l25 144h118l-19 -108l259 74l-16 -90l-259 -74l-12 -69l259 74l-16 -90l-259 -74l-41 -231h30q88 0 141 50.5t70 149.5l5 27h118z" />
    <glyph glyph-name="uni20BC" unicode="&#x20bc;" horiz-adv-x="651" 
d="M543.5 507.5q44.5 -56.5 44.5 -145.5q0 -40 -7 -81l-50 -281h-118l46 257q7 49 7 78q0 106 -75 130l-82 -465h-109l82 465q-64 -16 -95.5 -70t-45.5 -138l-46 -257h-118l50 281q21 131 90.5 209.5t185.5 91.5l21 118h109l-21 -121q87 -15 131.5 -71.5z" />
    <glyph glyph-name="uni20A6" unicode="&#x20a6;" horiz-adv-x="653" 
d="M645 331h-61l-59 -331h-96l-142 331h-104l-59 -331h-118l58 331h-60l13 73h60l52 296h117l126 -296h107l52 296h118l-52 -296h60zM255 404l-42 98l-17 -98h59zM466 331h-63l45 -105z" />
    <glyph glyph-name="peseta" unicode="&#x20a7;" horiz-adv-x="1294" 
d="M150 700h224q103 0 157 -50t54 -143q0 -86 -35 -147t-98 -93t-146 -32h-120l-41 -235h-118zM643 18.5q-26 28.5 -26 72.5q0 16 53 314h-68l26 92h58l21 113l115 12l-22 -125h105l-16 -92h-105q-27 -153 -37.5 -215.5t-10.5 -72.5q0 -23 12.5 -28.5t52.5 -5.5h31l-27 -93
h-82q-54 0 -80 28.5zM319 344q66 0 104.5 39.5t38.5 112.5q0 52 -23.5 78t-74.5 26h-113l-45 -256h113zM874 29l28 100q75 -50 141 -50q40 0 60 16.5t20 44.5t-18 42.5t-57 27.5q-58 19 -88 45.5t-30 81.5q0 46 23 84.5t69 61.5t112 23q82 0 141 -36l-26 -94q-59 46 -126 46
q-38 0 -61 -15.5t-23 -45.5q0 -20 10.5 -32t27 -19t56.5 -22q52 -19 79 -48.5t27 -82.5q0 -43 -21.5 -81t-67.5 -62t-115 -24q-87 0 -161 39z" />
    <glyph glyph-name="uni20B1" unicode="&#x20b1;" horiz-adv-x="661" 
d="M585 476q-3 -32 -10 -58h64l-13 -70h-76q-35 -72 -100 -113t-153 -41h-122l-34 -194h-119l62 348h-66l12 70h66l10 58h-66l12 70h67l27 154h239q187 0 201 -154h75l-13 -70h-63zM237 546h226q-23 54 -111 54h-105zM473 476h-248l-10 -58h249q8 27 9 58zM429 348h-226
l-10 -54h107q85 0 129 54z" />
    <glyph glyph-name="uni20BD" unicode="&#x20bd;" horiz-adv-x="621" 
d="M564.5 655q52.5 -45 52.5 -136q0 -127 -74.5 -201t-208.5 -74h-119l-13 -70h180l-14 -84h-181l-16 -90h-119l16 90h-73l15 84h73l12 70h-73l18 100h73l63 356h237q99 0 151.5 -45zM454 387.5q40 43.5 40 119.5q0 48 -28 70.5t-85 22.5h-103l-46 -256h105q77 0 117 43.5z
" />
    <glyph glyph-name="uni20B9" unicode="&#x20b9;" horiz-adv-x="572" 
d="M404 615q36 -42 37 -102h81l-14 -84h-78q-16 -52 -51 -92t-85 -63l143 -274h-124l-126 244q-26 -2 -42 -2h-118l15 85h104q62 0 104.5 27t60.5 75h-251l15 84h249q-1 50 -34 76t-93 26h-104l15 85h447l-15 -85h-136z" />
    <glyph glyph-name="sterling" unicode="&#xa3;" horiz-adv-x="539" 
d="M274 493l-27 -96h172l-15 -84h-181q-20 -69 -38 -115t-41 -87h286l-19 -111h-434q45 84 73.5 152t55.5 161h-76l15 84h85l31 109q30 105 89.5 156.5t156.5 51.5q66 0 119 -28l-32 -122q-27 19 -50 29t-50 10q-89 0 -120 -110z" />
    <glyph glyph-name="uni20A9" unicode="&#x20a9;" horiz-adv-x="887" 
d="M782 405h82l-14 -80h-100l-133 -325h-109l-30 325h-105l-146 -325h-115l-14 325h-92l14 80h75l-13 295h125l4 -295h108l126 277h88l30 -277h109l106 295h125zM471 405l-11 113l-51 -113h62zM282 325h-69l2 -148zM643 325h-71l17 -150z" />
    <glyph glyph-name="yen" unicode="&#xa5;" horiz-adv-x="591" 
d="M340 355h114l-15 -84h-138l-10 -56h138l-15 -84h-138l-23 -131h-118l23 131h-137l15 84h137l9 56h-136l15 84h112l-142 345h125l114 -283l209 283h125z" />
    <glyph glyph-name="uni2219" unicode="&#x2219;" horiz-adv-x="230" 
d="M65 343h117l-23 -130h-117z" />
    <glyph glyph-name="uni2215" unicode="&#x2215;" horiz-adv-x="363" 
d="M359 700h120l-402 -785h-120z" />
    <glyph glyph-name="plus" unicode="+" horiz-adv-x="428" 
d="M136 234h-129l16 88h129l23 134h96l-24 -134h129l-16 -88h-129l-23 -134h-96z" />
    <glyph glyph-name="minus" unicode="&#x2212;" horiz-adv-x="430" 
d="M23 322h354l-15 -88h-355z" />
    <glyph glyph-name="multiply" unicode="&#xd7;" horiz-adv-x="457" 
d="M265 273l95 -117l-68 -57l-94 116l-138 -118l-56 66l139 119l-95 118l68 57l95 -117l138 118l56 -66z" />
    <glyph glyph-name="divide" unicode="&#xf7;" horiz-adv-x="470" 
d="M198 508h110l-21 -118h-110zM23 322h395l-15 -88h-396zM137 167h110l-20 -118h-110z" />
    <glyph glyph-name="equal" unicode="=" horiz-adv-x="447" 
d="M41 401h364l-16 -87h-364zM13 240h364l-16 -87h-364z" />
    <glyph glyph-name="notequal" unicode="&#x2260;" horiz-adv-x="447" 
d="M281 314l-56 -74h152l-16 -87h-201l-42 -56h-83l42 56h-80l16 87h129l56 74h-173l16 87h222l42 56h83l-42 -56h59l-16 -87h-108z" />
    <glyph glyph-name="greater" unicode="&#x3e;" horiz-adv-x="400" 
d="M345 230l-375 -161l17 102l272 110l-232 111l16 96l320 -160z" />
    <glyph glyph-name="less" unicode="&#x3c;" horiz-adv-x="426" 
d="M29 327l375 161l-17 -102l-272 -110l232 -111l-16 -96l-320 160z" />
    <glyph glyph-name="greaterequal" unicode="&#x2265;" horiz-adv-x="433" 
d="M-8 172l16 94l276 90l-245 85l16 89l341 -132l-17 -94zM-29 51l15 84h364l-15 -84h-364z" />
    <glyph glyph-name="lessequal" unicode="&#x2264;" horiz-adv-x="450" 
d="M43 398l387 132l-16 -94l-272 -88l241 -87l-17 -89l-340 132zM-4 135h364l-15 -84h-364z" />
    <glyph glyph-name="plusminus" unicode="&#xb1;" horiz-adv-x="441" 
d="M159 314h-132l15 85h133l23 131h89l-23 -131h133l-15 -85h-133l-23 -132h-90zM-4 135h354l-15 -84h-355z" />
    <glyph glyph-name="approxequal" unicode="&#x2248;" horiz-adv-x="455" 
d="M257.5 301.5q-17.5 6.5 -40.5 18.5q-22 11 -35.5 16.5t-28.5 5.5q-19 0 -31.5 -11t-16.5 -30h-81q12 63 45.5 96.5t82.5 33.5q22 0 40.5 -7t41.5 -20q19 -10 32.5 -15.5t26.5 -5.5q18 0 28.5 11.5t13.5 32.5h81q-22 -132 -121 -132q-20 0 -37.5 6.5zM229.5 144.5
q-17.5 6.5 -40.5 18.5q-22 11 -35.5 16.5t-28.5 5.5q-19 0 -31.5 -11t-16.5 -30h-81q12 63 45.5 96.5t82.5 33.5q22 0 40.5 -7t41.5 -20q19 -10 32.5 -15.5t26.5 -5.5q18 0 28.5 11.5t13.5 32.5h81q-22 -132 -121 -132q-20 0 -37.5 6.5z" />
    <glyph glyph-name="asciitilde" unicode="~" horiz-adv-x="442" 
d="M265.5 297.5q-17.5 6.5 -40.5 18.5q-22 11 -35.5 16.5t-28.5 5.5q-19 0 -31.5 -11t-16.5 -30h-81q12 63 45.5 96.5t82.5 33.5q22 0 40.5 -7t41.5 -20q19 -10 32.5 -15.5t26.5 -5.5q18 0 28.5 11.5t13.5 32.5h81q-22 -132 -121 -132q-20 0 -37.5 6.5z" />
    <glyph glyph-name="logicalnot" unicode="&#xac;" horiz-adv-x="505" 
d="M357 317h-327l15 89h423l-44 -255h-95z" />
    <glyph glyph-name="infinity" unicode="&#x221e;" horiz-adv-x="702" 
d="M636 496q43 -42 43 -108q0 -60 -30.5 -111t-81.5 -81t-110 -30q-46 0 -81.5 19.5t-54.5 53.5q-32 -34 -74 -53.5t-89 -19.5q-71 0 -114.5 42t-43.5 109q0 59 31 110t82.5 81t110.5 30q47 0 82.5 -19.5t54.5 -54.5q31 34 73.5 54t88.5 20q70 0 113 -42zM259.5 293.5
q29.5 31.5 29.5 76.5q0 33 -20 52.5t-54 19.5q-45 0 -75.5 -32.5t-30.5 -75.5q0 -32 20 -52t54 -20q47 0 76.5 31.5zM540 295q30 33 30 76q-1 33 -20 52t-52 19q-45 0 -75.5 -32.5t-30.5 -75.5q0 -32 20 -52t54 -20q44 0 74 33z" />
    <glyph glyph-name="emptyset" unicode="&#x2205;" horiz-adv-x="513" 
d="M432 419q32 -47 32 -109q0 -68 -34 -126.5t-93 -93.5t-129 -35q-75 0 -128 42l-55 -51l-35 42l53 49q-32 46 -32 106q0 68 35.5 127.5t95 95t128.5 35.5q72 0 125 -42l56 51l35 -42zM121 208l198 182q-25 15 -58 15q-42 0 -76 -20.5t-53 -55.5t-19 -77q0 -23 8 -44z
M355 348l-199 -182q26 -16 59 -16q64 0 106 44t42 110q0 23 -8 44z" />
    <glyph glyph-name="integral" unicode="&#x222b;" horiz-adv-x="408" 
d="M183 546q18 83 68 125.5t121 42.5q43 0 76 -14l-25 -103q-18 5 -38 5q-35 0 -58 -21.5t-32 -61.5l-123 -565q-18 -83 -68 -125.5t-121 -42.5q-43 0 -76 14l25 103q18 -5 38 -5q35 0 58 21.5t32 61.5z" />
    <glyph glyph-name="uni2126" unicode="&#x2126;" horiz-adv-x="803" 
d="M305 562.5q-57 -40.5 -87.5 -108.5t-30.5 -149q0 -68 28 -118.5t83 -88.5l-18 -98h-291l19 106h157q-48 36 -76.5 89.5t-28.5 122.5q0 110 52 200.5t142.5 143t201.5 52.5q86 0 150 -33.5t99 -95.5t35 -144q0 -104 -50.5 -190.5t-145.5 -144.5h166l-18 -106h-309l18 98
q98 54 151.5 140.5t53.5 188.5q0 82 -44 129t-124 47q-76 0 -133 -40.5z" />
    <glyph glyph-name="uni2206" unicode="&#x2206;" horiz-adv-x="605" 
d="M546 42l-8 -42h-605l8 43l359 657h119zM95 106h323l-82 448z" />
    <glyph glyph-name="product" unicode="&#x220f;" horiz-adv-x="672" 
d="M112 589h-89l19 111h687l-19 -111h-89l-138 -789h-118l138 789h-273l-139 -789h-118z" />
    <glyph glyph-name="summation" unicode="&#x2211;" horiz-adv-x="581" 
d="M569 589h-373l203 -345l-310 -333h370l-19 -111h-547l9 54l364 396l-225 390l10 60h537z" />
    <glyph glyph-name="radical" unicode="&#x221a;" horiz-adv-x="778" 
d="M769 589h-123l-395 -789h-95l-68 397h-94l19 111h172l51 -300l344 692h208z" />
    <glyph glyph-name="uni00B5" unicode="&#xb5;" horiz-adv-x="557" 
d="M107 497h114l-50 -286q-4 -30 -4 -42q0 -40 20.5 -61.5t58.5 -21.5q51 0 96 45l64 366h114l-57 -326q-7 -40 -7 -54q0 -34 30 -34h18l-29 -93h-34q-81 0 -99 63q-27 -29 -61 -46t-72 -17q-42 0 -74 20l-45 -252h-113z" />
    <glyph glyph-name="partialdiff" unicode="&#x2202;" horiz-adv-x="587" 
d="M484.5 651.5q52.5 -72.5 52.5 -201.5q0 -108 -33.5 -214t-104.5 -176t-177 -70q-95 0 -142.5 55t-47.5 148q0 82 31 154t89 116t135 44q83 0 133 -56v22q0 156 -125 156q-61 0 -127 -33v100q68 28 143 28q121 0 173.5 -72.5zM346.5 162q45.5 77 63.5 189q-39 61 -104 61
q-47 0 -83 -30t-55.5 -79t-19.5 -102q0 -58 23 -87t63 -29q67 0 112.5 77z" />
    <glyph glyph-name="percent" unicode="%" horiz-adv-x="876" 
d="M66 355q-36 41 -36 111q0 64 26.5 121.5t74 92t108.5 34.5q65 0 102 -39.5t37 -107.5q0 -66 -26.5 -124.5t-74 -93.5t-108.5 -35q-67 0 -103 41zM236.5 421q22.5 25 34 62t11.5 74t-15 56t-42 19q-48 0 -73.5 -50.5t-25.5 -111.5q0 -74 57 -74q31 0 53.5 25zM649 700h94
l-533 -700h-95zM513 27q-36 41 -36 111q0 64 26.5 121.5t74 92t108.5 34.5q65 0 102 -39.5t37 -107.5q0 -66 -26.5 -124.5t-74 -93.5t-108.5 -35q-67 0 -103 41zM683.5 93q22.5 25 34 62t11.5 74t-15 56t-42 19q-48 0 -73.5 -50.5t-25.5 -111.5q0 -74 57 -74q31 0 53.5 25z
" />
    <glyph glyph-name="perthousand" unicode="&#x2030;" horiz-adv-x="1279" 
d="M66 355q-36 41 -36 111q0 64 26.5 121.5t74 92t108.5 34.5q65 0 102 -39.5t37 -107.5q0 -66 -26.5 -124.5t-74 -93.5t-108.5 -35q-67 0 -103 41zM236.5 421q22.5 25 34 62t11.5 74t-15 56t-42 19q-48 0 -73.5 -50.5t-25.5 -111.5q0 -74 57 -74q31 0 53.5 25zM649 700h94
l-533 -700h-95zM513 27q-36 41 -36 111q0 64 26.5 121.5t74 92t108.5 34.5q65 0 102 -39.5t37 -107.5q0 -66 -26.5 -124.5t-74 -93.5t-108.5 -35q-67 0 -103 41zM683.5 93q22.5 25 34 62t11.5 74t-15 56t-42 19q-48 0 -73.5 -50.5t-25.5 -111.5q0 -74 57 -74q31 0 53.5 25z
M917 27q-36 41 -36 111q0 64 26.5 121.5t74 92t108.5 34.5q65 0 102 -39.5t37 -107.5q0 -66 -26.5 -124.5t-74 -93.5t-108.5 -35q-67 0 -103 41zM1087.5 93q22.5 25 34 62t11.5 74t-15 56t-42 19q-48 0 -73.5 -50.5t-25.5 -111.5q0 -74 57 -74q31 0 53.5 25z" />
    <glyph glyph-name="lozenge" unicode="&#x25ca;" horiz-adv-x="595" 
d="M572 350l-296 -350h-101l-171 350l295 350h101zM436 353l-109 227l-191 -230l107 -227z" />
    <glyph glyph-name="at" unicode="@" horiz-adv-x="687" 
d="M73.5 -33q-51.5 54 -51.5 149q0 117 62 217.5t161.5 160t205.5 59.5q94 0 145 -54t51 -148q0 -58 -20 -118t-60 -99.5t-96 -39.5q-17 0 -25.5 7t-8.5 27q0 27 10.5 56.5t35.5 82.5q33 70 49 112q-16 23 -42 38t-62 15q-63 0 -132 -47t-115 -119t-46 -141q0 -37 16.5 -61
t52.5 -24q44 0 97.5 31t92.5 85q-1 -5 -6 -20t-5 -33q0 -25 10 -43t33 -18q25 0 66 19.5t68 44.5q-61 -87 -154 -140t-189 -53q-92 0 -143.5 54zM215 153q0 55 35.5 105.5t85.5 81.5t89 31q35 0 39 -22q-18 -53 -58 -110t-84.5 -95t-74.5 -38q-32 0 -32 47z" />
    </font>
</defs>
</svg>
